<svg width="25" height="25" viewBox="0 0 25 25" fill="none" xmlns="http://www.w3.org/2000/svg">
<path fill-rule="evenodd" clip-rule="evenodd" d="M16.9069 5.23347C16.8995 5.09806 17.0046 4.98232 17.1417 4.97498L18.7535 4.88862C18.8276 4.88444 18.9003 4.91381 18.9506 4.9682C19.0009 5.02256 19.0238 5.09634 19.013 5.16917L18.7805 6.74619C18.7625 6.86837 18.6562 6.9564 18.5347 6.9564C18.5228 6.9564 18.5108 6.95557 18.4986 6.95379C18.3627 6.93427 18.2686 6.80966 18.2883 6.67547L18.4208 5.77739C16.5247 7.45051 14.4272 8.93818 12.1781 10.2038C10.0825 11.3831 7.80037 12.4004 5.39519 13.2274C5.36815 13.2367 5.34051 13.2411 5.3134 13.2411C5.21051 13.2411 5.1143 13.1776 5.07855 13.0763C5.03338 12.9482 5.1019 12.8082 5.23162 12.7636C10.1515 11.0719 14.4722 8.60112 18.0832 5.41633L17.1687 5.46535C17.0317 5.47314 16.9143 5.36888 16.9069 5.23347ZM20.0033 18.6971V19.7549C20.0033 19.8905 19.892 20.0004 19.7547 20.0004H4.53775C4.40041 20.0004 4.28906 19.8905 4.28906 19.7549V18.6971C4.28906 18.5615 4.40041 18.4515 4.53775 18.4515H5.27679V14.8799C5.27679 14.7443 5.38813 14.6343 5.52547 14.6343H7.54074C7.67808 14.6343 7.78943 14.7443 7.78943 14.8799V18.4515H9.01887V12.8799C9.01887 12.7443 9.13022 12.6343 9.26756 12.6343H11.2829C11.4202 12.6343 11.5315 12.7443 11.5315 12.8799V18.4515H12.761V10.7915C12.761 10.6559 12.8723 10.5459 13.0096 10.5459H15.0249C15.1623 10.5459 15.2736 10.6559 15.2736 10.7915V18.4515H16.5029V8.91279C16.5029 8.7772 16.6143 8.66726 16.7516 8.66726H18.7669C18.9042 8.66726 19.0156 8.7772 19.0156 8.91279V18.4515H19.7546C19.892 18.4515 20.0033 18.5615 20.0033 18.6971ZM17.0003 18.4515H18.5182V9.15833H17.0003V18.4515ZM13.2583 18.4515H14.7762V11.037H13.2583V18.4515ZM9.51625 18.4515H11.0342V13.1254H9.51625V18.4515ZM5.77419 18.4515H7.29208V15.1254H5.77419V18.4515ZM19.506 18.9426H4.78644V19.5093H19.506V18.9426ZM4.28906 7.39185C4.28906 5.67936 5.70017 4.28613 7.43464 4.28613C9.16914 4.28613 10.5802 5.67936 10.5802 7.39185C10.5802 9.10434 9.16911 10.4975 7.43464 10.4975C5.70017 10.4976 4.28906 9.10434 4.28906 7.39185ZM4.78644 7.39185C4.78644 8.83358 5.97441 10.0065 7.43461 10.0065C8.89487 10.0065 10.0828 8.83355 10.0828 7.39185C10.0828 5.9501 8.89484 4.7772 7.43461 4.7772C5.97441 4.7772 4.78644 5.95013 4.78644 7.39185ZM6.70916 8.8267C6.85259 8.92102 7.0193 8.98326 7.19382 9.0134V9.20176C7.19382 9.33318 7.30172 9.43971 7.43483 9.43971C7.56794 9.43971 7.67584 9.33318 7.67584 9.20176V9.01791C7.88772 8.9863 8.10377 8.91009 8.27322 8.78315C8.47608 8.63116 8.61109 8.41353 8.60403 8.12149C8.60322 8.0881 8.6013 8.05867 8.59819 8.0335C8.55883 7.71338 8.38341 7.50504 8.15083 7.36641C7.94632 7.2445 7.70099 7.18376 7.47605 7.1473C7.31338 7.12093 7.142 7.07628 7.01641 6.99531C6.91874 6.93236 6.8487 6.84124 6.84218 6.70791C6.83509 6.56381 6.89878 6.44755 6.99919 6.36696C7.07768 6.30395 7.17784 6.26015 7.28636 6.23857C7.39774 6.21641 7.51736 6.21813 7.63166 6.24674C7.81318 6.29216 7.97846 6.41029 8.0655 6.61495C8.11698 6.73609 8.2582 6.79311 8.3809 6.74229C8.50359 6.69146 8.56135 6.55203 8.50987 6.43089C8.35749 6.07253 8.06733 5.86551 7.74842 5.78568C7.72439 5.77967 7.70018 5.77442 7.67587 5.76991V5.58189C7.67587 5.45046 7.56797 5.34393 7.43486 5.34393C7.30175 5.34393 7.19385 5.45049 7.19385 5.58189V5.77347L7.19227 5.77377C7.00818 5.81036 6.83531 5.88706 6.69607 5.99884C6.48233 6.17044 6.34679 6.41956 6.36206 6.7302C6.37741 7.04224 6.53514 7.25156 6.75473 7.39311C6.94638 7.51665 7.18179 7.58052 7.39892 7.61572C7.57375 7.64405 7.76042 7.68886 7.90233 7.77348C8.01617 7.84134 8.10168 7.94053 8.11996 8.08921C8.12239 8.10894 8.12369 8.12333 8.12391 8.13257C8.12677 8.25098 8.06942 8.34122 7.98331 8.4057C7.87581 8.48621 7.72502 8.53366 7.57422 8.55173C7.53328 8.55664 7.49744 8.55944 7.46706 8.56011C7.28851 8.56432 7.11231 8.52113 6.9747 8.43065C6.86154 8.35626 6.77509 8.24742 6.739 8.10446C6.70726 7.97715 6.57705 7.89931 6.44807 7.93062C6.31913 7.96193 6.24029 8.09052 6.27203 8.21783C6.33977 8.48627 6.49998 8.68917 6.70916 8.8267Z" fill="black"/>
</svg>
