<svg width="38" height="38" viewBox="0 0 38 38" fill="none" xmlns="http://www.w3.org/2000/svg">
<path d="M37.0265 12.2541L35.1161 11.5189C34.8446 10.4984 34.4395 9.52119 33.9087 8.60629L34.7401 6.73427C34.8398 6.50984 34.7911 6.24718 34.6173 6.07343L32.0786 3.53478C31.9049 3.36111 31.6423 3.31242 31.4177 3.41202L29.5451 4.24364C28.6302 3.71298 27.6534 3.30797 26.6335 3.03647L25.8979 1.12556C25.8097 0.896375 25.5894 0.745117 25.3438 0.745117H21.7536C21.508 0.745117 21.2877 0.896375 21.1995 1.12556L20.4638 3.03647C19.4438 3.30789 18.4671 3.7129 17.5522 4.24364L15.6795 3.41195C15.4551 3.3122 15.1923 3.36103 15.0187 3.5347L12.4799 6.07343C12.3063 6.24718 12.2574 6.50984 12.3571 6.73427L13.1887 8.60674C12.6579 9.52171 12.2529 10.4985 11.9815 11.5186L10.0707 12.2541C9.84154 12.3422 9.69028 12.5625 9.69028 12.8082V16.3984C9.69028 16.6441 9.84154 16.8643 10.0707 16.9526L11.9811 17.6878C12.2527 18.7085 12.6578 19.6857 13.1885 20.6004L12.3571 22.4724C12.3233 22.5485 12.3079 22.629 12.3073 22.7089L10.1715 24.785C9.90084 24.6102 9.5863 24.5126 9.25498 24.5079C8.7906 24.5012 8.35137 24.6754 8.01961 24.9979L1.11913 31.7055C0.432454 32.3731 0.416868 33.4749 1.08432 34.1616L3.57992 36.7291C3.91992 37.0789 4.3725 37.2544 4.82568 37.2544C5.26216 37.2544 5.69931 37.0914 6.03634 36.7638L12.9367 30.0566C13.2685 29.7341 13.4549 29.3004 13.4615 28.8356C13.4662 28.5042 13.3787 28.1862 13.2114 27.9107L15.3442 25.8374C15.4554 25.8553 15.5717 25.8426 15.6794 25.7948L17.5522 24.9631C18.4672 25.4939 19.4441 25.8988 20.4638 26.1702L21.1994 28.0812C21.2875 28.3104 21.5078 28.4617 21.7535 28.4617H25.3438C25.5894 28.4617 25.8096 28.3104 25.8979 28.0812L26.6332 26.1708C27.6537 25.8993 28.6309 25.4942 29.5457 24.9634L31.4177 25.7948C31.6423 25.8947 31.9049 25.8458 32.0786 25.6721L34.6173 23.1334C34.791 22.9596 34.8398 22.6969 34.7401 22.4725L33.9084 20.5998C34.4391 19.6849 34.8441 18.7081 35.1155 17.6883L37.0265 16.9527C37.2556 16.8645 37.4069 16.6443 37.4069 16.3986V12.8083C37.4069 12.5626 37.2557 12.3423 37.0265 12.2541ZM11.0322 25.6048L13.0196 23.6729L14.4234 25.0767L12.4157 27.0282L11.0322 25.6048ZM12.1091 29.205L5.2088 35.9123C4.99134 36.1234 4.64281 36.1186 4.43158 35.9014L1.93605 33.3339C1.7249 33.1167 1.72987 32.7681 1.94711 32.5569L8.8476 25.8493C8.95195 25.7479 9.09052 25.6966 9.23836 25.6953C9.38605 25.6974 9.52321 25.756 9.62459 25.8604L12.1203 28.428C12.2217 28.5322 12.2764 28.671 12.2743 28.8188C12.2721 28.9664 12.2135 29.1035 12.1091 29.205ZM36.2194 15.9908L34.4017 16.6906C34.2191 16.7609 34.0827 16.9168 34.0374 17.1072C33.7733 18.217 33.3352 19.2738 32.7352 20.2482C32.6326 20.4149 32.6187 20.6215 32.6982 20.8004L33.4893 22.5819L31.5271 24.5441L29.7464 23.7532C29.5674 23.6737 29.3608 23.6875 29.1941 23.7903C28.22 24.3902 27.1629 24.8284 26.0522 25.0928C25.8618 25.1381 25.7059 25.2743 25.6356 25.4571L24.9361 27.2742H22.1613L21.4616 25.4565C21.3913 25.2737 21.2354 25.1375 21.0449 25.0922C19.9352 24.8281 18.8785 24.39 17.9039 23.79C17.7371 23.6872 17.5304 23.6734 17.3517 23.7529L15.5702 24.5441L13.608 22.582L14.3989 20.8012C14.4784 20.6222 14.4645 20.4156 14.3618 20.2488C13.7619 19.2749 13.3237 18.2178 13.0594 17.1069C13.014 16.9166 12.8778 16.7606 12.695 16.6903L10.8779 15.9909V13.216L12.6954 12.5164C12.878 12.4461 13.0144 12.2901 13.0597 12.0997C13.3239 10.9897 13.762 9.93288 14.362 8.95846C14.4646 8.79177 14.4785 8.58514 14.3991 8.4062L13.608 6.62495L15.5702 4.66275L17.3516 5.45393C17.5305 5.53341 17.7371 5.51961 17.9039 5.41689C18.8781 4.81698 19.935 4.37887 21.0449 4.11457C21.2354 4.0693 21.3912 3.93304 21.4615 3.75031L22.1613 1.93269H24.9361L25.6358 3.75031C25.7061 3.93296 25.8619 4.0693 26.0524 4.11457C27.1624 4.37887 28.2192 4.81698 29.1934 5.41689C29.3602 5.51954 29.5668 5.53334 29.7457 5.45393L31.5271 4.66275L33.4893 6.62488L32.6984 8.40568C32.6189 8.58462 32.6328 8.79125 32.7355 8.95802C33.3355 9.93221 33.7737 10.9892 34.0379 12.0998C34.0832 12.2903 34.2195 12.4462 34.4022 12.5165L36.2193 13.2159L36.2194 15.9908ZM23.5487 5.93991C18.7717 5.93991 14.8852 9.8263 14.8852 14.6034C14.8852 19.3804 18.7716 23.2669 23.5487 23.2669C28.3257 23.2669 32.2121 19.3805 32.2121 14.6034C32.2121 9.8263 28.3257 5.93991 23.5487 5.93991ZM23.5487 22.0794C19.4264 22.0794 16.0727 18.7256 16.0727 14.6034C16.0727 10.4811 19.4264 7.12741 23.5487 7.12741C27.671 7.12741 31.0246 10.4812 31.0246 14.6034C31.0246 18.7256 27.6709 22.0794 23.5487 22.0794ZM25.552 14.6818C26.1276 14.1448 26.4885 13.3804 26.4885 12.533C26.4885 10.912 25.1697 9.59318 23.5487 9.59318C21.9277 9.59318 20.6089 10.912 20.6089 12.533C20.6089 13.3804 20.9697 14.1447 21.5454 14.6818C19.8222 15.3929 18.5547 16.9969 18.3449 18.9567C18.327 19.1243 18.3811 19.2915 18.4937 19.4168C18.6063 19.5421 18.7668 19.6136 18.9353 19.6136L28.162 19.6135C28.3305 19.6135 28.491 19.5419 28.6036 19.4167C28.7162 19.2914 28.7703 19.1241 28.7523 18.9566C28.5427 16.9969 27.2751 15.3929 25.552 14.6818ZM21.7964 12.533C21.7964 11.5667 22.5824 10.7807 23.5487 10.7807C24.515 10.7807 25.301 11.5668 25.301 12.533C25.301 13.4987 24.5157 14.2845 23.5502 14.2853C23.5497 14.2853 23.5492 14.2853 23.5487 14.2853C23.5482 14.2853 23.5477 14.2853 23.5472 14.2853C22.5817 14.2844 21.7964 13.4986 21.7964 12.533ZM19.6509 18.4261C20.1289 16.7038 21.7017 15.4735 23.5471 15.4728H23.5487C23.5487 15.4728 23.5497 15.4728 23.5503 15.4728C25.3956 15.4735 26.9684 16.7038 27.4464 18.4261H19.6509Z" fill="white"/>
</svg>
