<svg width="41" height="37" viewBox="0 0 41 37" fill="none" xmlns="http://www.w3.org/2000/svg">
<path d="M6.69126 31.3438C9.44246 33.9036 12.9477 35.6468 16.7637 36.353C20.5797 37.0592 24.5351 36.6968 28.1298 35.3114C31.7244 33.9261 34.7967 31.5801 36.9583 28.5702C39.1199 25.5603 40.2737 22.0215 40.2737 18.4015C40.2737 14.7815 39.1199 11.2427 36.9583 8.23277C34.7967 5.22282 31.7244 2.87685 28.1297 1.49153C24.5351 0.106202 20.5797 -0.256265 16.7637 0.44997C12.9477 1.15621 9.44246 2.89942 6.69126 5.45917C3.00711 8.89419 0.938036 13.5487 0.938034 18.4015C0.938036 23.2542 3.00712 27.9088 6.69126 31.3438ZM17.3915 12.0149L25.9517 12.0149C26.1505 12.0148 26.3475 12.0512 26.5312 12.122C26.715 12.1927 26.8819 12.2965 27.0225 12.4273C27.1631 12.5582 27.2747 12.7135 27.3507 12.8845C27.4268 13.0554 27.4659 13.2386 27.4657 13.4237L27.4657 21.3882C27.4657 21.7618 27.3062 22.1201 27.0223 22.3843C26.7383 22.6485 26.3532 22.7969 25.9517 22.7969C25.5501 22.7969 25.165 22.6485 24.881 22.3843C24.5971 22.1201 24.4376 21.7618 24.4376 21.3882L24.4389 16.8223L16.3215 24.3749C16.0377 24.6389 15.6528 24.7872 15.2514 24.7872C14.8501 24.7872 14.4652 24.6389 14.1814 24.3749C13.8976 24.1108 13.7382 23.7527 13.7382 23.3793C13.7382 23.0059 13.8976 22.6478 14.1814 22.3837L22.2989 14.8311L17.3915 14.8324C16.9899 14.8324 16.6048 14.684 16.3209 14.4198C16.0369 14.1556 15.8774 13.7973 15.8774 13.4237C15.8774 13.0501 16.0369 12.6917 16.3209 12.4276C16.6048 12.1634 16.9899 12.0149 17.3915 12.0149Z" fill="white"/>
</svg>
