<svg width="38" height="38" viewBox="0 0 38 38" fill="none" xmlns="http://www.w3.org/2000/svg">
<path d="M36.1519 27.0797C35.1838 26.1764 33.9761 25.6584 32.8383 25.6584H32.1777C32.1286 25.6267 32.0848 25.5874 32.048 25.542C32.382 25.3114 32.682 25.035 32.9392 24.721C33.7087 23.7871 34.1514 22.5105 34.2346 21.007L36.121 20.5324C36.2215 20.5071 36.3122 20.4523 36.3814 20.3751C36.4506 20.2978 36.495 20.2017 36.5091 20.0989C36.7314 18.4929 36.7314 16.8639 36.5091 15.2579C36.4951 15.1551 36.4506 15.0589 36.3814 14.9816C36.3123 14.9044 36.2216 14.8496 36.121 14.8243L33.0644 14.0548C32.7248 12.7344 32.1998 11.4688 31.505 10.2957L33.1225 7.58721C33.1756 7.49836 33.2009 7.39569 33.1952 7.29235C33.1896 7.18901 33.1532 7.08971 33.0907 7.00719C32.1124 5.71438 30.9606 4.56257 29.6678 3.5843C29.5853 3.52188 29.486 3.48551 29.3827 3.47985C29.2793 3.47419 29.1767 3.4995 29.0878 3.55253L26.3793 5.16998C25.2062 4.47526 23.9406 3.95026 22.6202 3.61064L21.8483 0.551496C21.8229 0.45106 21.7681 0.360496 21.6909 0.291435C21.6137 0.222374 21.5176 0.17797 21.415 0.163926C19.8094 -0.0546419 18.1815 -0.0546419 16.5759 0.163926C16.4732 0.177999 16.377 0.222484 16.2998 0.291658C16.2226 0.360833 16.1678 0.451533 16.1426 0.55209L15.3714 3.61057C14.0516 3.95026 12.7866 4.47529 11.6142 5.16998L8.90564 3.55253C8.81679 3.49945 8.71412 3.47412 8.61078 3.47978C8.50744 3.48544 8.40814 3.52183 8.32562 3.5843C7.03282 4.56301 5.8805 5.71458 4.90095 7.00675C4.83828 7.08934 4.80176 7.1888 4.79609 7.29233C4.79041 7.39585 4.81584 7.4987 4.86911 7.58766L6.48841 10.2957C5.7939 11.4683 5.26891 12.7334 4.92907 14.0531L1.87045 14.8243C1.76986 14.8496 1.67913 14.9044 1.60996 14.9816C1.54078 15.0589 1.49631 15.1551 1.48228 15.2579C1.26264 16.8641 1.26264 18.4927 1.48228 20.0989C1.49633 20.2017 1.5408 20.2978 1.60996 20.3751C1.67913 20.4523 1.76982 20.5071 1.87037 20.5324L3.75887 21.0074C3.84192 22.5106 4.28471 23.7872 5.05428 24.7213C5.31098 25.0348 5.61034 25.3107 5.94364 25.5411C5.90704 25.5868 5.86346 25.6265 5.8145 25.6587H5.15492C4.01633 25.6587 2.80827 26.1768 1.84039 27.08C0.87443 27.9813 0.320312 29.096 0.320312 30.1377V35.2481C0.320313 35.3859 0.375049 35.518 0.47248 35.6155C0.569911 35.7129 0.702055 35.7676 0.839844 35.7676H11.2375V37.4804C11.2375 37.6182 11.2923 37.7504 11.3897 37.8478C11.4871 37.9452 11.6193 38 11.7571 38H26.2362C26.374 38 26.5062 37.9452 26.6036 37.8478C26.701 37.7504 26.7558 37.6182 26.7558 37.4804V35.7678H37.1534C37.2912 35.7678 37.4234 35.713 37.5208 35.6156C37.6182 35.5182 37.673 35.386 37.673 35.2482V30.1377C37.6731 29.0961 37.1187 27.9815 36.1519 27.0797ZM29.915 25.1735C28.7527 25.1735 27.5264 24.3853 26.9524 22.6987C26.9457 22.6716 26.9367 22.645 26.9257 22.6193C26.7128 21.9275 26.6093 21.2066 26.619 20.4829C26.6194 19.9062 26.7712 19.3397 27.059 18.84C27.3469 18.3403 27.7609 17.9249 28.2596 17.6353C28.2849 17.6234 28.3091 17.6094 28.3321 17.5935C28.8339 17.3187 29.3985 17.1792 29.9706 17.1888C30.5426 17.1984 31.1023 17.3567 31.5945 17.6483C32.0868 17.9398 32.4947 18.3545 32.778 18.8515C33.0614 19.3485 33.2104 19.9108 33.2106 20.4829C33.2107 23.7054 31.5026 25.1735 29.915 25.1735ZM31.4054 26.3709C31.0776 27.012 30.4475 27.2616 29.9139 27.2742C29.3811 27.2615 28.7518 27.0119 28.4242 26.3706C28.5386 26.2671 28.6357 26.146 28.712 26.012C29.4913 26.2795 30.3375 26.2795 31.1167 26.012C31.1932 26.1462 31.2907 26.2674 31.4054 26.3709ZM18.9967 27.4057C18.113 27.4057 17.1921 26.9498 16.5492 25.9897C16.5428 25.9795 16.5358 25.9698 16.5287 25.96C16.0286 25.1979 15.702 24.1243 15.702 22.7151C15.702 21.8413 16.0491 21.0032 16.667 20.3854C17.2849 19.7675 18.1229 19.4204 18.9967 19.4204C19.8705 19.4204 20.7086 19.7675 21.3264 20.3854C21.9443 21.0032 22.2914 21.8413 22.2914 22.7151C22.2914 24.1137 21.9695 25.1814 21.4756 25.9425C21.4601 25.9624 21.446 25.9834 21.4334 26.0053C20.791 26.9545 19.8755 27.4057 18.9967 27.4057ZM20.4867 28.6044C20.1592 29.2462 19.5296 29.4958 18.9967 29.5085C18.4628 29.4958 17.8326 29.2463 17.5063 28.6049C17.6211 28.5009 17.7186 28.3793 17.7951 28.2446C18.5739 28.5119 19.4195 28.5119 20.1983 28.2446C20.2747 28.3791 20.3721 28.5005 20.4867 28.6044ZM25.5799 20.4829C25.5736 21.242 25.6733 21.9983 25.8762 22.7298C25.1023 23.7793 24.1005 24.6397 22.9461 25.2462C23.2106 24.429 23.3406 23.5743 23.3309 22.7154C23.3175 21.5747 22.855 20.4853 22.0437 19.6833C21.2323 18.8814 20.1376 18.4317 18.9968 18.4317C17.856 18.4317 16.7613 18.8814 15.9499 19.6833C15.1386 20.4853 14.6761 21.5747 14.6627 22.7154C14.653 23.5748 14.7831 24.4301 15.0479 25.2478C13.8933 24.6414 12.8911 23.7812 12.1168 22.7318C12.3201 21.9997 12.42 21.2427 12.4137 20.4829C12.4134 19.7724 12.2384 19.0728 11.904 18.4458C11.5697 17.8188 11.0863 17.2837 10.4964 16.8876C10.6933 14.7694 11.674 12.8011 13.2463 11.3682C14.8186 9.93529 16.8692 9.14101 18.9965 9.14094C21.1238 9.14086 23.1744 9.935 24.7468 11.3678C26.3192 12.8006 27.3 14.7688 27.4971 16.887C26.9072 17.2832 26.4238 17.8184 26.0895 18.4455C25.7551 19.0726 25.5801 19.7722 25.5799 20.4829ZM11.1027 24.7208C11.3238 24.451 11.516 24.1588 11.6762 23.8491C12.7699 25.1426 14.1849 26.1252 15.779 26.698C15.8416 26.7853 15.9057 26.8709 15.9733 26.9529C16.2305 27.2671 16.5306 27.5436 16.8647 27.7743C16.8278 27.8204 16.7838 27.8604 16.7343 27.8926H16.0725C15.7502 27.8942 15.4293 27.9338 15.1163 28.0106C14.172 26.609 12.5346 25.6578 11.0021 25.6578H10.3416C10.2924 25.6261 10.2486 25.5869 10.2117 25.5415C10.5456 25.3111 10.8455 25.0348 11.1027 24.721L11.1027 24.7208ZM22.0203 26.9529C22.0882 26.8706 22.1525 26.7846 22.2152 26.6971C23.8088 26.1238 25.2234 25.141 26.3165 23.8475C26.477 24.1578 26.6695 24.4505 26.8909 24.7208C27.1479 25.0346 27.4477 25.3108 27.7815 25.5413C27.7449 25.5869 27.7012 25.6263 27.6521 25.6581H26.9916C25.459 25.6581 23.8217 26.609 22.8773 28.0109C22.5644 27.9341 22.2434 27.8945 21.9212 27.8929H21.2592C21.2096 27.8605 21.1656 27.8204 21.1288 27.7741C21.4629 27.5436 21.763 27.2672 22.0202 26.9531L22.0203 26.9529ZM2.35687 17.6783C2.35702 17.0324 2.39419 16.3871 2.4682 15.7456L5.48653 14.9841C5.57887 14.9607 5.66302 14.9125 5.72977 14.8445C5.79653 14.7766 5.84332 14.6916 5.86505 14.5989C6.19866 13.1744 6.76319 11.8142 7.53623 10.5721C7.5866 10.4911 7.6137 10.3978 7.61455 10.3024C7.6154 10.2071 7.58997 10.1133 7.54105 10.0314L5.9432 7.35847C6.74544 6.3449 7.66283 5.42808 8.6769 4.62648L11.3498 6.2227C11.4317 6.2716 11.5255 6.29702 11.6208 6.29617C11.7162 6.29532 11.8095 6.26823 11.8905 6.21788C13.1325 5.44471 14.4927 4.8802 15.9172 4.54677C16.0099 4.52508 16.095 4.4783 16.1629 4.41154C16.2309 4.34478 16.2792 4.26062 16.3026 4.16825L17.0641 1.14985C18.3477 1.002 19.644 1.002 20.9277 1.14985L21.6886 4.16758C21.7119 4.26009 21.7602 4.34441 21.8282 4.41129C21.8962 4.47818 21.9813 4.52505 22.0742 4.54677C23.4994 4.88008 24.8603 5.44459 26.1029 6.21788C26.1839 6.26829 26.2772 6.29542 26.3726 6.29627C26.468 6.29712 26.5618 6.27167 26.6436 6.2227L29.3166 4.62648C30.3305 5.42772 31.2474 6.34459 32.0486 7.35847L30.4523 10.0314C30.4034 10.1133 30.378 10.2071 30.3788 10.3024C30.3797 10.3978 30.4068 10.4911 30.4571 10.5721C31.2305 11.8147 31.795 13.1756 32.1282 14.6008C32.1499 14.6938 32.1967 14.7789 32.2636 14.847C32.3305 14.9151 32.4148 14.9634 32.5074 14.9867L35.5232 15.7458C35.6742 17.0299 35.6742 18.3272 35.5232 19.6113L34.2148 19.9405C34.1341 19.2996 33.9112 18.6848 33.5623 18.1411C33.2134 17.5975 32.7473 17.1388 32.1982 16.7985C31.6491 16.4583 31.0309 16.2451 30.3888 16.1746C29.7466 16.1041 29.0969 16.1781 28.4871 16.3912C28.1756 14.0951 27.0423 11.9898 25.2972 10.4655C23.5521 8.94112 21.3136 8.10113 18.9965 8.10119C16.6794 8.10124 14.4409 8.94133 12.6958 10.4658C10.9508 11.9902 9.81762 14.0955 9.50629 16.3916C8.89652 16.1783 8.24675 16.1041 7.60459 16.1745C6.96242 16.2448 6.34412 16.4579 5.79498 16.7981C5.24583 17.1384 4.77974 17.5971 4.43085 18.1408C4.08196 18.6845 3.85911 19.2994 3.77861 19.9403L2.4682 19.6109C2.39418 18.9694 2.35701 18.3241 2.35687 17.6783ZM4.78271 20.4829C4.78256 19.9101 4.93176 19.3472 5.21557 18.8497C5.49939 18.3522 5.90802 17.9373 6.40114 17.646C6.89426 17.3547 7.45482 17.1969 8.02751 17.1884C8.60021 17.1798 9.16523 17.3207 9.66683 17.5972C9.68685 17.6107 9.70781 17.6228 9.72954 17.6333C10.2294 17.9225 10.6444 18.338 10.9331 18.8381C11.2218 19.3382 11.374 19.9054 11.3745 20.4829C11.3839 21.1998 11.2827 21.9139 11.0744 22.6C11.0563 22.6379 11.0429 22.6777 11.0344 22.7188C10.4576 24.3916 9.23636 25.1735 8.07862 25.1735C6.49086 25.1735 4.78271 23.7054 4.78271 20.4829ZM9.56901 26.3709C9.24118 27.012 8.61099 27.2615 8.07721 27.2742C7.54432 27.2616 6.9148 27.0118 6.58734 26.3701C6.70157 26.2667 6.79867 26.1458 6.87502 26.0119C7.65422 26.2795 8.50038 26.2797 9.2797 26.0125C9.35652 26.1465 9.45418 26.2675 9.56901 26.3709ZM11.2375 32.372V34.7283H3.67181V30.2492C3.67181 30.1114 3.61707 29.9792 3.51964 29.8818C3.42221 29.7844 3.29007 29.7296 3.15228 29.7296C3.01449 29.7296 2.88234 29.7844 2.78491 29.8818C2.68748 29.9792 2.63275 30.1114 2.63275 30.2492V34.7283H1.35967V30.1377C1.35967 28.498 3.34606 26.6978 5.15514 26.6978H5.59459C6.02722 27.6712 6.96022 28.2931 8.06786 28.3135H8.07743H8.08701C9.19576 28.2931 10.1296 27.6712 10.5624 26.6978H11.0019C12.1077 26.6978 13.3336 27.3814 14.102 28.3805C13.6112 28.6244 13.1587 28.9386 12.7586 29.3131C11.7919 30.2144 11.2375 31.3296 11.2375 32.372ZM25.7166 36.9609H24.2965V32.4834C24.2965 32.3457 24.2417 32.2135 24.1443 32.1161C24.0469 32.0187 23.9147 31.9639 23.7769 31.9639C23.6391 31.9639 23.507 32.0187 23.4096 32.1161C23.3121 32.2135 23.2574 32.3457 23.2574 32.4834V36.9609H14.589V32.4834C14.589 32.3457 14.5343 32.2135 14.4368 32.1161C14.3394 32.0187 14.2073 31.9639 14.0695 31.9639C13.9317 31.9639 13.7996 32.0187 13.7021 32.1161C13.6047 32.2135 13.55 32.3457 13.55 32.4834V36.9609H12.2768V32.372C12.2768 31.0402 13.5877 29.6023 15.0493 29.1095L15.0522 29.1085C15.3805 28.995 15.725 28.9354 16.0723 28.9322H16.5133C16.9446 29.9055 17.8778 30.5274 18.9871 30.5477H18.9967H19.0063C20.1139 30.5274 21.0473 29.9055 21.4796 28.9322H21.9209C22.2683 28.9354 22.6128 28.995 22.9411 29.1085L22.9439 29.1095C24.4056 29.6023 25.7164 31.0402 25.7164 32.372L25.7166 36.9609ZM36.6338 34.7286H35.2135V30.2492C35.2135 30.1114 35.1588 29.9792 35.0613 29.8818C34.9639 29.7844 34.8318 29.7296 34.694 29.7296C34.5562 29.7296 34.4241 29.7844 34.3266 29.8818C34.2292 29.9792 34.1745 30.1114 34.1745 30.2492V34.7283H26.7559V32.372C26.7559 31.3296 26.2015 30.2147 25.2344 29.3131C24.8344 28.9386 24.3818 28.6244 23.8911 28.3805C24.6595 27.3814 25.8856 26.6978 26.9912 26.6978H27.4306C27.8633 27.6711 28.7963 28.293 29.9039 28.3135H29.9135H29.9231C31.0318 28.2931 31.9657 27.6712 32.3985 26.6978H32.8385C33.716 26.6978 34.6653 27.1139 35.4432 27.8397C36.1888 28.5352 36.634 29.3943 36.634 30.1377L36.6338 34.7286Z" fill="white"/>
</svg>
