<svg width="31" height="23" viewBox="0 0 31 23" fill="none" xmlns="http://www.w3.org/2000/svg">
<path d="M19.6565 11.4209H17.0938V4.87175H19.6565" stroke="white" stroke-miterlimit="10" stroke-linecap="round" stroke-linejoin="round"/>
<path d="M19.5152 8.14648H17.1484" stroke="white" stroke-miterlimit="10" stroke-linecap="round" stroke-linejoin="round"/>
<path d="M24.6252 11.4209H22.0625V4.87175H24.6252" stroke="white" stroke-miterlimit="10" stroke-linecap="round" stroke-linejoin="round"/>
<path d="M24.4918 8.14648H22.125" stroke="white" stroke-miterlimit="10" stroke-linecap="round" stroke-linejoin="round"/>
<path d="M5.92969 11.4209V4.87175H8.4924" stroke="white" stroke-miterlimit="10" stroke-linecap="round" stroke-linejoin="round"/>
<path d="M8.34327 8.14648H5.97656" stroke="white" stroke-miterlimit="10" stroke-linecap="round" stroke-linejoin="round"/>
<path d="M11.0453 15.8691H12.2837C12.9722 15.8691 13.5302 15.3109 13.5302 14.6225C13.5302 13.934 12.9722 13.3758 12.2837 13.3758H10.7969V18.3623" stroke="white" stroke-miterlimit="10" stroke-linecap="round" stroke-linejoin="round"/>
<path d="M13.4788 18.3623L11.5938 15.9188" stroke="white" stroke-miterlimit="10" stroke-linecap="round" stroke-linejoin="round"/>
<path d="M11.3342 8.14632H12.9606C13.8648 8.14632 14.5979 7.41331 14.5979 6.50904C14.5979 5.60476 13.8648 4.87175 12.9606 4.87175H11.0078V11.4209" stroke="white" stroke-miterlimit="10" stroke-linecap="round" stroke-linejoin="round"/>
<path d="M14.5384 11.4209L12.0625 8.21161" stroke="white" stroke-miterlimit="10" stroke-linecap="round" stroke-linejoin="round"/>
<path d="M21.1546 18.3623C20.9325 17.7764 19.4861 13.9597 19.2648 13.3758L17.375 18.3623" stroke="white" stroke-miterlimit="10" stroke-linecap="round" stroke-linejoin="round"/>
<path d="M18.1406 17.1289H20.3931" stroke="white" stroke-miterlimit="10" stroke-linecap="round" stroke-linejoin="round"/>
<path d="M22.8125 13.3758V18.3623H24.6323" stroke="white" stroke-miterlimit="10" stroke-linecap="round" stroke-linejoin="round"/>
<path d="M5.92969 13.376H9.08568" stroke="white" stroke-miterlimit="10" stroke-linecap="round" stroke-linejoin="round"/>
<path d="M7.5 18.3623V13.7185" stroke="white" stroke-miterlimit="10" stroke-linecap="round" stroke-linejoin="round"/>
<path d="M15.625 13.3758V18.3623" stroke="white" stroke-miterlimit="10" stroke-linecap="round" stroke-linejoin="round"/>
<path d="M14.1406 22.2339H22.0959V21.7028C22.0959 21.0281 22.653 20.4834 23.3324 20.5037C23.989 20.5234 24.4952 21.0963 24.4952 21.7532V22.2339H27.2107C28.5005 22.2339 29.5558 21.1785 29.5558 19.8887V12.1373" stroke="white" stroke-miterlimit="10" stroke-linecap="round" stroke-linejoin="round"/>
<path d="M29.5569 9.46483V3.34503C29.5569 2.05516 28.5016 0.999852 27.2117 0.999852H3.34518C2.05531 0.999852 1 2.05516 1 3.34503V19.8887C1 21.1785 2.05531 22.2339 3.34518 22.2339H11.4692" stroke="white" stroke-miterlimit="10" stroke-linecap="round" stroke-linejoin="round"/>
</svg>
