<svg width="18" height="18" viewBox="0 0 18 18" fill="none" xmlns="http://www.w3.org/2000/svg">
<path fill-rule="evenodd" clip-rule="evenodd" d="M3.76312 2.73787C3.52163 2.66438 3.2655 2.625 3 2.625C1.55138 2.625 0.375 3.80137 0.375 5.25C0.375 6.69863 1.55138 7.875 3 7.875H9.75C11.1986 7.875 12.375 6.69863 12.375 5.25C12.375 3.80137 11.1986 2.625 9.75 2.625C9.4845 2.625 9.22838 2.66438 8.98688 2.73787C8.85563 1.41225 7.7355 0.375 6.375 0.375C5.0145 0.375 3.89437 1.41225 3.76312 2.73787ZM3 7.125C1.965 7.125 1.125 6.285 1.125 5.25C1.125 4.215 1.965 3.375 3 3.375C3.34875 3.375 3.67537 3.47025 3.95512 3.63675C4.07925 3.71025 4.2345 3.70612 4.3545 3.62662C4.4745 3.54675 4.53825 3.405 4.518 3.26213C4.50638 3.17663 4.5 3.08888 4.5 3C4.5 1.965 5.34 1.125 6.375 1.125C7.41 1.125 8.25 1.965 8.25 3C8.25 3.08888 8.24362 3.17663 8.232 3.26213C8.21175 3.405 8.2755 3.54675 8.3955 3.62662C8.5155 3.70612 8.67075 3.71025 8.79487 3.63675C9.07463 3.47025 9.40125 3.375 9.75 3.375C10.785 3.375 11.625 4.215 11.625 5.25C11.625 6.285 10.785 7.125 9.75 7.125H3Z" fill="black"/>
<path fill-rule="evenodd" clip-rule="evenodd" d="M9.01312 12.4879C8.77163 12.4144 8.5155 12.375 8.25 12.375C6.80138 12.375 5.625 13.5514 5.625 15C5.625 16.4486 6.80138 17.625 8.25 17.625H15C16.4486 17.625 17.625 16.4486 17.625 15C17.625 13.5514 16.4486 12.375 15 12.375C14.7345 12.375 14.4784 12.4144 14.2369 12.4879C14.1056 11.1622 12.9855 10.125 11.625 10.125C10.2645 10.125 9.14437 11.1622 9.01312 12.4879ZM8.25 16.875C7.215 16.875 6.375 16.035 6.375 15C6.375 13.965 7.215 13.125 8.25 13.125C8.59875 13.125 8.92538 13.2203 9.20513 13.3868C9.32925 13.4603 9.4845 13.4561 9.6045 13.3766C9.7245 13.2968 9.78825 13.155 9.768 13.0121C9.75638 12.9266 9.75 12.8389 9.75 12.75C9.75 11.715 10.59 10.875 11.625 10.875C12.66 10.875 13.5 11.715 13.5 12.75C13.5 12.8389 13.4936 12.9266 13.482 13.0121C13.4618 13.155 13.5255 13.2968 13.6455 13.3766C13.7655 13.4561 13.9207 13.4603 14.0449 13.3868C14.3246 13.2203 14.6512 13.125 15 13.125C16.035 13.125 16.875 13.965 16.875 15C16.875 16.035 16.035 16.875 15 16.875H8.25Z" fill="black"/>
<path fill-rule="evenodd" clip-rule="evenodd" d="M15.375 8.09475L14.5151 7.23487C14.3689 7.08862 14.1311 7.08862 13.9849 7.23487C13.8386 7.38112 13.8386 7.61888 13.9849 7.76513C13.9849 7.76513 14.523 8.30325 14.9546 8.73487C15.1654 8.94562 15.4515 9.0645 15.75 9.0645C16.0485 9.0645 16.3346 8.94562 16.5454 8.73487C16.977 8.30325 17.5151 7.76513 17.5151 7.76513C17.6614 7.61888 17.6614 7.38112 17.5151 7.23487C17.3689 7.08862 17.1311 7.08862 16.9849 7.23487L16.125 8.09475C16.125 8.09288 16.125 8.091 16.125 8.08912V4.875C16.125 4.25363 15.6214 3.75 15 3.75H13.5C13.293 3.75 13.125 3.918 13.125 4.125C13.125 4.332 13.293 4.5 13.5 4.5H15C15.207 4.5 15.375 4.668 15.375 4.875V8.08912V8.09475Z" fill="black"/>
<path fill-rule="evenodd" clip-rule="evenodd" d="M1.87481 9.96975V9.975V13.125C1.87481 13.7464 2.37844 14.25 2.99981 14.25H4.49981C4.70681 14.25 4.87481 14.082 4.87481 13.875C4.87481 13.668 4.70681 13.5 4.49981 13.5H2.99981C2.79281 13.5 2.62481 13.332 2.62481 13.125V9.975C2.62481 9.97313 2.62481 9.97125 2.62481 9.96975L3.48469 10.8296C3.63094 10.9759 3.86869 10.9759 4.01494 10.8296C4.16119 10.683 4.16119 10.4456 4.01494 10.299C4.01494 10.299 3.47681 9.76125 3.04519 9.32962C2.83444 9.1185 2.54831 9 2.24981 9C1.95131 9 1.66519 9.1185 1.45444 9.32962C1.02281 9.76125 0.484687 10.299 0.484687 10.299C0.338438 10.4456 0.338438 10.683 0.484687 10.8296C0.630937 10.9759 0.868688 10.9759 1.01494 10.8296L1.87481 9.96975Z" fill="black"/>
</svg>
