<svg width="64" height="64" viewBox="0 0 64 64" fill="none" xmlns="http://www.w3.org/2000/svg">
<path d="M44 14H30C28.9391 14 27.9217 14.4214 27.1716 15.1716C26.4214 15.9217 26 16.9391 26 18V46C26 47.0609 26.4214 48.0783 27.1716 48.8284C27.9217 49.5786 28.9391 50 30 50H44C45.0609 50 46.0783 49.5786 46.8284 48.8284C47.5786 48.0783 48 47.0609 48 46V18C48 16.9391 47.5786 15.9217 46.8284 15.1716C46.0783 14.4214 45.0609 14 44 14ZM44 46H30V18H44V46Z" fill="#0E4366"/>
<path d="M35 41H39V45H35V41Z" fill="#0E4366"/>
<path d="M19.41 25.59L16.59 28.41L18.17 30H11V34H18.17L16.59 35.59L19.41 38.41L24.41 33.41C24.7825 33.0352 24.9916 32.5283 24.9916 32C24.9916 31.4716 24.7825 30.9647 24.41 30.59L19.41 25.59Z" fill="#0E4366"/>
<path d="M51.0007 6C51.0007 4.4087 50.3685 2.88258 49.2433 1.75736C48.1181 0.632141 46.592 0 45.0007 0L19.0007 0C17.4094 0 15.8832 0.632141 14.758 1.75736C13.6328 2.88258 13.0007 4.4087 13.0007 6V12.05C10.2859 14.6208 8.1237 17.7179 6.64603 21.1523C5.16836 24.5867 4.40625 28.2862 4.40625 32.025C4.40625 35.7638 5.16836 39.4633 6.64603 42.8977C8.1237 46.3321 10.2859 49.4292 13.0007 52V58C13.0007 59.5913 13.6328 61.1174 14.758 62.2426C15.8832 63.3679 17.4094 64 19.0007 64H45.0007C46.592 64 48.1181 63.3679 49.2433 62.2426C50.3685 61.1174 51.0007 59.5913 51.0007 58V52C53.7076 49.4299 55.8631 46.3358 57.3361 42.906C58.8091 39.4763 59.5687 35.7827 59.5687 32.05C59.5687 28.3173 58.8091 24.6237 57.3361 21.194C55.8631 17.7642 53.7076 14.6701 51.0007 12.1V6ZM55.5707 32C55.5707 36.6617 54.1883 41.2187 51.5984 45.0948C49.0085 48.9709 45.3274 51.9919 41.0205 53.7758C36.7137 55.5598 31.9745 56.0266 27.4024 55.1171C22.8303 54.2077 18.6305 51.9628 15.3342 48.6665C12.0378 45.3702 9.79301 41.1704 8.88355 36.5983C7.9741 32.0261 8.44086 27.287 10.2248 22.9802C12.0088 18.6733 15.0298 14.9922 18.9059 12.4023C22.7819 9.81236 27.339 8.43 32.0007 8.43C38.2502 8.4353 44.2422 10.9203 48.6613 15.3393C53.0804 19.7584 55.5654 25.7505 55.5707 32Z" fill="#0E4366"/>
</svg>
