<svg width="70" height="70" viewBox="0 0 70 70" fill="none" xmlns="http://www.w3.org/2000/svg">
<g clip-path="url(#clip0_11211_1981)">
<path d="M49.5799 5.83333H37.9133V0H49.5799C54.4041 0 58.3299 3.92583 58.3299 8.75V17.5175L62.6991 13.1192L66.8233 17.2433L59.5141 24.5525C58.3824 25.6813 56.8978 26.2471 55.4133 26.2471C53.9287 26.2471 52.4441 25.6842 51.3153 24.5554L44.0033 17.2433L48.1274 13.1192L52.4966 17.4883V8.74708C52.4966 7.14 51.1899 5.83042 49.5799 5.83042V5.83333ZM17.4966 61.25V52.5088L21.8658 56.8779L25.9899 52.7537L18.6779 45.4417C16.4204 43.1929 12.7424 43.1842 10.4762 45.4417L3.16702 52.7508L7.29118 56.875L11.6603 52.4767V61.2442C11.6603 66.0683 15.5862 69.9942 20.4104 69.9942H32.077V64.1608H20.4104C18.8004 64.1608 17.4937 62.8512 17.4937 61.2442L17.4966 61.25ZM32.0799 16.0417C32.0799 21.5804 29.2566 26.6467 24.5316 29.5954C23.7908 30.0563 23.3299 30.9604 23.3299 31.9492V37.9167H8.7466V31.9521C8.7466 30.9575 8.30035 30.065 7.57993 29.6158C2.11702 26.2267 -0.787983 19.9179 0.186184 13.5421C1.1866 7.00875 6.16535 1.715 12.5791 0.364583C17.4062 -0.65625 22.3587 0.513333 26.1358 3.57875C29.9128 6.64125 32.077 11.1854 32.077 16.0417H32.0799ZM21.8716 11.6667H10.2049C10.2049 13.8192 11.3862 15.68 13.1216 16.6921V29.1667H18.9549V16.6921C20.6903 15.6829 21.8716 13.8221 21.8716 11.6667ZM69.9966 48.125C69.9966 53.6638 67.1733 58.73 62.4483 61.6787C61.7074 62.1396 61.2466 63.0438 61.2466 64.0325V70H46.6633V64.0354C46.6633 63.0408 46.217 62.1483 45.4966 61.6992C40.0337 58.31 37.1316 52.0013 38.1058 45.6254C39.1062 39.095 44.0849 33.7983 50.4987 32.4479C55.3258 31.4271 60.2783 32.5967 64.0553 35.6621C67.8324 38.7246 69.9966 43.2688 69.9966 48.125ZM59.7883 43.75H48.1216C48.1216 45.9025 49.3028 47.7633 51.0383 48.7754V61.25H56.8716V48.7754C58.607 47.7663 59.7883 45.9054 59.7883 43.75Z" fill="#0E4366"/>
</g>
<defs>
<clipPath id="clip0_11211_1981">
<rect width="70" height="70" fill="white"/>
</clipPath>
</defs>
</svg>
