<svg width="70" height="70" viewBox="0 0 70 70" fill="none" xmlns="http://www.w3.org/2000/svg">
<g clip-path="url(#clip0_11211_1998)">
<path d="M52.5 35C42.8342 35 35 42.8342 35 52.5C35 62.1658 42.8342 70 52.5 70C62.1658 70 70 62.1658 70 52.5C70 42.8342 62.1658 35 52.5 35ZM54.6933 59.6167L54.6817 59.6283C52.5117 61.7983 48.6792 61.8042 46.4479 59.5729L40.0838 52.9579L44.1292 48.755L50.5925 55.4663L61.1333 44.6658L65.2108 48.8367L54.6904 59.6167H54.6933ZM8.75 17.5C8.75 7.84875 16.5988 0 26.25 0C35.9013 0 43.75 7.84875 43.75 17.5C43.75 27.1513 35.9013 35 26.25 35C16.5988 35 8.75 27.1513 8.75 17.5ZM37.1029 70H0V55.4167C0 47.3638 6.53042 40.8333 14.5833 40.8333H32.3138C30.3246 44.2692 29.1667 48.2446 29.1667 52.5C29.1667 59.4796 32.2467 65.7242 37.1029 70Z" fill="#0E4366"/>
</g>
<defs>
<clipPath id="clip0_11211_1998">
<rect width="70" height="70" fill="white"/>
</clipPath>
</defs>
</svg>
