<svg width="70" height="70" viewBox="0 0 70 70" fill="none" xmlns="http://www.w3.org/2000/svg">
<g clip-path="url(#clip0_11211_1988)">
<path d="M35 14.0001C38.8661 14.0001 42.0001 10.8661 42.0001 7.00005C42.0001 3.13403 38.8661 0 35 0C31.134 0 28 3.13403 28 7.00005C28 10.8661 31.134 14.0001 35 14.0001Z" fill="#0E4366"/>
<path d="M49.0001 7C49.0001 14.6999 42.7001 20.9999 35.0002 20.9999C27.3002 20.9999 21 14.6999 21 7H14C14 14.6999 18.2 21.7 24.5 25.1999V69.9999H31.5V49H38.5001V69.9999H45.5001V25.1999C51.8001 21.7 56.0001 14.6999 56.0001 7H49.0001Z" fill="#0E4366"/>
<path d="M61.25 38.5C64.1495 38.5 66.5 36.1495 66.5 33.25C66.5 30.3505 64.1495 28 61.25 28C58.3505 28 56 30.3505 56 33.25C56 36.1495 58.3505 38.5 61.25 38.5Z" fill="#0E4366"/>
<path d="M66.4999 45.4999H55.9999C53.8999 45.4999 52.5 46.8998 52.5 48.9998V62.9999H70V49C70 46.9 68.5999 45.4999 66.4999 45.4999Z" fill="#0E4366"/>
<path d="M8.75 38.5C11.6495 38.5 14 36.1495 14 33.25C14 30.3505 11.6495 28 8.75 28C5.8505 28 3.5 30.3505 3.5 33.25C3.5 36.1495 5.8505 38.5 8.75 38.5Z" fill="#0E4366"/>
<path d="M13.9999 45.4999H3.49994C1.39994 45.4999 0 46.9 0 49V62.9999H17.5V49C17.5 46.9 16.0999 45.4999 13.9999 45.4999Z" fill="#0E4366"/>
</g>
<defs>
<clipPath id="clip0_11211_1988">
<rect width="70" height="70" fill="white"/>
</clipPath>
</defs>
</svg>
