<svg width="69" height="69" viewBox="0 0 69 69" fill="none" xmlns="http://www.w3.org/2000/svg">
<g clip-path="url(#clip0_11211_1979)">
<path d="M1.73592 22.9359C1.73592 21.777 2.07958 20.6441 2.72344 19.6805C3.3673 18.7169 4.28245 17.9658 5.35315 17.5223C6.42385 17.0788 7.60203 16.9628 8.73868 17.1889C9.87533 17.415 10.9194 17.9731 11.7389 18.7925C12.5584 19.612 13.1165 20.6561 13.3425 21.7928C13.5686 22.9294 13.4526 24.1076 13.0091 25.1783C12.5656 26.249 11.8146 27.1641 10.851 27.808C9.88734 28.4519 8.75445 28.7955 7.59553 28.7955C6.04222 28.7931 4.55323 28.1749 3.45487 27.0766C2.35651 25.9782 1.73838 24.4892 1.73592 22.9359ZM3.66037 44.1004C3.05905 43.058 2.89587 41.8196 3.20664 40.657C3.51741 39.4944 4.27674 38.5026 5.31799 37.8992L13.8203 32.9906C13.1361 32.4129 12.2697 32.0955 11.3742 32.0946H3.82128C2.80879 32.0977 1.83867 32.5014 1.12272 33.2173C0.406777 33.9332 0.00316312 34.9034 0 35.9159L0 56.0086H15.1911V42.6749L9.8577 45.7539C8.81601 46.3538 7.5791 46.5166 6.41765 46.2067C5.2562 45.8969 4.26479 45.1395 3.66037 44.1004ZM65.1787 32.0946H57.6258C56.73 32.0945 55.8632 32.4118 55.1791 32.99L63.6819 37.8992C64.7235 38.5018 65.483 39.4935 65.7935 40.6561C66.1039 41.8187 65.9398 43.057 65.3372 44.0986C64.7346 45.1402 63.743 45.8997 62.5804 46.2102C61.4178 46.5206 60.1794 46.3565 59.1379 45.7539L53.809 42.6749V56.0086H69V35.9159C68.9968 34.9034 68.5932 33.9332 67.8773 33.2173C67.1613 32.5014 66.1912 32.0977 65.1787 32.0946ZM27.5073 21.8951C27.2123 21.7253 26.8868 21.6152 26.5492 21.5713C26.2117 21.5273 25.8688 21.5503 25.5402 21.639C25.2116 21.7276 24.9037 21.8801 24.634 22.0879C24.3644 22.2956 24.1383 22.5544 23.9687 22.8495L17.19 33.2844L6.28762 39.5807C5.99262 39.7514 5.73413 39.9785 5.52692 40.2492C5.3197 40.5198 5.16782 40.8286 5.07994 41.1579C4.99206 41.4872 4.9699 41.8306 5.01474 42.1685C5.05957 42.5064 5.17051 42.8321 5.34123 43.1271C5.51195 43.4221 5.73911 43.6806 6.00973 43.8878C6.28034 44.095 6.58913 44.2469 6.91844 44.3348C7.24776 44.4227 7.59116 44.4448 7.92904 44.4C8.26692 44.3552 8.59266 44.2442 8.88766 44.0735L20.3832 37.4363C20.826 37.1827 21.1829 36.8026 21.4082 36.3447L28.4657 25.4345C28.8076 24.8379 28.8987 24.1301 28.719 23.4664C28.5393 22.8028 28.1035 22.2376 27.5073 21.8951ZM63.6588 43.1265C63.8297 42.8315 63.9407 42.5058 63.9856 42.1679C64.0305 41.83 64.0083 41.4865 63.9204 41.1572C63.8326 40.8279 63.6806 40.5191 63.4733 40.2485C63.266 39.9779 63.0075 39.7508 62.7124 39.5801L51.8098 33.2844L45.0274 22.8495C44.8579 22.5541 44.6319 22.295 44.3622 22.0869C44.0925 21.8789 43.7845 21.7261 43.4557 21.6372C43.1269 21.5483 42.7838 21.5251 42.4461 21.5689C42.1083 21.6127 41.7825 21.7227 41.4873 21.8925C41.1921 22.0623 40.9332 22.2886 40.7255 22.5585C40.5178 22.8284 40.3653 23.1367 40.2768 23.4655C40.1883 23.7944 40.1655 24.1375 40.2097 24.4752C40.2539 24.8129 40.3643 25.1386 40.5344 25.4337L47.5919 36.3439C47.8172 36.8018 48.1742 37.1819 48.617 37.4355L60.1084 44.0727C60.7048 44.4177 61.4137 44.5119 62.0795 44.3345C62.7452 44.157 63.3133 43.7226 63.6588 43.1265ZM61.4045 28.7955C62.5629 28.7951 63.6951 28.4513 64.6581 27.8075C65.6211 27.1637 66.3717 26.2489 66.8148 25.1786C67.2579 24.1083 67.3737 22.9307 67.1477 21.7945C66.9216 20.6584 66.3637 19.6149 65.5446 18.7958C64.7255 17.9767 63.6819 17.4188 62.5458 17.1927C61.4097 16.9666 60.2321 17.0825 59.1618 17.5256C58.0915 17.9687 57.1767 18.7192 56.5329 19.6822C55.8891 20.6453 55.5452 21.7775 55.5449 22.9359C55.5473 24.4892 56.1655 25.9782 57.2638 27.0766C58.3622 28.1749 59.8512 28.7931 61.4045 28.7955ZM34.498 6.94745C34.7553 6.94745 35.0021 6.84522 35.1841 6.66325C35.3661 6.48128 35.4683 6.23448 35.4683 5.97714V1.75547C35.4683 1.49813 35.3661 1.25132 35.1841 1.06935C35.0021 0.887385 34.7553 0.785156 34.498 0.785156C34.2406 0.785156 33.9938 0.887385 33.8119 1.06935C33.6299 1.25132 33.5277 1.49813 33.5277 1.75547V5.97741C33.5282 6.23456 33.6306 6.48102 33.8125 6.66284C33.9943 6.84465 34.2408 6.94699 34.498 6.94745ZM38.8105 6.84139C39.0589 6.90684 39.3231 6.87128 39.5453 6.74249C39.7675 6.61369 39.9297 6.40214 39.9964 6.15408L41.088 2.07742C41.1232 1.95367 41.1333 1.82415 41.1179 1.69642C41.1025 1.5687 41.0618 1.44532 40.9982 1.33347C40.9347 1.22163 40.8494 1.12356 40.7476 1.04499C40.6457 0.966415 40.5292 0.908905 40.4049 0.875812C40.2806 0.842718 40.1509 0.834704 40.0234 0.852235C39.896 0.869766 39.7733 0.912493 39.6625 0.977924C39.5518 1.04336 39.4551 1.13018 39.3782 1.23334C39.3014 1.3365 39.2458 1.45393 39.2148 1.57879L38.1232 5.65545C38.0573 5.90383 38.0927 6.16818 38.2215 6.3905C38.3504 6.61283 38.5623 6.77498 38.8105 6.84139ZM29.0037 6.15408C29.0732 6.39871 29.236 6.60624 29.4571 6.73193C29.6782 6.85761 29.9398 6.89139 30.1856 6.82597C30.4313 6.76056 30.6415 6.60119 30.7708 6.38223C30.9002 6.16327 30.9383 5.90225 30.877 5.65545L29.7813 1.57879C29.7498 1.4547 29.694 1.33809 29.6171 1.23573C29.5402 1.13337 29.4437 1.0473 29.3333 0.982489C29.2229 0.917683 29.1007 0.875436 28.9738 0.858199C28.847 0.840961 28.718 0.849075 28.5942 0.88207C28.4705 0.915065 28.3546 0.972286 28.2532 1.05041C28.1518 1.12854 28.0669 1.22603 28.0034 1.33721C27.9399 1.4484 27.8991 1.57108 27.8834 1.69814C27.8677 1.82521 27.8774 1.95412 27.9118 2.07742L29.0037 6.15408ZM34.4981 43.8018C33.9434 43.8016 33.3942 43.6921 32.8819 43.4796C32.3695 43.2671 31.904 42.9557 31.512 42.5633C31.1199 42.1709 30.809 41.7052 30.597 41.1926C30.3849 40.6801 30.2759 40.1308 30.2762 39.5761H22.2919V63.9886H30.276C30.276 65.1089 30.7211 66.1833 31.5132 66.9754C32.3054 67.7676 33.3797 68.2126 34.5 68.2126C35.6203 68.2126 36.6946 67.7676 37.4868 66.9754C38.2789 66.1833 38.724 65.1089 38.724 63.9886H46.7042V56.0086C45.5876 56.0023 44.5188 55.5543 43.7315 54.7625C42.9441 53.9706 42.5021 52.8994 42.5021 51.7827C42.5021 50.666 42.9441 49.5948 43.7315 48.8029C44.5188 48.0111 45.5876 47.5631 46.7042 47.5568V39.5762H38.724C38.7241 40.1312 38.6149 40.6808 38.4026 41.1936C38.1902 41.7063 37.8789 42.1722 37.4865 42.5647C37.094 42.9571 36.6281 43.2683 36.1153 43.4806C35.6026 43.6929 35.053 43.8021 34.498 43.8019L34.4981 43.8018ZM19.9983 25.4063L22.3192 21.832C22.6191 21.3181 23.0174 20.8682 23.4911 20.5081C23.9649 20.148 24.505 19.8848 25.0805 19.7334C25.656 19.582 26.2557 19.5455 26.8454 19.6259C27.435 19.7063 28.003 19.9021 28.517 20.202C29.031 20.5019 29.4809 20.9001 29.841 21.3739C30.201 21.8477 30.4643 22.3878 30.6156 22.9633C30.767 23.5388 30.8035 24.1385 30.7231 24.7281C30.6427 25.3178 30.447 25.8858 30.1471 26.3998L30.1201 26.443L25.1901 34.0661H30.276C30.276 35.1863 30.7211 36.2607 31.5132 37.0529C32.3054 37.845 33.3797 38.29 34.5 38.29C35.6203 38.29 36.6946 37.845 37.4868 37.0529C38.2789 36.2607 38.724 35.1863 38.724 34.0661H43.8099L38.8775 26.443L38.8539 26.3998C38.2622 25.3626 38.1038 24.1338 38.4131 22.9805C38.7224 21.8272 39.4745 20.8426 40.5058 20.2407C41.5371 19.6388 42.7643 19.4684 43.9206 19.7664C45.0769 20.0643 46.0688 20.8067 46.6808 21.832L46.7042 21.8713V9.64923H38.724C38.724 10.7695 38.2789 11.8439 37.4868 12.636C36.6946 13.4282 35.6203 13.8732 34.5 13.8732C33.3797 13.8732 32.3054 13.4282 31.5132 12.636C30.7211 11.8439 30.276 10.7695 30.276 9.64923H22.2919V17.6334C21.3799 17.633 20.4923 17.9278 19.7617 18.4737C19.0311 19.0196 18.4968 19.7872 18.2387 20.6619C17.9806 21.5366 18.0125 22.4713 18.3296 23.3264C18.6467 24.1815 19.2321 24.9109 19.9981 25.4058L19.9983 25.4063Z" fill="#0E4366"/>
</g>
<defs>
<clipPath id="clip0_11211_1979">
<rect width="69" height="69" fill="white"/>
</clipPath>
</defs>
</svg>
