<svg width="30" height="30" viewBox="0 0 30 30" fill="none" xmlns="http://www.w3.org/2000/svg">
<path d="M15 28.4376C11.4362 28.4376 8.01827 27.0218 5.49825 24.5018C2.97823 21.9818 1.5625 18.5639 1.5625 15.0001C1.5625 11.4362 2.97823 8.01835 5.49825 5.49833C8.01827 2.9783 11.4362 1.56257 15 1.56257C17.0941 1.55564 19.1596 2.04845 21.025 3.00007C21.135 3.05588 21.2329 3.13281 21.3131 3.22646C21.3934 3.32012 21.4544 3.42866 21.4927 3.54589C21.531 3.66312 21.5459 3.78676 21.5364 3.90972C21.5269 4.03269 21.4933 4.15259 21.4375 4.26257C21.3817 4.37255 21.3048 4.47047 21.2111 4.55072C21.1175 4.63097 21.0089 4.69199 20.8917 4.73029C20.7744 4.7686 20.6508 4.78344 20.5278 4.77396C20.4049 4.76449 20.285 4.73088 20.175 4.67507C18.5749 3.85037 16.8002 3.4217 15 3.42507C12.7137 3.42507 10.4787 4.10289 8.57752 5.37284C6.67635 6.64279 5.19435 8.44787 4.31884 10.5599C3.44334 12.672 3.21363 14.9961 3.65876 17.2387C4.10389 19.4813 5.20387 21.5415 6.81967 23.1591C8.43546 24.7766 10.4945 25.8788 12.7366 26.3264C14.9787 26.7739 17.3031 26.5467 19.4161 25.6735C21.5291 24.8003 23.3358 23.3202 24.6078 21.4204C25.8798 19.5206 26.56 17.2864 26.5625 15.0001C26.569 14.896 26.569 14.7916 26.5625 14.6876C26.5393 14.4389 26.6158 14.1913 26.7752 13.999C26.9346 13.8068 27.1639 13.6858 27.4125 13.6626C27.6611 13.6394 27.9088 13.7159 28.101 13.8753C28.2933 14.0347 28.4143 14.2639 28.4375 14.5126V15.0001C28.4342 18.5629 27.0174 21.9789 24.4981 24.4982C21.9788 27.0175 18.5628 28.4343 15 28.4376Z" fill="#20BF55"/>
<path d="M14.7742 19.2629C14.6527 19.2647 14.5321 19.2411 14.4202 19.1938C14.3083 19.1464 14.2075 19.0763 14.1242 18.9879L8.08667 13.0629C7.91111 12.8871 7.8125 12.6488 7.8125 12.4004C7.8125 12.1519 7.91111 11.9136 8.08667 11.7379C8.26613 11.5645 8.5059 11.4676 8.75543 11.4676C9.00495 11.4676 9.24472 11.5645 9.42418 11.7379L14.7867 17.0254L26.8492 5.16285C27.0286 4.98948 27.2684 4.89258 27.5179 4.89258C27.7674 4.89258 28.0072 4.98948 28.1867 5.16285C28.3622 5.33863 28.4608 5.57691 28.4608 5.82535C28.4608 6.07379 28.3622 6.31207 28.1867 6.48785L15.4617 18.9879C15.3722 19.0786 15.2649 19.1498 15.1466 19.1971C15.0283 19.2445 14.9015 19.2668 14.7742 19.2629Z" fill="#20BF55"/>
</svg>
