<svg width="32" height="31" viewBox="0 0 32 31" fill="none" xmlns="http://www.w3.org/2000/svg">
<g clip-path="url(#clip0_11207_1477)">
<rect x="4" y="1" width="12" height="12" rx="6" fill="#9EC8FF"/>
<path fill-rule="evenodd" clip-rule="evenodd" d="M26.0132 28.7024C26.0351 28.7024 26.0571 28.7012 26.079 28.7008L26.3905 28.6951L26.3027 28.9933C26.1903 29.375 25.957 29.7101 25.6377 29.9484C25.3183 30.1868 24.9302 30.3156 24.5313 30.3156C24.1324 30.3156 23.7443 30.1868 23.425 29.9484C23.1057 29.7101 22.8723 29.375 22.7599 28.9933L22.6719 28.6951L22.9836 28.7008C23.0055 28.7012 23.0274 28.7024 23.0493 28.7024H26.0132Z" fill="white"/>
<path fill-rule="evenodd" clip-rule="evenodd" d="M24.5313 24.503C24.3158 24.503 24.1091 24.4176 23.9567 24.2657C23.8044 24.1137 23.7188 23.9076 23.7188 23.6927C23.7188 23.4778 23.8044 23.2717 23.9567 23.1198C24.1091 22.9678 24.3158 22.8825 24.5313 22.8825C24.5919 22.8825 24.6501 22.8584 24.693 22.8156C24.7359 22.7728 24.7601 22.7148 24.7601 22.6543V21.3349H25.863L25.914 21.4932C25.9962 21.7487 26.1577 21.9716 26.3752 22.1297C26.5926 22.2878 26.8548 22.373 27.1239 22.373C27.393 22.373 27.6551 22.2878 27.8726 22.1297C28.09 21.9716 28.2515 21.7487 28.3338 21.4932L28.3847 21.3347H29.289L29.2182 21.618C29.0173 22.4284 28.6071 23.1722 28.0284 23.7753C27.7964 24.0102 27.6133 24.2886 27.49 24.5946C27.3667 24.9005 27.3055 25.2278 27.31 25.5575V26.3219H24.7601V24.7312C24.7601 24.7012 24.7542 24.6715 24.7427 24.6438C24.7312 24.6161 24.7143 24.591 24.6931 24.5698C24.6718 24.5486 24.6466 24.5318 24.6188 24.5203C24.5911 24.5089 24.5613 24.503 24.5313 24.503Z" fill="white"/>
<path fill-rule="evenodd" clip-rule="evenodd" d="M21.1039 17.019C21.8937 16.2289 22.9355 15.7388 24.0492 15.6334L24.3001 15.6091V17.4822C24.3001 17.5122 24.306 17.5418 24.3175 17.5695C24.329 17.5972 24.3458 17.6223 24.3671 17.6435C24.3883 17.6646 24.4136 17.6814 24.4413 17.6928C24.4691 17.7043 24.4988 17.7101 24.5289 17.7101C24.7445 17.7101 24.9512 17.7955 25.1037 17.9475C25.2561 18.0995 25.3418 18.3057 25.3418 18.5207C25.3418 18.7357 25.2561 18.9419 25.1037 19.0939C24.9512 19.246 24.7445 19.3314 24.5289 19.3314C24.4682 19.3314 24.41 19.3554 24.3671 19.3982C24.3242 19.441 24.3001 19.499 24.3001 19.5595V20.8786H23.1961L23.1451 20.7202C23.063 20.4646 22.9015 20.2416 22.6841 20.0833C22.4666 19.9251 22.2044 19.8399 21.9352 19.8399C21.6661 19.8399 21.4038 19.9251 21.1864 20.0833C20.9689 20.2416 20.8075 20.4646 20.7253 20.7202L20.6743 20.8785H19.7112L19.7012 20.6608C19.668 19.9898 19.7756 19.3194 20.0171 18.6923C20.2587 18.0652 20.6288 17.4953 21.1039 17.019Z" fill="white"/>
<path fill-rule="evenodd" clip-rule="evenodd" d="M9.31881 13.7778C9.31881 13.8516 9.29686 13.9237 9.25574 13.9851C9.21462 14.0465 9.15617 14.0943 9.08778 14.1226C9.0194 14.1508 8.94415 14.1582 8.87155 14.1438C8.79895 14.1294 8.73227 14.0939 8.67993 14.0417C8.62759 13.9895 8.59194 13.923 8.5775 13.8506C8.56306 13.7782 8.57047 13.7031 8.5988 13.6349C8.62713 13.5667 8.6751 13.5084 8.73664 13.4674C8.79819 13.4264 8.87054 13.4045 8.94456 13.4045C9.04363 13.4052 9.13846 13.4447 9.20852 13.5145C9.27857 13.5844 9.3182 13.679 9.31881 13.7778Z" fill="white"/>
<path fill-rule="evenodd" clip-rule="evenodd" d="M8.29273 7.0282C8.28324 6.94146 8.29221 6.8537 8.31906 6.77064C8.3459 6.68759 8.39001 6.61112 8.4485 6.54623C8.50699 6.48133 8.57856 6.42947 8.65852 6.39404C8.73848 6.3586 8.82503 6.34038 8.91253 6.34058H8.97219C9.05966 6.34049 9.14616 6.35878 9.22606 6.39425C9.30597 6.42973 9.37748 6.48159 9.43595 6.54646C9.49442 6.61133 9.53853 6.68776 9.5654 6.77076C9.59228 6.85376 9.60132 6.94148 9.59194 7.0282L9.1479 11.158H8.73676L8.29273 7.0282Z" fill="white"/>
<path fill-rule="evenodd" clip-rule="evenodd" d="M26.0845 28.9289C26.0608 28.9293 26.0379 28.9305 26.0146 28.9305H23.0505C23.0272 28.9305 23.0035 28.9293 22.9806 28.9289C23.0791 29.2633 23.2835 29.5568 23.5633 29.7657C23.843 29.9745 24.1831 30.0873 24.5325 30.0873C24.882 30.0873 25.222 29.9745 25.5018 29.7657C25.7815 29.5568 25.986 29.2633 26.0845 28.9289ZM21.2007 23.6177C21.4529 23.8736 21.6518 24.1768 21.786 24.5098C21.9202 24.8428 21.9869 25.1989 21.9824 25.5577V26.0939H24.0749V25.1164C23.7725 25.0197 23.5086 24.8297 23.3214 24.5738C23.1342 24.318 23.0334 24.0094 23.0334 23.6927C23.0334 23.3759 23.1342 23.0674 23.3214 22.8115C23.5086 22.5556 23.7725 22.3656 24.0749 22.2689V21.5631H22.9809C22.8595 21.5631 22.7431 21.515 22.6573 21.4295C22.5715 21.3439 22.5233 21.2278 22.5233 21.1068C22.5241 21.0298 22.5095 20.9535 22.4805 20.8822C22.4515 20.8109 22.4086 20.746 22.3543 20.6913C22.3 20.6366 22.2354 20.5932 22.1642 20.5636C22.093 20.534 22.0165 20.5187 21.9394 20.5187C21.8622 20.5187 21.7858 20.534 21.7146 20.5636C21.6434 20.5932 21.5787 20.6366 21.5244 20.6913C21.4701 20.746 21.4272 20.8109 21.3982 20.8822C21.3692 20.9535 21.3547 21.0298 21.3555 21.1068C21.3555 21.2278 21.3073 21.3439 21.2214 21.4295C21.1356 21.515 21.0192 21.5631 20.8979 21.5631H20.0676C20.2585 22.335 20.6492 23.0435 21.2007 23.6177ZM19.9336 20.6504C19.8722 19.4737 20.2686 18.3188 21.0401 17.4264C21.8116 16.534 22.8987 15.973 24.0747 15.8603V17.4821C24.0748 17.603 24.1231 17.719 24.2089 17.8045C24.2947 17.89 24.411 17.9381 24.5323 17.9381C24.6872 17.9381 24.8358 17.9994 24.9454 18.1087C25.0549 18.2179 25.1164 18.3661 25.1164 18.5206C25.1164 18.6751 25.0549 18.8232 24.9454 18.9325C24.8358 19.0417 24.6872 19.1031 24.5323 19.1031C24.411 19.1031 24.2946 19.1511 24.2088 19.2367C24.123 19.3223 24.0747 19.4384 24.0747 19.5594V20.6503H23.3667C23.2698 20.3487 23.0792 20.0856 22.8227 19.8989C22.5661 19.7122 22.2567 19.6116 21.939 19.6116C21.6214 19.6116 21.312 19.7122 21.0554 19.8989C20.7988 20.0856 20.6083 20.3487 20.5113 20.6503L19.9336 20.6504ZM27.7949 17.1802C27.0429 16.4275 26.0508 15.9607 24.9902 15.8603V17.0971C25.2926 17.1937 25.5565 17.3837 25.7436 17.6395C25.9308 17.8954 26.0317 18.2039 26.0317 18.5206C26.0317 18.8373 25.9308 19.1458 25.7436 19.4017C25.5565 19.6575 25.2926 19.8475 24.9902 19.9441V20.6504H26.0845C26.2058 20.6504 26.3221 20.6986 26.4078 20.7841C26.4936 20.8697 26.5417 20.9857 26.5417 21.1067C26.5417 21.2611 26.6032 21.4091 26.7127 21.5183C26.8221 21.6275 26.9706 21.6888 27.1254 21.6888C27.2802 21.6888 27.4287 21.6275 27.5382 21.5183C27.6476 21.4091 27.7091 21.2611 27.7091 21.1067C27.7091 20.9857 27.7573 20.8696 27.8432 20.784C27.929 20.6984 28.0454 20.6504 28.1667 20.6504H29.131C29.163 20.011 29.0607 19.3721 28.8306 18.7745C28.6005 18.1769 28.2478 17.6339 27.7949 17.1802ZM28.9975 21.5631C28.8064 22.335 28.4157 23.0434 27.8644 23.6177C27.6121 23.8736 27.4131 24.1768 27.2789 24.5097C27.1447 24.8427 27.0778 25.1989 27.0823 25.5577V26.0939H24.9902V24.7312C24.9902 24.6102 24.942 24.4941 24.8562 24.4086C24.7704 24.323 24.654 24.2749 24.5326 24.2749C24.3778 24.2749 24.2293 24.2136 24.1199 24.1044C24.0104 23.9952 23.9489 23.8472 23.9489 23.6928C23.9489 23.5384 24.0104 23.3904 24.1199 23.2812C24.2293 23.172 24.3778 23.1107 24.5326 23.1107C24.6539 23.1106 24.7703 23.0625 24.8561 22.9769C24.9419 22.8914 24.9901 22.7754 24.9902 22.6544V21.5631H25.6978C25.7949 21.8647 25.9854 22.1277 26.242 22.3143C26.4986 22.5009 26.8079 22.6014 27.1255 22.6014C27.4431 22.6014 27.7524 22.5009 28.009 22.3143C28.2656 22.1277 28.4562 21.8647 28.5532 21.5631H28.9975ZM23.0505 28.0177H26.0146C26.2881 28.0172 26.551 27.9121 26.7491 27.724C26.9473 27.5359 27.0655 27.2792 27.0794 27.0068H21.9852C21.9991 27.2793 22.1173 27.5361 22.3155 27.7243C22.5138 27.9124 22.7768 28.0174 23.0505 28.0177ZM24.5326 31C23.8885 30.9992 23.2689 30.754 22.7994 30.3142C22.33 29.8745 22.0459 29.2731 22.0048 28.6321C21.7183 28.4547 21.4818 28.2075 21.3178 27.9136C21.1538 27.6198 21.0676 27.2891 21.0675 26.9528V25.5577C21.0718 25.3156 21.0273 25.0751 20.9367 24.8504C20.846 24.6257 20.7111 24.4214 20.5399 24.2497C19.7924 23.4699 19.2911 22.4883 19.098 21.4268C18.9049 20.3653 19.0287 19.2707 19.4539 18.2787C19.8791 17.2868 20.5871 16.4412 21.49 15.8469C22.3928 15.2526 23.4508 14.9358 24.5325 14.9358C25.6143 14.9358 26.6723 15.2526 27.5751 15.8469C28.4779 16.4412 29.1859 17.2868 29.6111 18.2787C30.0364 19.2707 30.1601 20.3653 29.9671 21.4268C29.774 22.4883 29.2726 23.4699 28.5251 24.2497C28.3538 24.4213 28.2188 24.6256 28.1281 24.8503C28.0375 25.075 27.9931 25.3156 27.9976 25.5577V26.953C27.9975 27.2894 27.9112 27.6201 27.7471 27.914C27.5829 28.2079 27.3463 28.4551 27.0595 28.6322C27.0186 29.2731 26.7347 29.8745 26.2654 30.3142C25.796 30.754 25.1765 30.9992 24.5326 31ZM9.0913 13.7776C9.09122 13.749 9.08262 13.7209 9.06659 13.6971C9.05056 13.6733 9.02782 13.6548 9.00123 13.6439C8.97464 13.633 8.94541 13.6302 8.91722 13.6358C8.88903 13.6414 8.86315 13.6553 8.84285 13.6756C8.82255 13.6959 8.80873 13.7217 8.80315 13.7499C8.79757 13.778 8.80048 13.8071 8.8115 13.8336C8.82252 13.8601 8.84116 13.8827 8.86508 13.8987C8.88899 13.9146 8.91709 13.9231 8.94584 13.9231C8.98434 13.9226 9.02111 13.9071 9.04829 13.8799C9.07548 13.8527 9.09091 13.816 9.0913 13.7776ZM10.0065 13.7776C10.0066 13.9869 9.94441 14.1914 9.8279 14.3654C9.71139 14.5394 9.54576 14.6751 9.35194 14.7552C9.15812 14.8353 8.94483 14.8563 8.73903 14.8156C8.53324 14.7748 8.3442 14.6741 8.19581 14.5262C8.04742 14.3782 7.94636 14.1897 7.90539 13.9845C7.86443 13.7793 7.88542 13.5666 7.96569 13.3733C8.04596 13.18 8.18192 13.0148 8.35637 12.8985C8.53082 12.7823 8.73592 12.7202 8.94573 12.7202C9.22687 12.7206 9.49638 12.8321 9.69522 13.0303C9.89405 13.2285 10.006 13.4973 10.0065 13.7776ZM8.9757 6.56869H8.91604C8.86064 6.5685 8.80583 6.57999 8.75519 6.6024C8.70455 6.6248 8.65923 6.65763 8.62219 6.69872C8.58516 6.73981 8.55725 6.78823 8.54029 6.84083C8.52333 6.89342 8.5177 6.949 8.52378 7.00391L8.94584 10.9297L9.36797 7.00391C9.37393 6.94902 9.36823 6.89349 9.35123 6.84094C9.33422 6.78839 9.30631 6.74001 9.2693 6.69895C9.23228 6.65788 9.18701 6.62506 9.13642 6.60261C9.08583 6.58017 9.03107 6.56861 8.9757 6.56869ZM8.9757 5.65604C9.1595 5.65597 9.34126 5.6945 9.50914 5.76911C9.67702 5.84372 9.82727 5.95274 9.95011 6.08909C10.0729 6.22543 10.1656 6.38604 10.2221 6.56046C10.2786 6.73489 10.2976 6.91921 10.2779 7.10145L9.76922 11.8308C9.74749 12.0334 9.65139 12.2209 9.49938 12.3572C9.34738 12.4934 9.15022 12.5688 8.94584 12.5688C8.74147 12.5688 8.54431 12.4934 8.3923 12.3572C8.2403 12.2209 8.14419 12.0334 8.12247 11.8308L7.61375 7.10145C7.59399 6.91919 7.61296 6.73483 7.66941 6.56036C7.72587 6.3859 7.81855 6.22526 7.94141 6.08889C8.06427 5.95253 8.21456 5.84351 8.38249 5.76893C8.55042 5.69435 8.73221 5.65588 8.91604 5.65604H8.9757ZM16.1514 14.7706C16.1851 14.8289 16.2029 14.8951 16.2029 14.9624C16.2029 15.0297 16.1851 15.0958 16.1514 15.1541C16.1176 15.2124 16.0691 15.2607 16.0106 15.2944C15.9521 15.328 15.8858 15.3457 15.8183 15.3456H2.07333C2.00579 15.3458 1.9394 15.3282 1.88087 15.2946C1.82234 15.261 1.77373 15.2126 1.73995 15.1542C1.70617 15.0959 1.68842 15.0297 1.68848 14.9624C1.68855 14.895 1.70643 14.8289 1.74032 14.7706L8.61261 2.89926C8.64641 2.84103 8.69496 2.79268 8.75341 2.75907C8.81186 2.72546 8.87815 2.70777 8.94561 2.70777C9.01308 2.70777 9.07937 2.72546 9.13782 2.75907C9.19627 2.79268 9.24483 2.84103 9.27862 2.89926L16.1514 14.7706ZM10.0712 2.44327L16.9441 14.3143C17.0582 14.5113 17.1182 14.7348 17.1182 14.9624C17.1182 15.1899 17.0582 15.4134 16.9441 15.6105C16.83 15.8075 16.6659 15.9711 16.4683 16.0848C16.2707 16.1986 16.0465 16.2584 15.8184 16.2584H2.07333C1.84516 16.2584 1.62101 16.1986 1.4234 16.0848C1.22579 15.9711 1.06169 15.8075 0.947597 15.6105C0.833503 15.4134 0.773437 15.1899 0.773438 14.9624C0.773438 14.7348 0.833506 14.5113 0.947601 14.3143L7.82012 2.44327C7.93412 2.24616 8.09816 2.08247 8.29574 1.96866C8.49332 1.85484 8.71747 1.79492 8.94564 1.79492C9.17382 1.79492 9.39797 1.85484 9.59554 1.96866C9.79312 2.08247 9.95717 2.24616 10.0712 2.44327ZM4.80124 27.6025C4.67988 27.6025 4.56349 27.5544 4.47767 27.4688C4.39186 27.3833 4.34365 27.2672 4.34365 27.1462V19.1838L3.51656 20.0093C3.4307 20.0949 3.31427 20.143 3.19287 20.143C3.07147 20.143 2.95505 20.0949 2.86921 20.0092C2.78338 19.9236 2.73517 19.8075 2.73519 19.6865C2.7352 19.5654 2.78345 19.4493 2.8693 19.3637L4.47761 17.7598C4.56358 17.6745 4.67994 17.6266 4.80124 17.6266C4.92254 17.6266 5.0389 17.6745 5.12487 17.7598L6.73318 19.3637C6.7757 19.406 6.80945 19.4563 6.83248 19.5117C6.85552 19.567 6.8674 19.6264 6.86744 19.6863C6.86748 19.7463 6.85568 19.8056 6.83272 19.861C6.80975 19.9164 6.77607 19.9667 6.7336 20.0091C6.69113 20.0515 6.64071 20.0852 6.5852 20.1082C6.52968 20.1311 6.47018 20.143 6.41008 20.143C6.34998 20.1431 6.29046 20.1313 6.23492 20.1084C6.17938 20.0855 6.1289 20.0519 6.08637 20.0096L5.25888 19.1838V26.6904H19.7023C19.8214 26.6936 19.9346 26.7431 20.0177 26.8283C20.1008 26.9135 20.1473 27.0276 20.1473 27.1465C20.1473 27.2654 20.1008 27.3795 20.0177 27.4647C19.9346 27.5499 19.8214 27.5994 19.7023 27.6027L4.80124 27.6025ZM26.6487 5.81484C26.6486 5.69385 26.6004 5.57784 26.5146 5.49229C26.4288 5.40673 26.3125 5.35862 26.1911 5.35851H13.9796C13.8582 5.35851 13.7419 5.40659 13.656 5.49217C13.5702 5.57775 13.522 5.69382 13.522 5.81484C13.522 5.93587 13.5702 6.05193 13.656 6.13751C13.7419 6.22309 13.8582 6.27117 13.9796 6.27117H25.7339V12.4052L24.9065 11.5804C24.8198 11.4991 24.7049 11.4547 24.5859 11.4565C24.467 11.4583 24.3534 11.5062 24.2693 11.5901C24.1852 11.674 24.1371 11.7872 24.1353 11.9058C24.1335 12.0244 24.1781 12.1391 24.2597 12.2255L25.868 13.8298C25.9104 13.8723 25.9608 13.906 26.0164 13.929C26.0719 13.952 26.1314 13.9639 26.1916 13.9639C26.2517 13.9639 26.3113 13.952 26.3668 13.929C26.4223 13.906 26.4727 13.8723 26.5152 13.8298L28.1235 12.2255C28.205 12.1391 28.2496 12.0244 28.2478 11.9058C28.246 11.7872 28.198 11.674 28.1138 11.5901C28.0297 11.5062 27.9162 11.4583 27.7972 11.4565C27.6783 11.4547 27.5633 11.4991 27.4767 11.5804L26.6488 12.4052L26.6487 5.81484Z" fill="#0E4366"/>
</g>
<defs>
<clipPath id="clip0_11207_1477">
<rect width="32" height="31" fill="white"/>
</clipPath>
</defs>
</svg>
