<svg width="31" height="31" viewBox="0 0 31 31" fill="none" xmlns="http://www.w3.org/2000/svg">
<g clip-path="url(#clip0_11207_1669)">
<rect x="18" y="18" width="12" height="12" rx="6" fill="#9EC8FF"/>
<path d="M7 29.75H3C2.53604 29.7494 2.09125 29.5649 1.76319 29.2368C1.43512 28.9087 1.25056 28.464 1.25 28V22C1.25056 21.536 1.43512 21.0913 1.76319 20.7632C2.09125 20.4351 2.53604 20.2506 3 20.25H7C7.46396 20.2506 7.90875 20.4351 8.23681 20.7632C8.56488 21.0913 8.74944 21.536 8.75 22V28C8.74944 28.464 8.56488 28.9087 8.23681 29.2368C7.90875 29.5649 7.46396 29.7494 7 29.75ZM3 21.75C2.93373 21.7501 2.87022 21.7765 2.82336 21.8234C2.77651 21.8702 2.75013 21.9337 2.75 22V28C2.75013 28.0663 2.77651 28.1298 2.82336 28.1766C2.87022 28.2235 2.93373 28.2499 3 28.25H7C7.06627 28.2499 7.12978 28.2235 7.17664 28.1766C7.22349 28.1298 7.24987 28.0663 7.25 28V22C7.24987 21.9337 7.22349 21.8702 7.17664 21.8234C7.12978 21.7765 7.06627 21.7501 7 21.75H3Z" fill="#0E4366"/>
<path d="M27 29.75H23C22.536 29.7494 22.0913 29.5649 21.7632 29.2368C21.4351 28.9087 21.2506 28.464 21.25 28V12C21.2506 11.536 21.4351 11.0913 21.7632 10.7632C22.0913 10.4351 22.536 10.2506 23 10.25H27C27.464 10.2506 27.9087 10.4351 28.2368 10.7632C28.5649 11.0913 28.7494 11.536 28.75 12V28C28.7494 28.464 28.5649 28.9087 28.2368 29.2368C27.9087 29.5649 27.464 29.7494 27 29.75ZM23 11.75C22.9337 11.7501 22.8702 11.7765 22.8234 11.8234C22.7765 11.8702 22.7501 11.9337 22.75 12V28C22.7501 28.0663 22.7765 28.1298 22.8234 28.1766C22.8702 28.2235 22.9337 28.2499 23 28.25H27C27.0663 28.2499 27.1298 28.2235 27.1766 28.1766C27.2235 28.1298 27.2499 28.0663 27.25 28V12C27.2499 11.9337 27.2235 11.8702 27.1766 11.8234C27.1298 11.7765 27.0663 11.7501 27 11.75H23Z" fill="#0E4366"/>
<path d="M17 29.75H13C12.536 29.7494 12.0913 29.5649 11.7632 29.2368C11.4351 28.9087 11.2506 28.464 11.25 28V18C11.2506 17.536 11.4351 17.0913 11.7632 16.7632C12.0913 16.4351 12.536 16.2506 13 16.25H17C17.464 16.2506 17.9087 16.4351 18.2368 16.7632C18.5649 17.0913 18.7494 17.536 18.75 18V28C18.7494 28.464 18.5649 28.9087 18.2368 29.2368C17.9087 29.5649 17.464 29.7494 17 29.75ZM13 17.75C12.9337 17.7501 12.8702 17.7765 12.8234 17.8234C12.7765 17.8702 12.7501 17.9337 12.75 18V28C12.7501 28.0663 12.7765 28.1298 12.8234 28.1766C12.8702 28.2235 12.9337 28.2499 13 28.25H17C17.0663 28.2499 17.1298 28.2235 17.1766 28.1766C17.2235 28.1298 17.2499 28.0663 17.25 28V18C17.2499 17.9337 17.2235 17.8702 17.1766 17.8234C17.1298 17.7765 17.0663 17.7501 17 17.75H13Z" fill="#0E4366"/>
<path d="M24.7049 2.17252L24.0049 3.80586C23.9802 3.86349 23.9391 3.91261 23.8867 3.94713C23.8344 3.98164 23.7731 4.00004 23.7104 4.00004H22.3204C22.254 4.00004 22.1892 4.02066 22.1351 4.05906C22.0809 4.09746 22.04 4.15173 22.0181 4.21437C21.9961 4.27702 21.9941 4.34494 22.0124 4.40875C22.0307 4.47257 22.0684 4.52912 22.1202 4.57059L23.3337 5.54136C23.3836 5.58126 23.4204 5.63517 23.4394 5.69615C23.4584 5.75713 23.4588 5.82241 23.4404 5.88359L22.8842 7.73759C22.8649 7.8022 22.8664 7.87127 22.8885 7.93497C22.9107 7.99867 22.9524 8.05375 23.0077 8.09235C23.063 8.13096 23.1291 8.15112 23.1966 8.14997C23.264 8.14882 23.3294 8.12642 23.3833 8.08595L24.8071 7.01804C24.8626 6.97645 24.93 6.95397 24.9993 6.95397C25.0686 6.95397 25.1361 6.97645 25.1916 7.01804L26.6153 8.08592C26.6693 8.12639 26.7346 8.14879 26.8021 8.14994C26.8695 8.15109 26.9356 8.13093 26.9909 8.09232C27.0462 8.05372 27.0879 7.99864 27.1101 7.93494C27.1323 7.87124 27.1338 7.80217 27.1144 7.73756L26.5582 5.88356C26.5399 5.82238 26.5402 5.7571 26.5592 5.69612C26.5783 5.63514 26.6151 5.58123 26.665 5.54133L27.8784 4.57056C27.9302 4.52909 27.9679 4.47254 27.9862 4.40874C28.0045 4.34494 28.0025 4.27702 27.9806 4.21439C27.9586 4.15175 27.9177 4.09749 27.8636 4.05909C27.8094 4.02069 27.7447 4.00006 27.6783 4.00004H26.2883C26.2256 4.00004 26.1643 3.98164 26.112 3.94712C26.0596 3.91261 26.0186 3.86349 25.9939 3.80586L25.2939 2.17252C25.2692 2.11487 25.2281 2.06574 25.1758 2.03121C25.1234 1.99668 25.0621 1.97827 24.9994 1.97827C24.9366 1.97827 24.8753 1.99668 24.823 2.03121C24.7706 2.06574 24.7295 2.11487 24.7049 2.17252Z" fill="#0E4366"/>
<path d="M14.7049 7.17252L14.0049 8.80586C13.9802 8.86349 13.9391 8.91261 13.8867 8.94713C13.8344 8.98164 13.7731 9.00004 13.7104 9.00004H12.3204C12.254 9.00004 12.1892 9.02067 12.1351 9.05906C12.0809 9.09746 12.04 9.15173 12.0181 9.21437C11.9961 9.27701 11.9941 9.34494 12.0124 9.40875C12.0307 9.47257 12.0684 9.52912 12.1202 9.57059L13.3337 10.5414C13.3836 10.5813 13.4204 10.6352 13.4394 10.6961C13.4584 10.7571 13.4588 10.8224 13.4404 10.8836L12.8842 12.7376C12.8649 12.8022 12.8664 12.8713 12.8885 12.935C12.9107 12.9987 12.9524 13.0537 13.0077 13.0924C13.063 13.131 13.1291 13.1511 13.1966 13.15C13.264 13.1488 13.3294 13.1264 13.3833 13.0859L14.8071 12.018C14.8626 11.9764 14.93 11.954 14.9993 11.954C15.0686 11.954 15.1361 11.9764 15.1916 12.018L16.6153 13.0859C16.6693 13.1264 16.7346 13.1488 16.8021 13.1499C16.8695 13.1511 16.9356 13.1309 16.9909 13.0923C17.0462 13.0537 17.0879 12.9986 17.1101 12.9349C17.1323 12.8712 17.1338 12.8022 17.1144 12.7376L16.5582 10.8836C16.5399 10.8224 16.5402 10.7571 16.5592 10.6961C16.5783 10.6351 16.6151 10.5812 16.665 10.5413L17.8784 9.57056C17.9302 9.52909 17.9679 9.47254 17.9862 9.40874C18.0045 9.34494 18.0025 9.27702 17.9806 9.21439C17.9586 9.15175 17.9177 9.09749 17.8636 9.05909C17.8094 9.02069 17.7447 9.00006 17.6783 9.00004H16.2883C16.2256 9.00004 16.1643 8.98164 16.112 8.94712C16.0596 8.91261 16.0186 8.86349 15.9939 8.80586L15.2939 7.17252C15.2692 7.11487 15.2281 7.06574 15.1758 7.03121C15.1234 6.99668 15.0621 6.97827 14.9994 6.97827C14.9366 6.97827 14.8753 6.99668 14.823 7.03121C14.7706 7.06574 14.7295 7.11487 14.7049 7.17252Z" fill="#0E4366"/>
<path d="M4.7049 12.1725L4.0049 13.8059C3.98021 13.8635 3.93914 13.9126 3.8868 13.9471C3.83445 13.9816 3.77313 14 3.71042 14H2.32037C2.25399 14 2.18924 14.0207 2.13508 14.0591C2.08093 14.0975 2.04004 14.1517 2.01806 14.2144C1.99609 14.277 1.99411 14.3449 2.01242 14.4088C2.03072 14.4726 2.0684 14.5291 2.12023 14.5706L3.33369 15.5414C3.38358 15.5813 3.42039 15.6352 3.43941 15.6961C3.45843 15.7571 3.45878 15.8224 3.44042 15.8836L2.88423 17.7376C2.86486 17.8022 2.86636 17.8713 2.88854 17.935C2.91071 17.9987 2.95243 18.0537 3.00774 18.0924C3.06304 18.131 3.12913 18.1511 3.19657 18.15C3.26401 18.1488 3.32936 18.1264 3.38332 18.086L4.80714 17.018C4.8626 16.9764 4.93005 16.954 4.99937 16.954C5.0687 16.954 5.13615 16.9764 5.1916 17.018L6.61537 18.0859C6.66934 18.1264 6.73469 18.1488 6.80213 18.1499C6.86957 18.1511 6.93565 18.1309 6.99096 18.0923C7.04627 18.0537 7.08799 17.9986 7.11016 17.9349C7.13234 17.8712 7.13384 17.8022 7.11446 17.7376L6.55827 15.8836C6.53992 15.8224 6.54027 15.7571 6.55929 15.6961C6.57831 15.6351 6.61512 15.5812 6.665 15.5413L7.87846 14.5706C7.93029 14.5291 7.96795 14.4725 7.98625 14.4087C8.00454 14.3449 8.00257 14.277 7.98061 14.2144C7.95864 14.1518 7.91776 14.0975 7.86362 14.0591C7.80948 14.0207 7.74475 14.0001 7.67837 14H6.28837C6.22567 14 6.16435 13.9816 6.11201 13.9471C6.05967 13.9126 6.0186 13.8635 5.9939 13.8059L5.2939 12.1725C5.26922 12.1149 5.22815 12.0657 5.1758 12.0312C5.12345 11.9967 5.06212 11.9783 4.9994 11.9783C4.93669 11.9783 4.87536 11.9967 4.82301 12.0312C4.77066 12.0657 4.72959 12.1149 4.7049 12.1725Z" fill="#0E4366"/>
</g>
<defs>
<clipPath id="clip0_11207_1669">
<rect width="31" height="31" fill="white"/>
</clipPath>
</defs>
</svg>
