<svg width="31" height="31" viewBox="0 0 31 31" fill="none" xmlns="http://www.w3.org/2000/svg">
<rect x="18" y="18" width="12" height="12" rx="6" fill="#9EC8FF"/>
<path d="M9.96439 22.8866H9.63281V22.1394C14.0345 21.6909 17.4804 17.9625 17.4804 13.4446C17.4804 8.62521 13.5596 4.70441 8.74031 4.70441C7.59253 4.70438 6.45598 4.93043 5.39556 5.36965C4.33514 5.80886 3.37161 6.45265 2.55999 7.26424C1.74838 8.07583 1.10457 9.03934 0.665321 10.0998C0.226077 11.1602 -4.12689e-10 12.2967 0 13.4445C0 17.9625 3.4459 21.6909 7.84758 22.1394V22.8866H7.51582C7.42258 22.8866 7.33316 22.9237 7.26723 22.9896C7.2013 23.0555 7.16426 23.145 7.16426 23.2382V27.9994C7.1668 28.4156 7.33394 28.814 7.6292 29.1075C7.92445 29.4009 8.32382 29.5656 8.74011 29.5656C9.15639 29.5656 9.55577 29.4009 9.85102 29.1075C10.1463 28.814 10.3134 28.4156 10.316 27.9994V23.2382C10.316 23.192 10.3069 23.1463 10.2892 23.1037C10.2715 23.061 10.2456 23.0223 10.213 22.9896C10.1803 22.957 10.1416 22.9311 10.0989 22.9134C10.0563 22.8957 10.0106 22.8866 9.96439 22.8866ZM7.86738 27.5214V24.7461H9.61283V27.5211L7.86738 27.5214ZM9.61283 23.5898V24.0429H7.86738V23.5898H9.61283ZM0.703125 13.4445C0.703117 12.3891 0.910996 11.344 1.31489 10.3689C1.71879 9.39376 2.31079 8.50777 3.0571 7.76147C3.80341 7.01517 4.6894 6.42317 5.6645 6.01928C6.6396 5.61539 7.6847 5.40752 8.74014 5.40754C13.1717 5.40754 16.7771 9.01293 16.7771 13.4446C16.7771 17.8762 13.1719 21.4815 8.74014 21.4815C4.3084 21.4815 0.703125 17.8761 0.703125 13.4445ZM8.5507 22.1822C8.61369 22.1836 8.6768 22.1846 8.74014 22.1846C8.80348 22.1846 8.86652 22.1836 8.92951 22.1822V22.8866H8.5507V22.1822ZM8.74014 28.8721C8.54805 28.8717 8.36143 28.808 8.20917 28.6909C8.05691 28.5738 7.94749 28.4098 7.89785 28.2242H9.58236C9.53273 28.4098 9.42333 28.5738 9.27107 28.6909C9.11882 28.808 8.93222 28.8717 8.74014 28.8721ZM29.6484 29.1133H28.541V18.8176C28.541 18.7244 28.504 18.6349 28.438 18.569C28.3721 18.5031 28.2827 18.466 28.1895 18.466H25.4217C25.3284 18.466 25.239 18.5031 25.1731 18.569C25.1071 18.6349 25.0701 18.7244 25.0701 18.8176V29.1133H24.2999V21.9073C24.2999 21.8141 24.2629 21.7246 24.197 21.6587C24.131 21.5928 24.0416 21.5557 23.9484 21.5557H21.1805C21.0872 21.5557 20.9978 21.5928 20.9319 21.6587C20.8659 21.7246 20.8289 21.8141 20.8289 21.9073V29.1133H20.0588V20.3624C20.0588 20.2692 20.0218 20.1798 19.9558 20.1138C19.8899 20.0479 19.8005 20.0109 19.7072 20.0109H16.9395C16.8462 20.0109 16.7568 20.0479 16.6909 20.1138C16.6249 20.1798 16.5879 20.2692 16.5879 20.3624V29.1133H15.8177V23.4522C15.8177 23.3589 15.7806 23.2695 15.7147 23.2036C15.6488 23.1377 15.5594 23.1006 15.4661 23.1006H12.6982C12.605 23.1006 12.5155 23.1377 12.4496 23.2036C12.3837 23.2695 12.3466 23.3589 12.3466 23.4522V29.1133H11.2392C11.146 29.1133 11.0566 29.1503 10.9906 29.2163C10.9247 29.2822 10.8877 29.3716 10.8877 29.4648C10.8877 29.5581 10.9247 29.6475 10.9906 29.7134C11.0566 29.7794 11.146 29.8164 11.2392 29.8164H29.6484C29.7417 29.8164 29.8311 29.7794 29.897 29.7134C29.963 29.6475 30 29.5581 30 29.4648C30 29.3716 29.963 29.2822 29.897 29.2163C29.8311 29.1503 29.7417 29.1133 29.6484 29.1133ZM25.7732 19.1692H27.8379V29.1133H25.7732V19.1692ZM21.532 22.2589H23.5968V29.1133H21.532V22.2589ZM17.291 20.714H19.3558V29.1133H17.291V20.714ZM13.0499 23.8037H15.1147V29.1133H13.0498L13.0499 23.8037ZM19.3616 8.57477C19.361 9.27576 19.5342 9.96598 19.8656 10.5837C20.197 11.2014 20.6764 11.7273 21.2608 12.1144C21.3043 12.1415 21.34 12.1795 21.3642 12.2247C21.3885 12.2699 21.4004 12.3206 21.3989 12.3719V13.5551C21.3993 13.8782 21.5278 14.188 21.7563 14.4165C21.9848 14.645 22.2945 14.7735 22.6177 14.7739H24.5999C24.9231 14.7735 25.2328 14.645 25.4613 14.4165C25.6898 14.188 25.8183 13.8782 25.8187 13.5551V12.3719C25.8172 12.3206 25.8292 12.2698 25.8535 12.2247C25.8777 12.1795 25.9135 12.1415 25.957 12.1144C26.569 11.7085 27.0653 11.1508 27.3975 10.4958C27.7296 9.84077 27.8862 9.11084 27.852 8.37724C27.8179 7.64364 27.5941 6.93143 27.2025 6.31014C26.8109 5.68885 26.2649 5.17971 25.6178 4.83242C24.9707 4.48513 24.2446 4.31155 23.5105 4.32863C22.7763 4.34571 22.059 4.55287 21.4288 4.92988C20.7985 5.30689 20.2768 5.84087 19.9146 6.4797C19.5523 7.11852 19.3619 7.84037 19.3618 8.57477H19.3616ZM24.5999 14.0709H22.6177C22.481 14.0707 22.3499 14.0163 22.2532 13.9197C22.1566 13.823 22.1022 13.6919 22.102 13.5552V12.7234H25.1156V13.5551C25.1155 13.6918 25.0611 13.8229 24.9644 13.9196C24.8677 14.0163 24.7367 14.0706 24.5999 14.0708L24.5999 14.0709ZM23.6087 9.01615C23.5214 9.01614 23.4361 8.99025 23.3635 8.94175C23.291 8.89325 23.2344 8.82433 23.201 8.74369C23.1676 8.66305 23.1589 8.57431 23.1759 8.48871C23.193 8.40311 23.235 8.32448 23.2967 8.26276C23.3584 8.20104 23.4371 8.15901 23.5227 8.14198C23.6083 8.12495 23.697 8.13368 23.7776 8.16708C23.8583 8.20047 23.9272 8.25703 23.9757 8.3296C24.0242 8.40217 24.0501 8.48748 24.0501 8.57477C24.05 8.69177 24.0034 8.80394 23.9207 8.88668C23.8379 8.96941 23.7258 9.01595 23.6088 9.01609L23.6087 9.01615ZM23.6087 5.03072C24.3701 5.03078 25.1112 5.27602 25.7224 5.73014C26.3335 6.18426 26.7822 6.82312 27.0019 7.55211C27.2217 8.28111 27.2009 9.06149 26.9425 9.77771C26.6841 10.4939 26.202 11.1079 25.5675 11.5288C25.388 11.6465 25.2511 11.8188 25.1771 12.0203H23.9603V9.66338C24.2198 9.57961 24.4409 9.40595 24.5837 9.17366C24.7265 8.94138 24.7816 8.66573 24.7392 8.39638C24.6968 8.12702 24.5597 7.88166 24.3524 7.70447C24.1452 7.52729 23.8814 7.42993 23.6088 7.42993C23.3361 7.42993 23.0724 7.52729 22.8651 7.70447C22.6579 7.88166 22.5207 8.12702 22.4783 8.39638C22.4359 8.66573 22.4911 8.94138 22.6339 9.17366C22.7767 9.40595 22.9977 9.57961 23.2572 9.66338V12.0203H22.0404C21.9665 11.8188 21.8295 11.6464 21.65 11.5288C21.0155 11.1079 20.5334 10.4939 20.2751 9.7777C20.0168 9.06149 19.9959 8.28113 20.2157 7.55215C20.4354 6.82318 20.8841 6.18434 21.4952 5.73021C22.1063 5.27609 22.8474 5.03082 23.6088 5.03072H23.6087ZM28.128 4.55271L27.3574 5.32357C27.3249 5.35666 27.2861 5.38298 27.2433 5.401C27.2006 5.41903 27.1547 5.42841 27.1083 5.4286C27.0618 5.4288 27.0159 5.4198 26.9729 5.40213C26.93 5.38447 26.891 5.35848 26.8582 5.32567C26.8254 5.29285 26.7994 5.25387 26.7817 5.21096C26.764 5.16805 26.755 5.12206 26.7552 5.07565C26.7554 5.02925 26.7648 4.98333 26.7828 4.94056C26.8008 4.89779 26.8271 4.85902 26.8602 4.82646L27.6311 4.05549C27.6637 4.02241 27.7024 3.9961 27.7452 3.97807C27.788 3.96005 27.8339 3.95068 27.8803 3.95049C27.9267 3.9503 27.9727 3.9593 28.0156 3.97697C28.0585 3.99465 28.0975 4.02064 28.1303 4.05346C28.1631 4.08627 28.1891 4.12526 28.2068 4.16817C28.2245 4.21108 28.2335 4.25707 28.2333 4.30348C28.2331 4.34989 28.2237 4.3958 28.2057 4.43857C28.1877 4.48133 28.1614 4.52011 28.1283 4.55266L28.128 4.55271ZM30 8.57471C30 8.66795 29.963 8.75737 29.897 8.8233C29.8311 8.88923 29.7417 8.92627 29.6484 8.92627H28.5582C28.465 8.92627 28.3756 8.88923 28.3097 8.8233C28.2437 8.75737 28.2067 8.66795 28.2067 8.57471C28.2067 8.48147 28.2437 8.39205 28.3097 8.32611C28.3756 8.26018 28.465 8.22314 28.5582 8.22314H29.6484C29.7417 8.22314 29.8311 8.26018 29.897 8.32611C29.963 8.39205 30 8.48147 30 8.57471ZM27.3574 11.826L28.1283 12.5969C28.1617 12.6294 28.1882 12.6681 28.2065 12.711C28.2248 12.7538 28.2343 12.7999 28.2346 12.8464C28.2349 12.893 28.226 12.9392 28.2083 12.9823C28.1906 13.0253 28.1646 13.0645 28.1316 13.0974C28.0987 13.1303 28.0596 13.1564 28.0165 13.1741C27.9734 13.1917 27.9272 13.2007 27.8807 13.2004C27.8341 13.2 27.7881 13.1905 27.7452 13.1722C27.7024 13.1539 27.6636 13.1274 27.6311 13.094L26.86 12.3231C26.8269 12.2905 26.8006 12.2517 26.7826 12.209C26.7645 12.1662 26.7552 12.1203 26.755 12.0739C26.7548 12.0275 26.7638 11.9815 26.7815 11.9386C26.7992 11.8957 26.8252 11.8567 26.858 11.8239C26.8908 11.7911 26.9298 11.7651 26.9727 11.7474C27.0156 11.7297 27.0616 11.7207 27.108 11.7209C27.1544 11.7211 27.2003 11.7305 27.2431 11.7485C27.2859 11.7666 27.3246 11.7929 27.3572 11.826H27.3574ZM20.3579 11.826C20.4238 11.8919 20.4608 11.9813 20.4608 12.0745C20.4608 12.1677 20.4238 12.2571 20.3579 12.3231L19.5867 13.0938C19.5206 13.1588 19.4315 13.1951 19.3387 13.1947C19.246 13.1944 19.1572 13.1574 19.0916 13.0918C19.026 13.0262 18.989 12.9374 18.9886 12.8446C18.9882 12.7519 19.0245 12.6628 19.0895 12.5966L19.8605 11.8257C19.9264 11.7598 20.0159 11.7228 20.1091 11.7229C20.2023 11.7229 20.2917 11.76 20.3576 11.826H20.3579ZM19.0112 8.57471C19.0112 8.66795 18.9742 8.75737 18.9082 8.8233C18.8423 8.88923 18.7529 8.92627 18.6596 8.92627H17.5692C17.4759 8.92627 17.3865 8.88923 17.3206 8.8233C17.2546 8.75737 17.2176 8.66795 17.2176 8.57471C17.2176 8.48147 17.2546 8.39205 17.3206 8.32611C17.3865 8.26018 17.4759 8.22314 17.5692 8.22314H18.6594C18.7056 8.22314 18.7513 8.23224 18.794 8.24991C18.8366 8.26757 18.8754 8.29347 18.908 8.32611C18.9407 8.35876 18.9665 8.39752 18.9842 8.44017C19.0019 8.48282 19.011 8.52854 19.011 8.57471H19.0112ZM20.3579 4.82646C20.3912 4.85895 20.4178 4.89773 20.4361 4.94058C20.4543 4.98342 20.4639 5.02946 20.4642 5.07603C20.4645 5.1226 20.4556 5.16876 20.4379 5.21185C20.4202 5.25493 20.3942 5.29407 20.3612 5.327C20.3283 5.35993 20.2892 5.38598 20.2461 5.40366C20.203 5.42133 20.1568 5.43027 20.1103 5.42995C20.0637 5.42963 20.0176 5.42006 19.9748 5.4018C19.932 5.38354 19.8932 5.35695 19.8607 5.32357L19.0895 4.55266C19.0236 4.48672 18.9865 4.39729 18.9865 4.30405C18.9865 4.21081 19.0236 4.12139 19.0895 4.05546C19.1555 3.98953 19.2449 3.9525 19.3381 3.9525C19.4314 3.95251 19.5208 3.98955 19.5867 4.05549L20.3579 4.82646ZM23.609 3.97686C23.5158 3.97686 23.4263 3.93982 23.3604 3.87389C23.2945 3.80795 23.2574 3.71853 23.2574 3.62529V2.53516C23.2574 2.44192 23.2945 2.35249 23.3604 2.28656C23.4263 2.22063 23.5158 2.18359 23.609 2.18359C23.7022 2.18359 23.7917 2.22063 23.8576 2.28656C23.9235 2.35249 23.9606 2.44192 23.9606 2.53516V3.62535C23.9606 3.67154 23.9515 3.71727 23.9338 3.75994C23.9161 3.80261 23.8902 3.84138 23.8575 3.87403C23.8248 3.90668 23.7861 3.93257 23.7434 3.95022C23.7007 3.96787 23.655 3.97694 23.6088 3.97691L23.609 3.97686ZM15.4784 13.4445C15.4784 12.1118 15.0832 10.809 14.3428 9.7009C13.6024 8.5928 12.55 7.72914 11.3188 7.21913C10.0875 6.70913 8.73266 6.57569 7.42556 6.83568C6.11846 7.09568 4.91782 7.73744 3.97545 8.67981C3.03309 9.62217 2.39133 10.8228 2.13133 12.1299C1.87133 13.437 2.00477 14.7919 2.51478 16.0231C3.02478 17.2544 3.88844 18.3068 4.99655 19.0472C6.10465 19.7876 7.40743 20.1828 8.74014 20.1828C10.5266 20.1807 12.2393 19.4702 13.5026 18.2069C14.7658 16.9437 15.4764 15.231 15.4784 13.4445ZM4.9592 18.1445C5.0471 17.2032 5.48297 16.3284 6.18157 15.6914C6.88018 15.0543 7.79128 14.7007 8.73673 14.6998C9.68219 14.6988 10.594 15.0505 11.2939 15.6862C11.9938 16.3218 12.4315 17.1956 12.5213 18.1368C12.5213 18.1391 12.522 18.1412 12.5223 18.1435C11.4515 19.0077 10.117 19.4792 8.74094 19.4794C7.36487 19.4796 6.03024 19.0085 4.9592 18.1445ZM7.01877 11.8732C7.01878 11.5328 7.11975 11.2 7.3089 10.9169C7.49805 10.6338 7.7669 10.4132 8.08144 10.2829C8.39598 10.1527 8.74209 10.1186 9.07599 10.185C9.4099 10.2514 9.71662 10.4154 9.95735 10.6561C10.1981 10.8969 10.362 11.2036 10.4284 11.5375C10.4948 11.8714 10.4608 12.2175 10.3305 12.5321C10.2002 12.8466 9.97955 13.1154 9.69647 13.3046C9.41339 13.4937 9.08059 13.5947 8.74014 13.5947C8.28379 13.5942 7.84628 13.4127 7.52357 13.09C7.20087 12.7673 7.01933 12.3298 7.01877 11.8735V11.8732ZM2.70498 13.4445C2.70421 12.4601 2.94426 11.4904 3.4042 10.62C3.86414 9.74967 4.53 9.00502 5.34374 8.45102C6.15747 7.89702 7.09438 7.55049 8.07276 7.44163C9.05114 7.33277 10.0413 7.46489 10.9569 7.82648C11.8725 8.18807 12.6858 8.76814 13.3258 9.51613C13.9658 10.2641 14.4131 11.1573 14.6287 12.1178C14.8444 13.0783 14.8218 14.077 14.5629 15.0268C14.304 15.9766 13.8168 16.8486 13.1436 17.5669C12.9644 16.7184 12.5437 15.9398 11.9323 15.3248C11.3209 14.7099 10.5447 14.2848 9.69727 14.1007C10.2101 13.8802 10.6312 13.4896 10.8894 12.9946C11.1476 12.4997 11.2271 11.9308 11.1144 11.384C11.0018 10.8373 10.7038 10.3461 10.271 9.99358C9.83817 9.64103 9.29693 9.44866 8.73868 9.44895C8.18043 9.44924 7.63939 9.64218 7.20692 9.99518C6.77445 10.3482 6.47705 10.8396 6.36495 11.3865C6.25285 11.9334 6.33291 12.5022 6.59162 12.9969C6.85033 13.4915 7.27183 13.8818 7.78494 14.1017C6.93891 14.2889 6.16435 14.7149 5.55314 15.3291C4.94193 15.9433 4.51973 16.72 4.33664 17.5669C3.2875 16.4508 2.7039 14.9763 2.70498 13.4445Z" fill="#0E4366"/>
</svg>
