<svg width="32" height="31" viewBox="0 0 32 31" fill="none" xmlns="http://www.w3.org/2000/svg">
<rect x="4" y="1" width="12" height="12" rx="6" fill="#9EC8FF"/>
<path d="M27.7491 28.6201H27.23V13.2901C27.23 13.0581 27.042 12.8701 26.81 12.8701H23.5006C23.2686 12.8701 23.0806 13.0581 23.0806 13.2901V28.6201H21.4536V18.1901C21.4536 17.9581 21.2656 17.7701 21.0336 17.7701H17.7242C17.4922 17.7701 17.3042 17.9581 17.3042 18.1901V28.6201H15.6773V16.8601C15.6773 16.6281 15.4893 16.4401 15.2573 16.4401H11.948C11.716 16.4401 11.528 16.6281 11.528 16.8601V28.6201H9.90104V21.2001C9.90104 20.9681 9.71305 20.7801 9.48104 20.7801H6.17162C5.93961 20.7801 5.75162 20.9681 5.75162 21.2001V28.6201H5.2325C5.00049 28.6201 4.8125 28.8081 4.8125 29.0401C4.8125 29.2721 5.00049 29.4601 5.2325 29.4601H6.17162H9.48104H11.948H15.2573H17.7242H21.0336H23.5006H26.81H27.7491C27.9811 29.4601 28.1691 29.2721 28.1691 29.0401C28.1691 28.8081 27.9811 28.6201 27.7491 28.6201ZM6.59162 28.6201V21.6201H9.06104V28.6201H6.59162ZM12.368 28.6201V17.2801H14.8373V28.6201H12.368ZM18.1442 28.6201V18.6101H20.6136V28.6201H18.1442ZM23.9206 28.6201V13.7101H26.39V28.6201H23.9206Z" fill="#0E4366"/>
<path d="M15.1728 12.4519C15.1367 11.6152 14.4467 10.945 13.6012 10.945C12.7328 10.945 12.0262 11.6516 12.0262 12.52C12.0262 12.7232 12.0662 12.9168 12.1366 13.0953L8.78427 15.6137C8.51828 15.4085 8.18614 15.285 7.825 15.285C6.95656 15.285 6.25 15.9916 6.25 16.86C6.25 17.7284 6.95656 18.435 7.825 18.435C8.69344 18.435 9.4 17.7284 9.4 16.86C9.4 16.6568 9.36003 16.4631 9.28963 16.2846L12.6419 13.7663C12.9079 13.9715 13.2401 14.095 13.6012 14.095C14.198 14.095 14.7184 13.7613 14.9855 13.2707L17.8061 13.9181C17.8421 14.7548 18.5321 15.425 19.3776 15.425C20.246 15.425 20.9526 14.7184 20.9526 13.85C20.9526 13.6135 20.8987 13.3899 20.8049 13.1884L24.2683 10.2514C24.5209 10.4238 24.8258 10.525 25.154 10.525C26.0224 10.525 26.729 9.81844 26.729 8.95C26.729 8.08156 26.0224 7.375 25.154 7.375C24.2855 7.375 23.579 8.08156 23.579 8.95C23.579 9.18586 23.6326 9.40893 23.7259 9.60999L20.2618 12.5475C20.0095 12.3757 19.7052 12.275 19.3776 12.275C18.7808 12.275 18.2605 12.6087 17.9933 13.0993L15.1728 12.4519ZM7.825 17.595C7.41977 17.595 7.09 17.2652 7.09 16.86C7.09 16.4548 7.41977 16.125 7.825 16.125C8.23023 16.125 8.56 16.4548 8.56 16.86C8.56 17.2652 8.23023 17.595 7.825 17.595ZM13.6012 13.255C13.196 13.255 12.8662 12.9252 12.8662 12.52C12.8662 12.1148 13.196 11.785 13.6012 11.785C14.0065 11.785 14.3362 12.1148 14.3362 12.52C14.3362 12.9252 14.0065 13.255 13.6012 13.255ZM25.154 8.215C25.5592 8.215 25.889 8.54477 25.889 8.95C25.889 9.35523 25.5592 9.685 25.154 9.685C24.7487 9.685 24.419 9.35523 24.419 8.95C24.419 8.54477 24.7487 8.215 25.154 8.215ZM19.3776 13.115C19.7828 13.115 20.1126 13.4448 20.1126 13.85C20.1126 14.2552 19.7828 14.585 19.3776 14.585C18.9724 14.585 18.6426 14.2552 18.6426 13.85C18.6426 13.4448 18.9724 13.115 19.3776 13.115Z" fill="#0E4366"/>
<path d="M5.35875 11.7424C5.35875 12.1434 5.59814 12.5017 5.96865 12.6551C6.0917 12.7061 6.22035 12.7309 6.34777 12.7309C6.60439 12.7309 6.85596 12.6305 7.04531 12.441L8.92629 10.56H13.8908C14.4355 10.56 14.8787 10.1168 14.8787 9.57211V5.52797C14.8787 4.98328 14.4355 4.54004 13.8908 4.54004H4.45682C3.91199 4.54004 3.46875 4.98328 3.46875 5.52797V9.57211C3.46875 10.1168 3.91199 10.56 4.45682 10.56H5.35875V11.7424ZM4.45682 9.72004C4.3752 9.72004 4.30875 9.65373 4.30875 9.57211V5.52797C4.30875 5.44635 4.3752 5.38004 4.45682 5.38004H13.8908C13.9724 5.38004 14.0387 5.44635 14.0387 5.52797V9.57211C14.0387 9.65373 13.9724 9.72004 13.8908 9.72004H8.75238C8.64096 9.72004 8.53418 9.76434 8.45543 9.84309L6.45141 11.8471C6.39057 11.9081 6.32426 11.893 6.29008 11.8791C6.25604 11.865 6.19875 11.8284 6.19875 11.7424V10.14C6.19875 9.90803 6.01076 9.72004 5.77875 9.72004H4.45682Z" fill="#0E4366"/>
<path d="M22.2431 9.66814C22.4741 9.64846 22.6456 9.44516 22.6259 9.21396C22.6185 9.1277 22.6134 9.03883 22.6134 8.9501C22.6134 7.54668 23.7539 6.40494 25.1557 6.40494C26.5591 6.40494 27.701 7.54668 27.701 8.9501C27.701 10.3535 26.5591 11.4953 25.1557 11.4953C24.9305 11.4953 24.7067 11.4654 24.4904 11.4065C24.2669 11.3455 24.0359 11.4776 23.9749 11.7014C23.9139 11.9252 24.046 12.156 24.2698 12.217C24.5579 12.2955 24.856 12.3353 25.1557 12.3353C27.0223 12.3353 28.541 10.8167 28.541 8.9501C28.541 7.08348 27.0223 5.56494 25.1557 5.56494C23.2907 5.56494 21.7734 7.08348 21.7734 8.9501C21.7734 9.06289 21.7796 9.17582 21.7889 9.28533C21.8086 9.51639 22.0089 9.6866 22.2431 9.66814Z" fill="#0E4366"/>
<path d="M6.36406 8.74006C6.54891 8.74006 6.72801 8.66446 6.85967 8.53567C6.98846 8.40401 7.06406 8.22477 7.06406 8.04006C7.06406 7.85522 6.98846 7.67598 6.85967 7.54446C6.59648 7.28401 6.12891 7.28401 5.86846 7.54446C5.7368 7.67598 5.66406 7.85522 5.66406 8.04006C5.66406 8.22477 5.7368 8.40401 5.86846 8.53567C6.00012 8.66446 6.17922 8.74006 6.36406 8.74006Z" fill="#0E4366"/>
<path d="M9.17656 8.74006C9.36141 8.74006 9.54051 8.66446 9.67217 8.53567C9.80096 8.40401 9.87656 8.22477 9.87656 8.04006C9.87656 7.85522 9.80096 7.67598 9.67217 7.54446C9.41172 7.28401 8.94414 7.28401 8.68096 7.54446C8.55217 7.67598 8.47656 7.85522 8.47656 8.04006C8.47656 8.22477 8.55217 8.40401 8.68096 8.53567C8.81262 8.66446 8.99172 8.74006 9.17656 8.74006Z" fill="#0E4366"/>
<path d="M11.9812 8.74006C12.1661 8.74006 12.3452 8.66446 12.4769 8.53567C12.6056 8.40401 12.6812 8.22477 12.6812 8.04006C12.6812 7.85522 12.6056 7.67598 12.4769 7.54446C12.2164 7.28401 11.7461 7.28401 11.4856 7.54446C11.3569 7.67598 11.2812 7.85522 11.2812 8.04006C11.2812 8.22477 11.3569 8.40401 11.4856 8.53567C11.6172 8.66446 11.7964 8.74006 11.9812 8.74006Z" fill="#0E4366"/>
</svg>
