<svg width="31" height="31" viewBox="0 0 31 31" fill="none" xmlns="http://www.w3.org/2000/svg">
<g clip-path="url(#clip0_11207_1444)">
<rect x="1" y="1" width="12" height="12" rx="6" fill="#9EC8FF"/>
<path d="M21.9876 8.86297C18.7555 5.63086 13.4961 5.63086 10.264 8.86297C8.96082 10.1673 8.12911 11.8685 7.90013 13.698C7.67116 15.5276 8.05795 17.3813 8.99948 18.9665L7.83032 20.1357L7.73604 20.0414C7.52114 19.827 7.22997 19.7066 6.92641 19.7066C6.62285 19.7066 6.33168 19.827 6.11678 20.0414C6.02929 20.129 5.89911 20.2551 5.73424 20.4147C3.32678 22.7459 0.561118 25.6348 0.547677 27.2952C0.541715 27.4589 0.569045 27.6222 0.628012 27.7751C0.68698 27.9279 0.776358 28.0672 0.890736 28.1846L2.66615 29.96C2.78189 30.073 2.91914 30.1615 3.06976 30.2205C3.22039 30.2794 3.38131 30.3075 3.54299 30.303H3.55552C5.21596 30.2896 8.10471 27.5239 10.436 25.1165C10.5956 24.9517 10.7217 24.8215 10.8092 24.7339C11.0236 24.519 11.144 24.2278 11.144 23.9243C11.144 23.6207 11.0236 23.3296 10.8092 23.1147L10.715 23.0204L11.886 21.8494C13.6225 22.8827 15.6767 23.2463 17.6624 22.8717C19.6481 22.4971 21.4286 21.4102 22.6693 19.8152C23.9099 18.2202 24.5254 16.227 24.3999 14.2102C24.2743 12.1934 23.4165 10.2919 21.9877 8.86303L21.9876 8.86297ZM3.54862 29.4553H3.54257C3.37909 29.4553 3.30643 29.4014 3.26544 29.3606L1.49003 27.5852C1.4488 27.5438 1.39406 27.4695 1.39533 27.302C1.39818 26.9516 1.65042 26.0764 3.30819 24.1514C3.62939 23.7783 3.96694 23.4083 4.30049 23.0549L4.78547 25.5931C4.8013 25.6759 4.84148 25.7522 4.90086 25.812C4.96025 25.8719 5.03615 25.9127 5.11885 25.9292L7.87185 26.4782C7.49561 26.835 7.09909 27.1981 6.69924 27.5424C4.77427 29.2002 3.89907 29.4525 3.54862 29.4553ZM10.2099 24.1345C10.1175 24.2269 9.98924 24.3592 9.82703 24.5268C9.5246 24.8392 9.1012 25.2761 8.61101 25.7614L5.56447 25.1538L5.02088 22.3089C5.53347 21.7892 5.9969 21.3401 6.32385 21.0236C6.49144 20.8614 6.6238 20.733 6.71619 20.6409C6.77245 20.586 6.84789 20.5554 6.92644 20.5554C7.00499 20.5554 7.08043 20.586 7.13669 20.6409L10.2099 23.714C10.2655 23.7698 10.2968 23.8454 10.2968 23.9242C10.2968 24.0031 10.2655 24.0787 10.2099 24.1345ZM10.1156 22.421L8.42967 20.7351L9.48101 19.6838C9.72024 20.003 9.9819 20.3047 10.264 20.5868C10.5461 20.8688 10.848 21.1302 11.1676 21.3689L10.1156 22.421ZM21.3883 19.9874C20.1709 21.2049 18.5689 21.9626 16.8554 22.1314C15.1419 22.3002 13.4228 21.8696 11.9912 20.9131C10.5596 19.9565 9.50388 18.5332 9.00404 16.8855C8.5042 15.2378 8.59112 13.4679 9.25 11.8771C9.90888 10.2864 11.0989 8.97327 12.6174 8.1616C14.1359 7.34992 15.8888 7.08986 17.5776 7.42574C19.2663 7.76162 20.7863 8.67265 21.8786 10.0036C22.971 11.3345 23.568 13.0031 23.568 14.7249C23.5671 16.6985 22.7832 18.5911 21.3883 19.9874ZM16.1258 8.73885C14.9419 8.73884 13.7846 9.0899 12.8002 9.74764C11.8158 10.4054 11.0485 11.3403 10.5954 12.4341C10.1424 13.5278 10.0238 14.7314 10.2548 15.8926C10.4857 17.0538 11.0558 18.1204 11.893 18.9576C12.7301 19.7947 13.7967 20.3649 14.9579 20.5959C16.119 20.8269 17.3226 20.7083 18.4164 20.2553C19.5102 19.8022 20.4452 19.035 21.1029 18.0506C21.7607 17.0662 22.1118 15.9089 22.1118 14.725C22.11 13.1379 21.4788 11.6164 20.3566 10.4942C19.2344 9.37193 17.7129 8.74066 16.1258 8.73885ZM16.1258 9.58651C17.0452 9.5858 17.9479 9.83196 18.7396 10.2993C19.5313 10.7666 20.1831 11.4379 20.6267 12.2431C21.0704 13.0484 21.2897 13.9579 21.2618 14.8769C21.2339 15.7958 20.9597 16.6904 20.468 17.4672C19.91 16.8761 19.2369 16.4056 18.4901 16.0848C17.7433 15.7639 16.9387 15.5995 16.1258 15.6017C14.5142 15.6017 12.9603 16.2789 11.7895 17.4762C11.2956 16.6997 11.0195 15.8047 10.9901 14.8849C10.9607 13.9651 11.1791 13.0543 11.6223 12.2478C12.0656 11.4414 12.7175 10.7688 13.5098 10.3006C14.302 9.83244 15.2056 9.5858 16.1258 9.58651ZM16.1258 19.8632C15.4056 19.8634 14.6935 19.7119 14.0358 19.4185C13.378 19.1251 12.7895 18.6964 12.3085 18.1603C13.33 17.0691 14.7038 16.4493 16.1258 16.4493C16.8473 16.4474 17.5609 16.5984 18.2197 16.8923C18.8786 17.1861 19.4677 17.6162 19.9484 18.1542C19.4674 18.692 18.8783 19.1223 18.2195 19.4168C17.5608 19.7113 16.8474 19.8634 16.1258 19.8632ZM16.1258 14.9869C16.5744 14.9869 17.013 14.8538 17.386 14.6046C17.759 14.3553 18.0497 14.0011 18.2214 13.5866C18.393 13.1722 18.4379 12.7161 18.3504 12.2761C18.2629 11.8361 18.0468 11.432 17.7296 11.1148C17.4124 10.7976 17.0083 10.5815 16.5683 10.494C16.1283 10.4065 15.6722 10.4514 15.2578 10.6231C14.8433 10.7948 14.4891 11.0855 14.2398 11.4585C13.9906 11.8315 13.8576 12.2701 13.8576 12.7187C13.8582 13.32 14.0974 13.8966 14.5226 14.3218C14.9478 14.7471 15.5245 14.9863 16.1258 14.9869ZM16.1258 11.2981C16.4068 11.2981 16.6814 11.3814 16.915 11.5375C17.1486 11.6936 17.3307 11.9155 17.4382 12.1751C17.5457 12.4346 17.5739 12.7203 17.519 12.9958C17.4642 13.2714 17.3289 13.5245 17.1302 13.7232C16.9316 13.9218 16.6785 14.0571 16.4029 14.1119C16.1273 14.1667 15.8417 14.1386 15.5821 14.0311C15.3226 13.9235 15.1007 13.7415 14.9446 13.5079C14.7885 13.2743 14.7052 12.9996 14.7052 12.7187C14.7056 12.342 14.8554 11.9809 15.1217 11.7146C15.3881 11.4483 15.7491 11.2985 16.1258 11.298L16.1258 11.2981ZM23.7327 8.58361C23.7721 8.62297 23.8188 8.65419 23.8702 8.67549C23.9216 8.6968 23.9768 8.70776 24.0324 8.70776C24.0881 8.70776 24.1432 8.6968 24.1946 8.67549C24.246 8.65419 24.2928 8.62297 24.3321 8.58361L25.4776 7.43824L25.7961 7.75672C25.8742 7.83483 25.973 7.88898 26.0809 7.91275C26.1888 7.93653 26.3012 7.92894 26.4049 7.8909C26.5086 7.85285 26.5993 7.78593 26.6662 7.69803C26.7331 7.61013 26.7735 7.50493 26.7826 7.39483L26.9976 4.78211C27.0046 4.69833 26.9932 4.61405 26.9642 4.53511C26.9353 4.45618 26.8895 4.3845 26.8301 4.32504C26.7707 4.26559 26.699 4.21979 26.6201 4.19082C26.5412 4.16186 26.4569 4.15043 26.3731 4.15733L23.7601 4.37239C23.65 4.38144 23.5448 4.42179 23.4568 4.4887C23.3689 4.55561 23.302 4.64627 23.2639 4.74999C23.2259 4.8537 23.2183 4.96614 23.242 5.07403C23.2658 5.18192 23.3199 5.28076 23.3981 5.35888L23.7165 5.67742L22.5712 6.82278C22.5318 6.86214 22.5006 6.90886 22.4793 6.96029C22.458 7.01171 22.447 7.06683 22.447 7.12249C22.447 7.17815 22.458 7.23327 22.4793 7.28469C22.5006 7.33612 22.5318 7.38284 22.5712 7.4222L23.7327 8.58361ZM24.6157 5.97706C24.655 5.93771 24.6863 5.89098 24.7076 5.83956C24.7289 5.78814 24.7398 5.73302 24.7398 5.67736C24.7398 5.6217 24.7289 5.56658 24.7076 5.51516C24.6863 5.46373 24.655 5.41701 24.6157 5.37765L24.4076 5.16955L26.1268 5.02799L25.9852 6.74722L25.777 6.53906C25.7377 6.4997 25.6909 6.46848 25.6395 6.44718C25.5881 6.42587 25.533 6.41491 25.4773 6.41491C25.4216 6.41491 25.3665 6.42587 25.3151 6.44718C25.2637 6.46848 25.217 6.4997 25.1776 6.53906L24.0322 7.68449L23.4701 7.12243L24.6157 5.97706ZM14.5485 3.85478H14.9989V5.47459C14.9989 5.58699 15.0436 5.69479 15.1231 5.77428C15.2026 5.85376 15.3104 5.89841 15.4228 5.89841H17.0653C17.1777 5.89841 17.2855 5.85376 17.365 5.77428C17.4445 5.69479 17.4891 5.58699 17.4891 5.47459V3.85478H17.9395C18.05 3.85478 18.1582 3.82318 18.2513 3.7637C18.3444 3.70423 18.4185 3.61936 18.4649 3.51911C18.5114 3.41887 18.5282 3.30743 18.5133 3.19796C18.4985 3.08848 18.4526 2.98554 18.3812 2.90128L16.6858 0.901541C16.6315 0.837446 16.5638 0.785951 16.4876 0.750633C16.4113 0.715316 16.3283 0.697021 16.2442 0.697021C16.1602 0.697021 16.0772 0.715316 16.0009 0.750633C15.9247 0.785951 15.857 0.837446 15.8026 0.901541L14.1073 2.90116C14.0359 2.98542 13.99 3.08836 13.9752 3.19783C13.9604 3.3073 13.9771 3.41873 14.0236 3.51897C14.07 3.61922 14.1441 3.70409 14.2372 3.76358C14.3303 3.82307 14.4384 3.85469 14.5489 3.85471L14.5485 3.85478ZM16.2438 1.69137L17.3594 3.00712H17.065C16.9526 3.00712 16.8448 3.05177 16.7654 3.13126C16.6859 3.21074 16.6412 3.31854 16.6412 3.43095V5.05076H15.8466V3.43095C15.8466 3.31854 15.8019 3.21074 15.7225 3.13126C15.643 3.05177 15.5352 3.00712 15.4228 3.00712H15.1284L16.2438 1.69137ZM2.23476 15.3524L4.23444 17.0478C4.33828 17.1368 4.47049 17.1859 4.60729 17.1861C4.69207 17.186 4.77581 17.1674 4.85268 17.1316C4.95325 17.0857 5.03841 17.0117 5.0979 16.9185C5.1574 16.8253 5.1887 16.7169 5.18805 16.6064V16.156H6.80786C6.92027 16.156 7.02807 16.1113 7.10755 16.0318C7.18704 15.9523 7.23169 15.8445 7.23169 15.7321V14.0893C7.23169 13.9768 7.18704 13.869 7.10755 13.7896C7.02807 13.7101 6.92027 13.6654 6.80786 13.6654H5.18805V13.215C5.18805 13.1045 5.15645 12.9964 5.09698 12.9033C5.0375 12.8102 4.95263 12.736 4.85239 12.6896C4.75214 12.6432 4.6407 12.6264 4.53123 12.6412C4.42176 12.6561 4.31882 12.7019 4.23456 12.7734L2.23476 14.4687C2.17064 14.5231 2.11913 14.5907 2.0838 14.667C2.04847 14.7432 2.03017 14.8263 2.03017 14.9103C2.03017 14.9944 2.04847 15.0774 2.0838 15.1537C2.11913 15.23 2.17064 15.2976 2.23476 15.352V15.3524ZM4.34039 13.7952V14.0893C4.34039 14.2017 4.38505 14.3095 4.46453 14.3889C4.54401 14.4684 4.65182 14.5131 4.76422 14.5131H6.38403V15.308H4.76422C4.65182 15.308 4.54401 15.3527 4.46453 15.4321C4.38505 15.5116 4.34039 15.6194 4.34039 15.7318V16.0262L3.02459 14.9108L4.34039 13.7952ZM26.7826 22.4266C26.7736 22.3164 26.7332 22.2111 26.6662 22.1232C26.5993 22.0353 26.5086 21.9683 26.4048 21.9303C26.301 21.8923 26.1885 21.8847 26.0806 21.9086C25.9727 21.9324 25.8738 21.9866 25.7957 22.0649L25.4772 22.3834L24.332 21.238C24.2926 21.1987 24.2459 21.1674 24.1945 21.1461C24.1431 21.1248 24.088 21.1139 24.0323 21.1139C23.9766 21.1139 23.9215 21.1248 23.8701 21.1461C23.8187 21.1674 23.7719 21.1987 23.7326 21.238L22.5711 22.3994C22.5318 22.4388 22.5005 22.4855 22.4792 22.5369C22.4579 22.5884 22.447 22.6435 22.447 22.6991C22.447 22.7548 22.4579 22.8099 22.4792 22.8613C22.5005 22.9128 22.5318 22.9595 22.5711 22.9988L23.7165 24.1442L23.3979 24.4627C23.3199 24.5408 23.2657 24.6397 23.242 24.7475C23.2182 24.8554 23.2258 24.9678 23.2639 25.0715C23.3019 25.1752 23.3688 25.2659 23.4567 25.3328C23.5446 25.3997 23.6498 25.4401 23.7599 25.4492L26.3728 25.6643C26.3895 25.6657 26.4062 25.6664 26.4226 25.6664C26.5025 25.666 26.5814 25.6492 26.6544 25.6169C26.7274 25.5846 26.793 25.5375 26.847 25.4787C26.9009 25.4198 26.9422 25.3505 26.9681 25.2749C26.994 25.1994 27.004 25.1193 26.9975 25.0398L26.7826 22.4266ZM24.4077 24.6519L24.6158 24.4438C24.6552 24.4044 24.6864 24.3577 24.7077 24.3063C24.729 24.2549 24.74 24.1998 24.74 24.1441C24.74 24.0884 24.729 24.0333 24.7077 23.9819C24.6864 23.9305 24.6552 23.8837 24.6158 23.8444L23.4703 22.699L24.0324 22.137L25.1778 23.2823C25.2171 23.3217 25.2639 23.3529 25.3153 23.3742C25.3667 23.3955 25.4218 23.4065 25.4775 23.4065C25.5332 23.4065 25.5883 23.3955 25.6397 23.3742C25.6911 23.3529 25.7378 23.3217 25.7772 23.2823L25.9853 23.0742L26.1269 24.7934L24.4077 24.6519ZM30.2532 14.4688L28.2538 12.7735C28.1696 12.702 28.0666 12.6562 27.9571 12.6413C27.8477 12.6265 27.7362 12.6432 27.636 12.6897C27.5357 12.7361 27.4508 12.8102 27.3913 12.9033C27.3319 12.9964 27.3003 13.1046 27.3003 13.2151V13.6655H25.6802C25.5678 13.6655 25.46 13.7102 25.3805 13.7897C25.301 13.8692 25.2564 13.977 25.2564 14.0894V15.7319C25.2564 15.8443 25.301 15.9521 25.3805 16.0316C25.46 16.1111 25.5678 16.1557 25.6802 16.1557H27.3001V16.6061C27.2994 16.7168 27.3307 16.8252 27.3903 16.9184C27.4498 17.0117 27.5351 17.0857 27.6357 17.1316C27.7125 17.1673 27.7961 17.1859 27.8808 17.186C28.0175 17.1858 28.1497 17.1367 28.2535 17.0477L30.253 15.3524C30.3172 15.298 30.3688 15.2304 30.4041 15.1541C30.4395 15.0777 30.4578 14.9946 30.4578 14.9105C30.4578 14.8264 30.4395 14.7433 30.4041 14.667C30.3688 14.5907 30.3172 14.5231 30.253 14.4687L30.2532 14.4688ZM28.1479 16.0263V15.732C28.1479 15.6195 28.1033 15.5117 28.0238 15.4323C27.9443 15.3528 27.8365 15.3081 27.7241 15.3081H26.104V14.5134H27.7239C27.8363 14.5134 27.9441 14.4687 28.0236 14.3893C28.1031 14.3098 28.1477 14.202 28.1477 14.0896V13.7952L29.4634 14.9108L28.1479 16.0263ZM5.70554 7.39477C5.71462 7.50486 5.755 7.61005 5.82192 7.69795C5.88883 7.78584 5.97949 7.85275 6.08319 7.8908C6.1869 7.92885 6.29932 7.93645 6.4072 7.91269C6.51508 7.88893 6.61391 7.83481 6.69203 7.75672L7.01057 7.43824L8.156 8.58361C8.19535 8.62297 8.24208 8.65419 8.2935 8.67549C8.34493 8.6968 8.40004 8.70776 8.4557 8.70776C8.51137 8.70776 8.56648 8.6968 8.61791 8.67549C8.66933 8.65419 8.71605 8.62297 8.75541 8.58361L9.91682 7.42214C9.95618 7.38278 9.98741 7.33606 10.0087 7.28463C10.03 7.23321 10.041 7.17809 10.041 7.12243C10.041 7.06677 10.03 7.01165 10.0087 6.96023C9.98741 6.9088 9.95618 6.86208 9.91682 6.82272L8.7714 5.67742L9.09005 5.35876C9.16814 5.28063 9.22225 5.1818 9.24599 5.07392C9.26974 4.96604 9.26213 4.85362 9.22407 4.74993C9.186 4.64624 9.11907 4.55559 9.03117 4.4887C8.94327 4.4218 8.83807 4.38145 8.72798 4.37239L6.11533 4.15727C6.03151 4.15016 5.94715 4.16148 5.86817 4.19043C5.78919 4.21938 5.7175 4.26526 5.65814 4.32486C5.5982 4.38395 5.55208 4.45556 5.5231 4.53458C5.49411 4.61359 5.48297 4.69804 5.49048 4.78187L5.70554 7.39477ZM8.0805 5.16955L7.8724 5.37771C7.83304 5.41707 7.80181 5.46379 7.78051 5.51522C7.75921 5.56664 7.74824 5.62176 7.74824 5.67742C7.74824 5.73308 7.75921 5.7882 7.78051 5.83962C7.80181 5.89104 7.83304 5.93777 7.8724 5.97713L9.01776 7.12249L8.45564 7.68455L7.31022 6.53906C7.27086 6.4997 7.22414 6.46848 7.17271 6.44718C7.12129 6.42587 7.06617 6.41491 7.01051 6.41491C6.95485 6.41491 6.89973 6.42587 6.84831 6.44718C6.79689 6.46848 6.75016 6.4997 6.7108 6.53906L6.50264 6.74722L6.36115 5.02799L8.0805 5.16955ZM17.9395 25.4126H17.4891V23.7928C17.4891 23.6804 17.4445 23.5726 17.365 23.4931C17.2855 23.4136 17.1777 23.369 17.0653 23.369H15.4228C15.3104 23.369 15.2026 23.4136 15.1231 23.4931C15.0436 23.5726 14.9989 23.6804 14.9989 23.7928V25.4126H14.5485C14.438 25.4126 14.3299 25.4443 14.2368 25.5037C14.1437 25.5632 14.0696 25.6481 14.0231 25.7483C13.9767 25.8485 13.9599 25.96 13.9748 26.0694C13.9896 26.1789 14.0354 26.2818 14.1068 26.3661L15.8022 28.3658C15.8565 28.43 15.9242 28.4815 16.0004 28.5168C16.0767 28.5521 16.1597 28.5704 16.2438 28.5704C16.3278 28.5704 16.4109 28.5521 16.4871 28.5168C16.5634 28.4815 16.6311 28.43 16.6854 28.3658L18.3807 26.3662C18.4522 26.282 18.4981 26.179 18.5129 26.0695C18.5278 25.9601 18.511 25.8486 18.4646 25.7484C18.4181 25.6481 18.344 25.5632 18.2509 25.5037C18.1578 25.4442 18.0496 25.4126 17.9392 25.4126H17.9395ZM16.2442 27.5761L15.1286 26.2603H15.423C15.5354 26.2603 15.6432 26.2156 15.7227 26.1361C15.8022 26.0567 15.8468 25.9488 15.8468 25.8364V24.2166H16.6417V25.8364C16.6417 25.9488 16.6864 26.0567 16.7658 26.1361C16.8453 26.2156 16.9531 26.2603 17.0655 26.2603H17.3598L16.2442 27.5761Z" fill="#0E4366"/>
</g>
<defs>
<clipPath id="clip0_11207_1444">
<rect width="31" height="31" fill="white"/>
</clipPath>
</defs>
</svg>
