<svg width="31" height="31" viewBox="0 0 31 31" fill="none" xmlns="http://www.w3.org/2000/svg">
<rect x="1" y="1" width="12" height="12" rx="6" fill="#9EC8FF"/>
<path d="M15.7262 10.8298C15.7262 10.6939 15.6809 10.5126 15.6809 10.2408V10.1048C15.6355 9.9689 15.5902 9.78765 15.5902 9.74233C15.5449 9.19858 15.1824 8.74546 14.548 8.60952H14.5027C14.0496 8.47358 13.5965 8.38296 13.1434 8.24702C13.098 8.24702 13.0527 8.20171 12.9621 8.20171L12.7809 8.1564C12.5543 8.11108 12.373 8.06577 12.2824 8.02046L11.9652 7.88452L9.88086 10.0595L7.79648 7.88452L7.4793 7.92983C7.34336 7.92983 7.20742 7.97515 6.93555 8.06577L6.79961 8.1564C6.70898 8.1564 6.66367 8.20171 6.61836 8.20171C6.16523 8.33765 5.71211 8.47358 5.25898 8.56421H5.21367C4.5793 8.74546 4.17148 9.15327 4.17148 9.69702C4.17148 9.78765 4.17148 9.92358 4.12617 10.1048V10.2408C4.08086 10.5126 4.08086 10.6939 4.08086 10.8298C4.03555 12.2345 4.03555 13.8205 4.08086 15.5876C4.08086 15.9955 4.17148 16.4033 4.39805 16.8111C4.5793 17.1736 4.85117 17.5361 5.21367 17.8986V17.9439V18.3064C5.25898 19.122 5.34961 24.7408 5.34961 25.3298C5.34961 26.4173 5.84805 27.3236 6.70898 27.9126C7.38867 28.3658 8.2043 28.5923 9.11055 28.5923H9.88086H10.6512C11.5574 28.5923 12.4184 28.3658 13.098 27.9126C13.959 27.3236 14.4574 26.372 14.4574 25.3298C14.4574 24.7408 14.548 19.122 14.5934 18.3064V17.9439C14.5934 17.9439 14.5934 17.9439 14.5934 17.8986C14.9559 17.5361 15.2277 17.1736 15.409 16.8111C15.5902 16.4033 15.6809 15.9955 15.7262 15.5876C15.7715 13.8205 15.7715 12.2345 15.7262 10.8298ZM14.5934 15.5876C14.5934 15.8595 14.5027 16.0861 14.4121 16.358C14.2762 16.6298 14.0949 16.9017 13.823 17.1736L13.7777 17.2189C13.7324 17.2642 13.6871 17.3548 13.5965 17.4455L13.5059 17.5814L13.4605 18.2611C13.4152 19.122 13.3246 24.7408 13.3246 25.3298C13.3246 26.0095 13.0074 26.5986 12.4637 27.0064C12.0105 27.3236 11.3762 27.5048 10.6965 27.5048H9.92617H9.15586C8.47617 27.5048 7.8418 27.3236 7.38867 27.0064C6.79961 26.5986 6.52773 26.0095 6.52773 25.3298C6.52773 24.7408 6.43711 19.122 6.3918 18.2611L6.34648 17.5814L6.25586 17.4455C6.11992 17.3548 6.07461 17.2642 5.98398 17.2189L5.93867 17.1736C5.6668 16.9017 5.44023 16.6298 5.34961 16.358C5.21367 16.0861 5.16836 15.8595 5.16836 15.5876C5.12305 13.8205 5.12305 12.2345 5.16836 10.8751C5.16836 10.8298 5.21367 10.6033 5.21367 10.422V10.3314C5.25898 10.1048 5.25898 9.92358 5.25898 9.83296C5.25898 9.78765 5.34961 9.74233 5.48555 9.69702H5.53086C5.98398 9.56108 6.43711 9.42515 6.93555 9.28921C6.98086 9.28921 7.02617 9.28921 7.07148 9.2439L7.29805 9.15327C7.34336 9.15327 7.38867 9.10796 7.43398 9.10796L9.2918 11.0564C9.42773 11.2376 9.60898 11.3283 9.83555 11.3283H9.88086H9.92617C10.1527 11.3283 10.334 11.1923 10.4699 11.0564L12.3277 9.10796C12.373 9.10796 12.373 9.10796 12.4184 9.15327L12.6902 9.2439C12.7355 9.2439 12.7809 9.28921 12.8262 9.28921C13.2793 9.42515 13.7324 9.56108 14.1855 9.69702H14.2762C14.3668 9.74233 14.4574 9.78765 14.4574 9.83296C14.4574 9.92358 14.5027 10.1048 14.5027 10.3314V10.4673C14.5027 10.6033 14.548 10.8298 14.548 10.9205C14.6387 12.2345 14.6387 13.8205 14.5934 15.5876Z" fill="#0E4366"/>
<path d="M9.83535 6.93286H9.88066C10.6963 6.93286 11.5119 6.57036 12.101 5.9813C12.7354 5.34692 13.0979 4.5313 13.1432 3.67036C13.1432 2.80942 12.826 1.9938 12.1916 1.35942C11.5572 0.725049 10.7416 0.362549 9.88066 0.362549C8.11347 0.362549 6.61816 1.81255 6.61816 3.57974C6.57285 5.34692 8.11347 6.88755 9.83535 6.93286ZM9.88066 1.49536C10.4244 1.49536 10.9682 1.72192 11.376 2.12974C11.7838 2.53755 12.0104 3.0813 12.0104 3.62505C12.0104 4.1688 11.7385 4.71255 11.3307 5.12036C10.9229 5.52817 10.3791 5.75474 9.83535 5.75474C8.70254 5.75474 7.70566 4.66724 7.70566 3.57974C7.75098 2.49224 8.74785 1.49536 9.88066 1.49536Z" fill="#0E4366"/>
<path d="M21.8016 13.9563H19.5812V6.84229C19.5812 5.84541 20.3969 5.02979 21.3937 5.02979H21.6203C21.9375 5.02979 22.2094 4.75791 22.2094 4.44072C22.2094 4.12354 21.9375 3.89697 21.6203 3.89697H21.3937C19.7625 3.89697 18.4484 5.21104 18.4484 6.84229V13.9563H17.5422C17.225 13.9563 16.9531 14.2282 16.9531 14.5454C16.9531 14.8626 17.225 15.1345 17.5422 15.1345H18.4484V22.2485C18.4484 23.8798 19.7625 25.1938 21.3937 25.1938H21.6203C21.9375 25.1938 22.2094 24.922 22.2094 24.6048C22.2094 24.2876 21.9375 24.0157 21.6203 24.0157H21.3937C20.3969 24.0157 19.5812 23.2001 19.5812 22.2032V15.0892H21.8016C22.1188 15.0892 22.3906 14.8173 22.3906 14.5001C22.3906 14.1829 22.1188 13.9563 21.8016 13.9563Z" fill="#0E4366"/>
<path d="M26.0562 7.11406C27.5062 7.11406 28.7297 5.93594 28.7297 4.44063C28.7297 2.99063 27.5516 1.8125 26.0562 1.8125C24.5609 1.8125 23.3828 2.99062 23.3828 4.48594C23.4281 5.93594 24.6062 7.11406 26.0562 7.11406ZM26.0562 2.94531C26.9172 2.94531 27.5969 3.625 27.5969 4.48594C27.5969 5.34687 26.9172 6.02656 26.0562 6.02656C25.1953 6.02656 24.5156 5.34687 24.5156 4.48594C24.5156 3.625 25.2406 2.94531 26.0562 2.94531Z" fill="#0E4366"/>
<path d="M26.0562 11.8267C24.6062 11.8267 23.3828 13.0048 23.3828 14.5001C23.3828 15.9954 24.5609 17.1735 26.0562 17.1735C27.5516 17.1735 28.7297 15.9501 28.7297 14.5001C28.7297 13.0501 27.5516 11.8267 26.0562 11.8267ZM26.0562 16.0407C25.1953 16.0407 24.5156 15.361 24.5156 14.5001C24.5156 13.6392 25.1953 12.9595 26.0562 12.9595C26.9172 12.9595 27.5969 13.6392 27.5969 14.5001C27.5969 15.361 26.9172 16.0407 26.0562 16.0407Z" fill="#0E4366"/>
<path d="M26.0562 21.886C24.6062 21.886 23.3828 23.0641 23.3828 24.5594C23.3828 26.0094 24.5609 27.2329 26.0562 27.2329C27.5516 27.2329 28.7297 26.0547 28.7297 24.5594C28.7297 23.0641 27.5516 21.886 26.0562 21.886ZM26.0562 26.0547C25.1953 26.0547 24.5156 25.375 24.5156 24.5141C24.5156 23.6532 25.1953 22.9735 26.0562 22.9735C26.9172 22.9735 27.5969 23.6532 27.5969 24.5141C27.5969 25.375 26.9172 26.0547 26.0562 26.0547Z" fill="#0E4366"/>
</svg>
