<svg width="31" height="31" viewBox="0 0 31 31" fill="none" xmlns="http://www.w3.org/2000/svg">
<rect x="1" y="1" width="12" height="12" rx="6" fill="#9EC8FF"/>
<path d="M2.8125 13.2297C2.8125 13.479 3.01641 13.6829 3.26562 13.6829H6.4375C6.68672 13.6829 6.89062 13.479 6.89062 13.2297V12.8536C6.89062 12.3461 7.26672 11.9066 7.72891 11.8749C7.99625 11.8613 8.25 11.9519 8.43578 12.1377C8.60797 12.3099 8.70312 12.5365 8.70312 12.7766V13.2297C8.70312 13.479 8.90703 13.6829 9.15625 13.6829H12.3281C12.5773 13.6829 12.7812 13.479 12.7812 13.2297V10.511C13.2661 10.511 13.7192 10.3207 14.0636 9.98083C14.4352 9.60927 14.63 9.09271 14.5892 8.56708C14.5212 7.64724 13.7373 6.92677 12.7812 6.88599V4.16724C12.7812 3.91802 12.5773 3.71411 12.3281 3.71411H4.17188C3.42422 3.71411 2.8125 4.32583 2.8125 5.07349V13.2297ZM3.71875 5.07349C3.71875 4.82427 3.92266 4.62036 4.17188 4.62036H11.875V7.33911C11.875 7.58833 12.0789 7.79224 12.3281 7.79224H12.7042C13.2117 7.79224 13.6512 8.16833 13.683 8.63052C13.7011 8.89333 13.6059 9.15161 13.4202 9.33739C13.248 9.50958 13.0214 9.60474 12.7812 9.60474H12.3281C12.0789 9.60474 11.875 9.80864 11.875 10.0579V12.7766H9.60938C9.60938 12.2918 9.41906 11.8386 9.07922 11.4943C8.70766 11.1227 8.19109 10.9279 7.66547 10.9686C6.74563 11.0366 6.02516 11.8205 5.98438 12.7766H3.71875V5.07802V5.07349Z" fill="#0E4366"/>
<path d="M28.1883 25.9172V17.761C28.1883 17.5118 27.9844 17.3079 27.7352 17.3079H24.5633C24.3141 17.3079 24.1102 17.5118 24.1102 17.761V18.1371C24.1102 18.6446 23.7341 19.0841 23.2719 19.1158C23.0091 19.134 22.7508 19.0388 22.565 18.853C22.3928 18.6808 22.2977 18.4543 22.2977 18.2141V17.761C22.2977 17.5118 22.0938 17.3079 21.8446 17.3079H18.6727C18.4235 17.3079 18.2196 17.5118 18.2196 17.761V20.4797C17.7347 20.4797 17.2816 20.67 16.9372 21.0099C16.5656 21.3815 16.3708 21.898 16.4116 22.4236C16.4796 23.3435 17.2635 24.064 18.2196 24.1047V26.8235C18.2196 27.0727 18.4235 27.2766 18.6727 27.2766H26.8289C27.5766 27.2766 28.1883 26.6649 28.1883 25.9172ZM27.2821 25.9172C27.2821 26.1665 27.0781 26.3704 26.8289 26.3704H19.1258V23.6516C19.1258 23.4024 18.9219 23.1985 18.6727 23.1985H18.2966C17.7891 23.1985 17.3496 22.8224 17.3178 22.3602C17.2997 22.0974 17.3949 21.8391 17.5806 21.6533C17.7528 21.4811 17.9794 21.386 18.2196 21.386H18.6727C18.9219 21.386 19.1258 21.1821 19.1258 20.9329V18.2141H21.3914C21.3914 18.699 21.5817 19.1521 21.9216 19.4965C22.2931 19.868 22.8097 20.0583 23.3353 20.0221C24.2552 19.9541 24.9756 19.1702 25.0164 18.2141H27.2821V25.9172Z" fill="#0E4366"/>
<path d="M5.53125 18.2141C5.53125 19.714 6.75016 20.9329 8.25 20.9329C9.74984 20.9329 10.9688 19.714 10.9688 18.2141C10.9688 16.7143 9.74984 15.4954 8.25 15.4954C6.75016 15.4954 5.53125 16.7143 5.53125 18.2141ZM10.0625 18.2141C10.0625 19.2155 9.25141 20.0266 8.25 20.0266C7.24859 20.0266 6.4375 19.2155 6.4375 18.2141C6.4375 17.2127 7.24859 16.4016 8.25 16.4016C9.25141 16.4016 10.0625 17.2127 10.0625 18.2141Z" fill="#0E4366"/>
<path d="M2.8125 25.8493C2.8125 26.0351 2.92578 26.2028 3.09797 26.2707C4.77453 26.9459 6.51 27.2812 8.24094 27.2812C9.84953 27.2812 11.4581 26.9912 13.0305 26.4112L13.393 26.2753C13.5697 26.2073 13.6875 26.0396 13.6875 25.8493V23.6562C13.6875 22.4826 12.9625 21.4993 11.9656 21.3135L11.5941 21.2456C9.24234 20.8106 6.85891 20.8287 4.51172 21.2999C3.52844 21.4993 2.81703 22.4781 2.81703 23.6381V25.8493H2.8125ZM3.71875 23.6381C3.71875 22.9221 4.13563 22.3014 4.68844 22.1881C6.92234 21.7395 9.1925 21.7214 11.4264 22.1382L11.798 22.2062C12.3553 22.3104 12.7812 22.9357 12.7812 23.6562V25.5321L12.7133 25.5593C9.76344 26.6514 6.65953 26.6423 3.71875 25.5412V23.6381Z" fill="#0E4366"/>
<path d="M25.4688 6.4375C25.4688 4.93766 24.2498 3.71875 22.75 3.71875C21.2502 3.71875 20.0312 4.93766 20.0312 6.4375C20.0312 7.93734 21.2502 9.15625 22.75 9.15625C24.2498 9.15625 25.4688 7.93734 25.4688 6.4375ZM20.9375 6.4375C20.9375 5.43609 21.7486 4.625 22.75 4.625C23.7514 4.625 24.5625 5.43609 24.5625 6.4375C24.5625 7.43891 23.7514 8.25 22.75 8.25C21.7486 8.25 20.9375 7.43891 20.9375 6.4375Z" fill="#0E4366"/>
<path d="M28.1908 11.8796C28.1908 10.706 27.4658 9.72271 26.4689 9.53693L26.0973 9.46896C23.7456 9.03396 21.3622 9.05209 19.015 9.52334C18.0317 9.72271 17.3203 10.7015 17.3203 11.8615V14.0727C17.3203 14.2585 17.4336 14.4261 17.6058 14.4941C19.2823 15.1693 21.0178 15.5046 22.7488 15.5046C24.3573 15.5046 25.9659 15.2146 27.5383 14.6346L27.9008 14.4986C28.0775 14.4307 28.1953 14.263 28.1953 14.0727V11.8796H28.1908ZM27.2845 13.7555L27.2166 13.7827C24.2667 14.8747 21.1628 14.8657 18.222 13.7646V11.8615C18.222 11.1455 18.6389 10.5247 19.1917 10.4115C21.4256 9.96287 23.6958 9.94474 25.9297 10.3616L26.3013 10.4296C26.8586 10.5338 27.2845 11.1591 27.2845 11.8796V13.7555Z" fill="#0E4366"/>
</svg>
