<svg width="31" height="31" viewBox="0 0 31 31" fill="none" xmlns="http://www.w3.org/2000/svg">
<rect x="18" y="18" width="12" height="12" rx="6" fill="#9EC8FF"/>
<g clip-path="url(#clip0_11207_1554)">
<path d="M12.4813 21.0938C14.3818 21.0938 16.2397 20.5302 17.82 19.4744C19.4002 18.4185 20.6319 16.9177 21.3592 15.1618C22.0865 13.4059 22.2768 11.4738 21.906 9.60975C21.5352 7.74572 20.62 6.03349 19.2761 4.68959C17.4737 2.88885 15.03 1.87759 12.4822 1.87817C9.93438 1.87876 7.49109 2.89112 5.68952 4.69269C3.88795 6.49426 2.87558 8.93754 2.875 11.4853C2.87442 14.0332 3.88567 16.4769 5.68641 18.2793C6.57665 19.1744 7.63558 19.8841 8.80192 20.3672C9.96826 20.8503 11.2188 21.0973 12.4813 21.0938ZM6.34932 5.3525C7.5621 4.13971 9.10728 3.3138 10.7895 2.97919C12.4716 2.64458 14.2153 2.81631 15.7998 3.47267C17.3844 4.12902 18.7388 5.24052 19.6917 6.6666C20.6445 8.09268 21.1531 9.7693 21.1531 11.4844C21.1531 13.1996 20.6445 14.8762 19.6917 16.3023C18.7388 17.7284 17.3844 18.8398 15.7998 19.4962C14.2153 20.1526 12.4716 20.3243 10.7895 19.9897C9.10728 19.6551 7.5621 18.8292 6.34932 17.6164C5.54082 16.8129 4.89919 15.8575 4.46135 14.8052C4.02351 13.7528 3.7981 12.6242 3.7981 11.4844C3.7981 10.3446 4.02351 9.21606 4.46135 8.16369C4.89919 7.11133 5.54082 6.15593 6.34932 5.3525Z" fill="#0E4366"/>
<path d="M9.4774 11.0156H8.5C8.37568 11.0156 8.25645 11.065 8.16854 11.1529C8.08064 11.2408 8.03125 11.3601 8.03125 11.4844C8.03125 11.6087 8.08064 11.7279 8.16854 11.8158C8.25645 11.9037 8.37568 11.9531 8.5 11.9531H9.4774C9.57761 12.5903 9.87731 13.1793 10.3334 13.6354C10.7895 14.0914 11.3785 14.3911 12.0156 14.4914V15.4688C12.0156 15.5931 12.065 15.7123 12.1529 15.8002C12.2408 15.8881 12.3601 15.9375 12.4844 15.9375C12.6087 15.9375 12.7279 15.8881 12.8158 15.8002C12.9037 15.7123 12.9531 15.5931 12.9531 15.4688V14.4914C13.5903 14.3911 14.1793 14.0914 14.6354 13.6354C15.0914 13.1793 15.3911 12.5903 15.4914 11.9531H16.4688C16.5931 11.9531 16.7123 11.9037 16.8002 11.8158C16.8881 11.7279 16.9375 11.6087 16.9375 11.4844C16.9375 11.3601 16.8881 11.2408 16.8002 11.1529C16.7123 11.065 16.5931 11.0156 16.4688 11.0156H15.4914C15.3911 10.3785 15.0914 9.78948 14.6354 9.33339C14.1793 8.87731 13.5903 8.57761 12.9531 8.4774V7.5C12.9531 7.37568 12.9037 7.25645 12.8158 7.16854C12.7279 7.08064 12.6087 7.03125 12.4844 7.03125C12.3601 7.03125 12.2408 7.08064 12.1529 7.16854C12.065 7.25645 12.0156 7.37568 12.0156 7.5V8.4774C11.3785 8.57761 10.7895 8.87731 10.3334 9.33339C9.87731 9.78948 9.57761 10.3785 9.4774 11.0156ZM12.9531 9.42907C13.34 9.51754 13.6941 9.71333 13.9748 9.99397C14.2554 10.2746 14.4512 10.6287 14.5397 11.0156H12.9531V9.42907ZM12.9531 11.9531H14.5397C14.4512 12.34 14.2554 12.6941 13.9748 12.9748C13.6941 13.2554 13.34 13.4512 12.9531 13.5397V11.9531ZM12.0156 9.42907V11.0156H10.4291C10.5175 10.6287 10.7133 10.2746 10.994 9.99397C11.2746 9.71333 11.6287 9.51754 12.0156 9.42907ZM12.0156 11.9531V13.5397C11.6287 13.4512 11.2746 13.2554 10.994 12.9748C10.7133 12.6941 10.5175 12.34 10.4291 11.9531H12.0156Z" fill="#0E4366"/>
<path d="M17.6688 13.5938C17.5445 13.5938 17.4252 13.6431 17.3373 13.7311C17.2494 13.819 17.2 13.9382 17.2 14.0625V16.2H15.0625C14.9382 16.2 14.819 16.2494 14.731 16.3373C14.6431 16.4252 14.5938 16.5445 14.5938 16.6688C14.5938 16.7931 14.6431 16.9123 14.731 17.0002C14.819 17.0881 14.9382 17.1375 15.0625 17.1375H17.6688C17.7931 17.1375 17.9123 17.0881 18.0002 17.0002C18.0881 16.9123 18.1375 16.7931 18.1375 16.6688V14.0625C18.1375 13.9382 18.0881 13.819 18.0002 13.7311C17.9123 13.6431 17.7931 13.5938 17.6688 13.5938Z" fill="#0E4366"/>
<path d="M15.0625 6.7688H17.2V8.90633C17.2 9.03065 17.2494 9.14988 17.3373 9.23778C17.4252 9.32569 17.5445 9.37508 17.6688 9.37508C17.7931 9.37508 17.9123 9.32569 18.0002 9.23778C18.0881 9.14988 18.1375 9.03065 18.1375 8.90633V6.30005C18.1375 6.17573 18.0881 6.05651 18.0002 5.9686C17.9123 5.88069 17.7931 5.83131 17.6688 5.8313H15.0625C14.9382 5.8313 14.819 5.88068 14.731 5.96859C14.6431 6.0565 14.5938 6.17573 14.5938 6.30005C14.5938 6.42437 14.6431 6.5436 14.731 6.63151C14.819 6.71941 14.9382 6.7688 15.0625 6.7688Z" fill="#0E4366"/>
<path d="M7.29688 17.1375H9.90315C10.0275 17.1375 10.1467 17.0881 10.2346 17.0002C10.3225 16.9123 10.3719 16.7931 10.3719 16.6688C10.3719 16.5445 10.3225 16.4252 10.2346 16.3373C10.1467 16.2494 10.0275 16.2 9.90315 16.2H7.76562V14.0625C7.76562 13.9382 7.71624 13.819 7.62833 13.731C7.54042 13.6431 7.4212 13.5938 7.29688 13.5938C7.17255 13.5938 7.05333 13.6431 6.96542 13.731C6.87751 13.819 6.82812 13.9382 6.82812 14.0625V16.6688C6.82813 16.7931 6.87752 16.9123 6.96543 17.0002C7.05333 17.0881 7.17256 17.1375 7.29688 17.1375Z" fill="#0E4366"/>
<path d="M7.29688 9.37508C7.42119 9.37507 7.54042 9.32568 7.62832 9.23778C7.71623 9.14987 7.76562 9.03065 7.76562 8.90633V6.7688H9.90315C10.0275 6.7688 10.1467 6.71941 10.2346 6.63151C10.3225 6.5436 10.3719 6.42437 10.3719 6.30005C10.3719 6.17573 10.3225 6.0565 10.2346 5.96859C10.1467 5.88068 10.0275 5.8313 9.90315 5.8313H7.29688C7.17256 5.83131 7.05333 5.88069 6.96543 5.9686C6.87752 6.05651 6.82813 6.17573 6.82812 6.30005V8.90633C6.82813 9.03065 6.87752 9.14987 6.96543 9.23778C7.05333 9.32568 7.17256 9.37507 7.29688 9.37508Z" fill="#0E4366"/>
<path d="M30.5312 0C30.4069 6.21545e-06 30.2877 0.0493942 30.1998 0.137301C30.1119 0.225207 30.0625 0.344432 30.0625 0.46875V5.15625C30.0625 5.28057 30.1119 5.3998 30.1998 5.48771C30.2877 5.57561 30.4069 5.625 30.5312 5.625C30.6556 5.625 30.7748 5.57561 30.8627 5.48771C30.9506 5.3998 31 5.28057 31 5.15625V0.46875C31 0.344432 30.9506 0.225207 30.8627 0.137301C30.7748 0.0493942 30.6556 6.21545e-06 30.5312 0Z" fill="#0E4366"/>
<path d="M28.1875 0.46875V8.67188C28.1875 8.7962 28.2369 8.91542 28.3248 9.00333C28.4127 9.09124 28.5319 9.14062 28.6562 9.14062C28.7806 9.14062 28.8998 9.09124 28.9877 9.00333C29.0756 8.91542 29.125 8.7962 29.125 8.67188V0.46875C29.125 0.34443 29.0756 0.225201 28.9877 0.137294C28.8998 0.049386 28.7806 0 28.6562 0C28.5319 0 28.4127 0.049386 28.3248 0.137294C28.2369 0.225201 28.1875 0.34443 28.1875 0.46875Z" fill="#0E4366"/>
<path d="M26.3125 0.46875V5.15625C26.3125 5.28057 26.3619 5.3998 26.4498 5.48771C26.5377 5.57561 26.6569 5.625 26.7812 5.625C26.9056 5.625 27.0248 5.57561 27.1127 5.48771C27.2006 5.3998 27.25 5.28057 27.25 5.15625V0.46875C27.25 0.34443 27.2006 0.225201 27.1127 0.137294C27.0248 0.049386 26.9056 0 26.7812 0C26.6569 0 26.5377 0.049386 26.4498 0.137294C26.3619 0.225201 26.3125 0.34443 26.3125 0.46875Z" fill="#0E4366"/>
<path d="M1.46875 30C1.59307 30 1.71229 29.9506 1.8002 29.8627C1.88811 29.7748 1.93749 29.6556 1.9375 29.5312V24.8438C1.9375 24.7194 1.88811 24.6002 1.80021 24.5123C1.7123 24.4244 1.59307 24.375 1.46875 24.375C1.34443 24.375 1.2252 24.4244 1.13729 24.5123C1.04939 24.6002 1 24.7194 1 24.8438V29.5312C1.00001 29.6556 1.04939 29.7748 1.1373 29.8627C1.22521 29.9506 1.34443 30 1.46875 30Z" fill="#0E4366"/>
<path d="M2.875 21.3281V29.5312C2.875 29.6556 2.92439 29.7748 3.01229 29.8627C3.1002 29.9506 3.21943 30 3.34375 30C3.46807 30 3.5873 29.9506 3.67521 29.8627C3.76311 29.7748 3.8125 29.6556 3.8125 29.5312V21.3281C3.8125 21.2038 3.76311 21.0846 3.67521 20.9967C3.5873 20.9088 3.46807 20.8594 3.34375 20.8594C3.21943 20.8594 3.1002 20.9088 3.01229 20.9967C2.92439 21.0846 2.875 21.2038 2.875 21.3281Z" fill="#0E4366"/>
<path d="M4.75 24.8438V29.5312C4.75 29.6556 4.79939 29.7748 4.88729 29.8627C4.9752 29.9506 5.09443 30 5.21875 30C5.34307 30 5.4623 29.9506 5.55021 29.8627C5.63811 29.7748 5.6875 29.6556 5.6875 29.5312V24.8438C5.6875 24.7194 5.63811 24.6002 5.55021 24.5123C5.4623 24.4244 5.34307 24.375 5.21875 24.375C5.09443 24.375 4.9752 24.4244 4.88729 24.5123C4.79939 24.6002 4.75 24.7194 4.75 24.8438Z" fill="#0E4366"/>
<path d="M12.4844 22.9688C14.2761 22.9716 16.0433 22.5532 17.6436 21.7474L18.6825 22.7863C18.8924 22.9965 19.1628 23.1356 19.4558 23.1841C19.7488 23.2326 20.0497 23.188 20.316 23.0566L26.6991 29.4397C27.0579 29.7985 27.5445 30 28.0519 30C28.5593 30 29.046 29.7985 29.4048 29.4397L30.4397 28.4048C30.7979 28.0457 30.9991 27.5592 30.9991 27.0519C30.9991 26.5447 30.7979 26.0581 30.4397 25.6991L24.0526 19.312C24.1835 19.0465 24.2282 18.7467 24.1805 18.4546C24.1327 18.1625 23.9949 17.8925 23.7863 17.6825L22.7474 16.6436C23.973 14.205 24.2902 11.4096 23.6421 8.75838C22.9941 6.10715 21.4231 3.77335 19.2106 2.17516C16.9982 0.576969 14.289 -0.181151 11.5684 0.0366453C8.84781 0.254442 6.29369 1.43392 4.36371 3.36373C2.75758 4.96985 1.6638 7.01617 1.22067 9.24393C0.777546 11.4717 1.00498 13.7808 1.8742 15.8793C2.74343 17.9778 4.21542 19.7714 6.10402 21.0333C7.99262 22.2953 10.213 22.9688 12.4844 22.9688ZM28.6009 25.1861C28.6485 25.2809 28.6651 25.3883 28.6484 25.493C28.6317 25.5977 28.5825 25.6946 28.5079 25.7698L27.473 26.8047C27.4294 26.8483 27.3949 26.8999 27.3713 26.9568C27.3477 27.0137 27.3356 27.0746 27.3356 27.1362C27.3356 27.1978 27.3477 27.2587 27.3712 27.3156C27.3948 27.3725 27.4293 27.4242 27.4729 27.4677C27.5164 27.5112 27.5681 27.5457 27.625 27.5693C27.6818 27.5929 27.7428 27.605 27.8044 27.605C27.8659 27.605 27.9269 27.5928 27.9837 27.5692C28.0406 27.5457 28.0923 27.5111 28.1358 27.4676L29.1708 26.4327C29.2851 26.316 29.3785 26.1805 29.447 26.0322L29.7767 26.362C29.9597 26.545 30.0625 26.7931 30.0625 27.0519C30.0625 27.3107 29.9597 27.5589 29.7767 27.7418L28.7418 28.7767C28.6512 28.8673 28.5437 28.9392 28.4253 28.9883C28.3069 29.0373 28.18 29.0625 28.0519 29.0625C27.9238 29.0625 27.7969 29.0373 27.6785 28.9883C27.5601 28.9392 27.4526 28.8673 27.362 28.7767L21.0334 22.4482L21.9449 21.5367L23.8717 23.4635C23.9152 23.5072 23.9669 23.5418 24.0238 23.5655C24.0807 23.5892 24.1417 23.6014 24.2033 23.6014C24.2649 23.6015 24.326 23.5894 24.3829 23.5658C24.4399 23.5423 24.4916 23.5077 24.5352 23.4642C24.5788 23.4206 24.6133 23.3688 24.6369 23.3119C24.6604 23.2549 24.6725 23.1939 24.6725 23.1323C24.6724 23.0707 24.6602 23.0097 24.6365 22.9528C24.6129 22.8959 24.5782 22.8442 24.5345 22.8007L22.6077 20.8738L23.4481 20.0334L28.6009 25.1861ZM23.1234 18.3454C23.2145 18.4365 23.2657 18.5601 23.2657 18.6889C23.2657 18.8177 23.2145 18.9412 23.1234 19.0323L20.0323 22.1234C19.9412 22.2145 19.8177 22.2657 19.6889 22.2657C19.56 22.2657 19.4365 22.2145 19.3454 22.1234L18.4947 21.2726C20.0319 20.3259 21.3259 19.0319 22.2726 17.4947L23.1234 18.3454ZM5.02664 4.02665C6.50164 2.55164 8.38092 1.54715 10.4268 1.1402C12.4727 0.733244 14.5933 0.942108 16.5205 1.74038C18.4477 2.53864 20.0949 3.89046 21.2538 5.62489C22.4127 7.35931 23.0313 9.39844 23.0313 11.4844C23.0313 13.5704 22.4127 15.6095 21.2538 17.3439C20.0949 19.0784 18.4477 20.4302 16.5205 21.2285C14.5933 22.0267 12.4727 22.2356 10.4268 21.8286C8.38092 21.4217 6.50164 20.4172 5.02664 18.9422C4.04332 17.965 3.26295 16.8031 2.73044 15.5232C2.19793 14.2433 1.92378 12.8707 1.92378 11.4844C1.92378 10.0982 2.19793 8.72557 2.73044 7.44567C3.26295 6.16576 4.04332 5.0038 5.02664 4.02665Z" fill="#0E4366"/>
</g>
<defs>
<clipPath id="clip0_11207_1554">
<rect width="30" height="30" fill="white" transform="translate(1)"/>
</clipPath>
</defs>
</svg>
