<svg width="31" height="31" viewBox="0 0 31 31" fill="none" xmlns="http://www.w3.org/2000/svg">
<rect x="1" y="1" width="12" height="12" rx="6" fill="#9EC8FF"/>
<g clip-path="url(#clip0_11207_1641)">
<path d="M6.33437 8.74994H6.4175C6.51769 8.75036 6.61498 8.71639 6.69313 8.65369L8.84125 6.90369L8.29 6.22119L6.54 7.63869L6.31687 7.22744L5.54688 7.66494L6.02375 8.53994C6.05673 8.59578 6.1017 8.64359 6.15543 8.6799C6.20915 8.71622 6.27027 8.74015 6.33437 8.74994Z" fill="#0E4366"/>
<path d="M9.875 20.5625H4.625C4.50897 20.5625 4.39769 20.6086 4.31564 20.6906C4.23359 20.7727 4.1875 20.884 4.1875 21V25.375C4.1875 25.491 4.23359 25.6023 4.31564 25.6844C4.39769 25.7664 4.50897 25.8125 4.625 25.8125H9.875C9.99103 25.8125 10.1023 25.7664 10.1844 25.6844C10.2664 25.6023 10.3125 25.491 10.3125 25.375V21C10.3125 20.884 10.2664 20.7727 10.1844 20.6906C10.1023 20.6086 9.99103 20.5625 9.875 20.5625ZM9.4375 24.9375H5.0625V21.4375H9.4375V24.9375Z" fill="#0E4366"/>
<path d="M9.875 4.8125H4.625C4.50897 4.8125 4.39769 4.85859 4.31564 4.94064C4.23359 5.02269 4.1875 5.13397 4.1875 5.25V9.625C4.1875 9.74103 4.23359 9.85231 4.31564 9.93436C4.39769 10.0164 4.50897 10.0625 4.625 10.0625H9.875C9.99103 10.0625 10.1023 10.0164 10.1844 9.93436C10.2664 9.85231 10.3125 9.74103 10.3125 9.625V5.25C10.3125 5.13397 10.2664 5.02269 10.1844 4.94064C10.1023 4.85859 9.99103 4.8125 9.875 4.8125ZM9.4375 9.1875H5.0625V5.6875H9.4375V9.1875Z" fill="#0E4366"/>
<path d="M6.33437 16.6249H6.4175C6.51769 16.6254 6.61498 16.5914 6.69313 16.5287L8.84125 14.7787L8.29 14.0962L6.54 15.5137L6.31687 15.1024L5.54688 15.5399L6.02375 16.4149C6.05673 16.4708 6.1017 16.5186 6.15543 16.5549C6.20915 16.5912 6.27027 16.6151 6.33437 16.6249Z" fill="#0E4366"/>
<path d="M9.875 12.6875H4.625C4.50897 12.6875 4.39769 12.7336 4.31564 12.8156C4.23359 12.8977 4.1875 13.009 4.1875 13.125V17.5C4.1875 17.616 4.23359 17.7273 4.31564 17.8094C4.39769 17.8914 4.50897 17.9375 4.625 17.9375H9.875C9.99103 17.9375 10.1023 17.8914 10.1844 17.8094C10.2664 17.7273 10.3125 17.616 10.3125 17.5V13.125C10.3125 13.009 10.2664 12.8977 10.1844 12.8156C10.1023 12.7336 9.99103 12.6875 9.875 12.6875ZM9.4375 17.0625H5.0625V13.5625H9.4375V17.0625Z" fill="#0E4366"/>
<path d="M6.63688 24.4257L7.25375 23.8045L7.87062 24.4257L8.49187 23.8045L7.87062 23.1876L8.49187 22.5707L7.87062 21.9495L7.25375 22.5707L6.63688 21.9495L6.01562 22.5707L6.63688 23.1876L6.01562 23.8045L6.63688 24.4257Z" fill="#0E4366"/>
<path d="M13.375 5.6875H19.0625V6.5625H13.375V5.6875Z" fill="#0E4366"/>
<path d="M11.1875 8.3125H19.0625V9.1875H11.1875V8.3125Z" fill="#0E4366"/>
<path d="M13.375 21.4375H19.0625V22.3125H13.375V21.4375Z" fill="#0E4366"/>
<path d="M11.1875 24.0625H19.0625V24.9375H11.1875V24.0625Z" fill="#0E4366"/>
<path d="M23.4375 7.4375C22.5287 7.43819 21.6316 7.64303 20.8125 8.03688V2.625C20.8125 2.50897 20.7664 2.39769 20.6844 2.31564C20.6023 2.23359 20.491 2.1875 20.375 2.1875H15.125V0.875C15.125 0.758968 15.0789 0.647688 14.9969 0.565641C14.9148 0.483594 14.8035 0.4375 14.6875 0.4375H8.5625C8.44647 0.4375 8.33519 0.483594 8.25314 0.565641C8.17109 0.647688 8.125 0.758968 8.125 0.875V2.1875H2.875C2.75897 2.1875 2.64769 2.23359 2.56564 2.31564C2.48359 2.39769 2.4375 2.50897 2.4375 2.625V27.125C2.4375 27.241 2.48359 27.3523 2.56564 27.4344C2.64769 27.5164 2.75897 27.5625 2.875 27.5625H20.375C20.491 27.5625 20.6023 27.5164 20.6844 27.4344C20.7664 27.3523 20.8125 27.241 20.8125 27.125V19.0881C21.498 19.4224 22.2399 19.6256 23 19.6875V21.4375H22.5625C22.4465 21.4375 22.3352 21.4836 22.2531 21.5656C22.1711 21.6477 22.125 21.759 22.125 21.875V26.25C22.125 26.5981 22.2633 26.9319 22.5094 27.1781C22.7556 27.4242 23.0894 27.5625 23.4375 27.5625C23.7856 27.5625 24.1194 27.4242 24.3656 27.1781C24.6117 26.9319 24.75 26.5981 24.75 26.25V21.875C24.75 21.759 24.7039 21.6477 24.6219 21.5656C24.5398 21.4836 24.4285 21.4375 24.3125 21.4375H23.875V19.6875C25.4995 19.6295 27.0343 18.9285 28.142 17.7388C29.2496 16.5492 29.8393 14.9682 29.7812 13.3438C29.7232 11.7193 29.0223 10.1844 27.8326 9.07679C26.6429 7.96915 25.062 7.37948 23.4375 7.4375ZM9 1.3125H14.25V3.0625H9V1.3125ZM19.9375 26.6875H3.3125V3.0625H8.125V3.5C8.125 3.61603 8.17109 3.72731 8.25314 3.80936C8.33519 3.89141 8.44647 3.9375 8.5625 3.9375H14.6875C14.8035 3.9375 14.9148 3.89141 14.9969 3.80936C15.0789 3.72731 15.125 3.61603 15.125 3.5V3.0625H19.9375V8.54438C19.1284 9.10778 18.4672 9.85819 18.0102 10.7318C17.5532 11.6055 17.3138 12.5765 17.3125 13.5625H13.375V14.4375H17.3825C17.4695 15.0442 17.648 15.6343 17.9119 16.1875H11.1875V17.0625H18.4194C18.8321 17.654 19.346 18.1679 19.9375 18.5806V26.6875ZM23.875 26.25C23.875 26.366 23.8289 26.4773 23.7469 26.5594C23.6648 26.6414 23.5535 26.6875 23.4375 26.6875C23.3215 26.6875 23.2102 26.6414 23.1281 26.5594C23.0461 26.4773 23 26.366 23 26.25V22.3125H23.875V26.25ZM23.4375 18.8125C22.3991 18.8125 21.3841 18.5046 20.5208 17.9277C19.6574 17.3508 18.9845 16.5309 18.5871 15.5716C18.1898 14.6123 18.0858 13.5567 18.2884 12.5383C18.4909 11.5199 18.991 10.5844 19.7252 9.85019C20.4594 9.11596 21.3949 8.61595 22.4133 8.41338C23.4317 8.21081 24.4873 8.31477 25.4466 8.71213C26.4059 9.10949 27.2258 9.7824 27.8027 10.6458C28.3796 11.5091 28.6875 12.5241 28.6875 13.5625C28.6875 14.9549 28.1344 16.2902 27.1498 17.2748C26.1652 18.2594 24.8299 18.8125 23.4375 18.8125Z" fill="#0E4366"/>
<path d="M23.4375 9.1875C22.5722 9.1875 21.7263 9.44409 21.0069 9.92482C20.2874 10.4056 19.7267 11.0888 19.3955 11.8883C19.0644 12.6877 18.9778 13.5674 19.1466 14.416C19.3154 15.2647 19.7321 16.0442 20.3439 16.6561C20.9558 17.2679 21.7353 17.6846 22.584 17.8534C23.4326 18.0222 24.3123 17.9356 25.1117 17.6045C25.9112 17.2733 26.5945 16.7126 27.0752 15.9931C27.5559 15.2737 27.8125 14.4278 27.8125 13.5625C27.8125 12.4022 27.3516 11.2894 26.5311 10.4689C25.7106 9.64844 24.5978 9.1875 23.4375 9.1875ZM23.4375 17.0625C22.7453 17.0625 22.0686 16.8572 21.493 16.4726C20.9174 16.0881 20.4688 15.5414 20.2039 14.9019C19.939 14.2624 19.8697 13.5586 20.0048 12.8797C20.1398 12.2008 20.4731 11.5771 20.9626 11.0876C21.4521 10.5981 22.0758 10.2648 22.7547 10.1298C23.4336 9.9947 24.1374 10.064 24.7769 10.3289C25.4164 10.5938 25.9631 11.0424 26.3476 11.618C26.7322 12.1936 26.9375 12.8703 26.9375 13.5625C26.9375 14.4908 26.5688 15.381 25.9124 16.0374C25.256 16.6938 24.3658 17.0625 23.4375 17.0625Z" fill="#0E4366"/>
</g>
<defs>
<clipPath id="clip0_11207_1641">
<rect width="28" height="28" fill="white" transform="translate(2)"/>
</clipPath>
</defs>
</svg>
