<svg width="32" height="31" viewBox="0 0 32 31" fill="none" xmlns="http://www.w3.org/2000/svg">
<g clip-path="url(#clip0_11207_1572)">
<rect x="4" y="1" width="12" height="12" rx="6" fill="#9EC8FF"/>
<g clip-path="url(#clip1_11207_1572)">
<mask id="mask0_11207_1572" style="mask-type:luminance" maskUnits="userSpaceOnUse" x="0" y="0" width="31" height="31">
<path d="M30.5 30.5V0.5H0.5V30.5H30.5Z" fill="white" stroke="white"/>
</mask>
<g mask="url(#mask0_11207_1572)">
<path d="M10.1641 16.3264V12.5674C10.1641 12.0524 10.5816 11.6349 11.0966 11.6349H19.9059C20.421 11.6349 20.8385 12.0524 20.8385 12.5674V18.9065C20.8385 19.4215 20.421 19.8391 19.9059 19.8391H11.0966C10.5816 19.8391 10.1641 19.4215 10.1641 18.9065V18.4427" stroke="#0E4366" stroke-miterlimit="10" stroke-linecap="round" stroke-linejoin="round"/>
<path d="M19.4472 15.4385H11.5553C10.787 15.4385 10.1641 14.8156 10.1641 14.0472V12.5673C10.1641 12.0523 10.5815 11.6347 11.0966 11.6347H19.9059C20.421 11.6347 20.8385 12.0523 20.8385 12.5673V14.0472C20.8385 14.8156 20.2156 15.4385 19.4472 15.4385Z" stroke="#0E4366" stroke-miterlimit="10" stroke-linecap="round" stroke-linejoin="round"/>
<path d="M12.8359 14.8533V16.1047" stroke="#0E4366" stroke-miterlimit="10" stroke-linecap="round" stroke-linejoin="round"/>
<path d="M18.1719 14.8533V16.1047" stroke="#0E4366" stroke-miterlimit="10" stroke-linecap="round" stroke-linejoin="round"/>
<path d="M17.294 11.6348H13.7031V11.0323C13.7031 10.3409 14.2636 9.7804 14.9549 9.7804H16.0422C16.7335 9.7804 17.294 10.3409 17.294 11.0323V11.6348Z" stroke="#0E4366" stroke-miterlimit="10" stroke-linecap="round" stroke-linejoin="round"/>
<path d="M15.3488 0.496379L13.2237 3.40438C13.1338 3.52748 13.2216 3.70058 13.3741 3.70058H14.0668V7.10398C14.0668 7.20685 14.1502 7.29028 14.2531 7.29028H16.7453C16.8482 7.29028 16.9317 7.20685 16.9317 7.10398V3.70058H17.6243C17.7768 3.70058 17.8646 3.52748 17.7746 3.40438L15.6496 0.496379C15.5752 0.39454 15.4232 0.39454 15.3488 0.496379Z" stroke="#0E4366" stroke-miterlimit="10" stroke-linecap="round" stroke-linejoin="round"/>
<path d="M15.3488 30.5035L13.2237 27.5954C13.1338 27.4724 13.2216 27.2993 13.3741 27.2993H14.0668V23.8959C14.0668 23.793 14.1502 23.7096 14.2531 23.7096H16.7453C16.8482 23.7096 16.9317 23.793 16.9317 23.8959V27.2993H17.6243C17.7768 27.2993 17.8646 27.4724 17.7746 27.5954L15.6496 30.5035C15.5752 30.6053 15.4232 30.6053 15.3488 30.5035Z" stroke="#0E4366" stroke-miterlimit="10" stroke-linecap="round" stroke-linejoin="round"/>
<path d="M4.78352 4.99723L5.33716 8.55617C5.36053 8.70681 5.54514 8.76706 5.65291 8.65922L6.14268 8.16952L8.54929 10.5761C8.62201 10.6488 8.74002 10.6488 8.81273 10.5761L10.575 8.81374C10.6477 8.74102 10.6477 8.62308 10.575 8.55036L8.16845 6.14374L8.65822 5.65398C8.76599 5.54615 8.70575 5.3616 8.55517 5.33817L4.99622 4.78453C4.87162 4.76515 4.76415 4.87262 4.78352 4.99723Z" stroke="#0E4366" stroke-miterlimit="10" stroke-linecap="round" stroke-linejoin="round"/>
<path d="M26.0084 26.2155L22.4494 25.6619C22.2988 25.6385 22.2386 25.4539 22.3464 25.3461L22.8361 24.8563L20.4295 22.4497C20.3568 22.377 20.3568 22.259 20.4295 22.1863L22.1919 20.424C22.2646 20.3513 22.3825 20.3513 22.4553 20.424L24.8619 22.8306L25.3516 22.3408C25.4595 22.233 25.644 22.2933 25.6674 22.4439L26.2211 26.0028C26.2405 26.1274 26.133 26.2349 26.0084 26.2155Z" stroke="#0E4366" stroke-miterlimit="10" stroke-linecap="round" stroke-linejoin="round"/>
<path d="M0.498255 15.6505L3.40626 17.7756C3.52935 17.8655 3.70246 17.7776 3.70246 17.6252V16.9325H7.10586C7.20873 16.9325 7.29216 16.8491 7.29216 16.7462V14.254C7.29216 14.151 7.20873 14.0676 7.10586 14.0676H3.70246V13.375C3.70246 13.2225 3.52935 13.1346 3.40626 13.2246L0.498255 15.3496C0.396415 15.4241 0.396415 15.5761 0.498255 15.6505Z" stroke="#0E4366" stroke-miterlimit="10" stroke-linecap="round" stroke-linejoin="round"/>
<path d="M30.5048 15.6505L27.5968 17.7756C27.4737 17.8655 27.3006 17.7776 27.3006 17.6252V16.9325H23.8972C23.7944 16.9325 23.7109 16.8491 23.7109 16.7462V14.254C23.7109 14.151 23.7944 14.0676 23.8972 14.0676H27.3006V13.375C27.3006 13.2225 27.4737 13.1346 27.5968 13.2246L30.5048 15.3496C30.6067 15.4241 30.6067 15.5761 30.5048 15.6505Z" stroke="#0E4366" stroke-miterlimit="10" stroke-linecap="round" stroke-linejoin="round"/>
<path d="M4.99622 26.2155L8.55517 25.6619C8.70581 25.6385 8.76605 25.4539 8.65822 25.3461L8.16852 24.8563L10.5751 22.4497C10.6478 22.377 10.6478 22.259 10.5751 22.1863L8.81273 20.424C8.74002 20.3513 8.62207 20.3513 8.54936 20.424L6.14274 22.8306L5.65297 22.3408C5.54514 22.233 5.36059 22.2933 5.33716 22.4439L4.78352 26.0028C4.76415 26.1274 4.87162 26.2349 4.99622 26.2155Z" stroke="#0E4366" stroke-miterlimit="10" stroke-linecap="round" stroke-linejoin="round"/>
<path d="M22.8699 10.1615L22.4553 10.5761C22.3825 10.6488 22.2646 10.6488 22.1919 10.5761L20.4295 8.81374C20.3568 8.74102 20.3568 8.62308 20.4295 8.55036L22.8361 6.14374L22.3464 5.65398C22.2386 5.54615 22.2988 5.3616 22.4494 5.33817L26.0084 4.78453C26.133 4.76515 26.2405 4.87262 26.2211 4.99723L25.6674 8.55617C25.644 8.70681 25.4595 8.76706 25.3516 8.65922L24.8619 8.16952L24.3338 8.69755" stroke="#0E4366" stroke-miterlimit="10" stroke-linecap="round" stroke-linejoin="round"/>
</g>
</g>
</g>
<defs>
<clipPath id="clip0_11207_1572">
<rect width="32" height="31" fill="white"/>
</clipPath>
<clipPath id="clip1_11207_1572">
<rect width="31" height="31" fill="white"/>
</clipPath>
</defs>
</svg>
