<svg width="31" height="31" viewBox="0 0 31 31" fill="none" xmlns="http://www.w3.org/2000/svg">
<path d="M14.0618 14.8709H6.10547C5.91277 14.8709 5.72797 14.7943 5.59171 14.6581C5.45545 14.5218 5.37891 14.337 5.37891 14.1443V6.1875C5.37891 5.9948 5.45545 5.81 5.59171 5.67374C5.72797 5.53749 5.91277 5.46094 6.10547 5.46094H14.0618C14.2545 5.46094 14.4393 5.53749 14.5756 5.67374C14.7118 5.81 14.7884 5.9948 14.7884 6.1875V14.1443C14.7884 14.337 14.7118 14.5218 14.5756 14.6581C14.4393 14.7943 14.2545 14.8709 14.0618 14.8709ZM6.83203 13.4178H13.3352V6.91406H6.83203V13.4178Z" fill="#0070C0"/>
<path d="M14.0618 25.575H6.10547C5.91277 25.575 5.72797 25.4985 5.59171 25.3622C5.45545 25.2259 5.37891 25.0411 5.37891 24.8484V16.8926C5.37891 16.6999 5.45545 16.5151 5.59171 16.3788C5.72797 16.2426 5.91277 16.166 6.10547 16.166H14.0618C14.2545 16.166 14.4393 16.2426 14.5756 16.3788C14.7118 16.5151 14.7884 16.6999 14.7884 16.8926V24.8484C14.7884 25.0411 14.7118 25.2259 14.5756 25.3622C14.4393 25.4985 14.2545 25.575 14.0618 25.575ZM6.83203 24.1219H13.3352V17.6191H6.83203V24.1219Z" fill="#0070C0"/>
<path d="M24.7684 25.575H16.8125C16.6198 25.575 16.435 25.4985 16.2987 25.3622C16.1625 25.2259 16.0859 25.0411 16.0859 24.8484V16.8926C16.0859 16.6999 16.1625 16.5151 16.2987 16.3788C16.435 16.2426 16.6198 16.166 16.8125 16.166H24.7684C24.9611 16.166 25.1459 16.2426 25.2821 16.3788C25.4184 16.5151 25.4949 16.6999 25.4949 16.8926V24.8484C25.4949 25.0411 25.4184 25.2259 25.2821 25.3622C25.1459 25.4985 24.9611 25.575 24.7684 25.575ZM17.5391 24.1219H24.0418V17.6191H17.5391V24.1219Z" fill="#0070C0"/>
<path d="M20.1801 15.1237C20.0819 15.1237 19.9847 15.1038 19.8943 15.0651C19.804 15.0265 19.7224 14.97 19.6546 14.8989C19.3731 14.6064 19.1566 14.2578 19.0191 13.8759L18.619 13.657C18.2234 13.7472 17.8133 13.753 17.4153 13.6739C17.316 13.6546 17.2219 13.6148 17.1389 13.557C17.0559 13.4992 16.9859 13.4247 16.9334 13.3383L16.1991 12.1322C16.1467 12.0459 16.1129 11.9496 16.0998 11.8496C16.0867 11.7495 16.0946 11.6478 16.123 11.5509C16.2351 11.1611 16.4284 10.7995 16.6902 10.4897L16.6796 10.0334C16.4038 9.73577 16.1939 9.3834 16.0634 8.99923C16.0304 8.9037 16.0176 8.80231 16.0259 8.70156C16.0343 8.6008 16.0635 8.5029 16.1119 8.41411L16.79 7.17556C16.8385 7.08674 16.9049 7.00902 16.9852 6.94738C17.0654 6.88574 17.1577 6.84154 17.256 6.81761C17.6499 6.72063 18.0598 6.70759 18.4591 6.77934L18.8466 6.54248C18.9662 6.15434 19.1666 5.79594 19.4347 5.4909C19.5013 5.41459 19.5831 5.35299 19.6748 5.31004C19.7665 5.26709 19.8662 5.24373 19.9675 5.24145L21.3794 5.209C21.4803 5.20842 21.5802 5.228 21.6734 5.26659C21.7666 5.30519 21.8511 5.36202 21.9219 5.43375C22.2031 5.72606 22.4197 6.07428 22.5574 6.45578L22.958 6.6752C23.3532 6.58581 23.7627 6.58004 24.1602 6.65825C24.26 6.67732 24.3546 6.71708 24.4381 6.77498C24.5215 6.83288 24.5919 6.90763 24.6446 6.9944L25.3794 8.19953C25.4318 8.28578 25.4657 8.38202 25.4789 8.48209C25.4921 8.58217 25.4843 8.68389 25.4559 8.78078C25.3437 9.17046 25.1502 9.53196 24.8883 9.84156L24.8989 10.2983C25.1747 10.5966 25.3841 10.9499 25.5136 11.3349C25.5466 11.4305 25.5593 11.532 25.5509 11.6328C25.5426 11.7336 25.5134 11.8316 25.4651 11.9205L24.787 13.159C24.7385 13.2476 24.6721 13.3251 24.5919 13.3866C24.5118 13.4481 24.4197 13.4921 24.3215 13.516C23.9275 13.6145 23.517 13.628 23.1174 13.5557L22.7299 13.7931C22.6103 14.1807 22.4103 14.5387 22.1428 14.8437C22.0763 14.9201 21.9946 14.9818 21.9028 15.0248C21.811 15.0677 21.7113 15.091 21.61 15.0932L20.1985 15.1261L20.1801 15.1237ZM20.4175 13.4792C20.4476 13.543 20.483 13.6043 20.5231 13.6623L21.2152 13.6463C21.2528 13.5865 21.2852 13.5236 21.3121 13.4584C21.2936 13.3187 21.3162 13.1767 21.377 13.0496C21.4378 12.9224 21.5342 12.8158 21.6546 12.7425L22.6795 12.1191C22.7999 12.0458 22.939 12.0091 23.0799 12.0135C23.2208 12.0179 23.3573 12.0632 23.4729 12.1438C23.5432 12.1497 23.6138 12.1497 23.6841 12.1438L24.0164 11.5359C23.9832 11.4739 23.9451 11.4146 23.9026 11.3586C23.7722 11.3048 23.6604 11.2142 23.5807 11.0979C23.5009 10.9817 23.4568 10.8447 23.4535 10.7037L23.4259 9.50443C23.4227 9.36349 23.4606 9.22465 23.5349 9.10485C23.6092 8.98504 23.7167 8.88944 23.8444 8.8297C23.8844 8.77186 23.9197 8.71096 23.95 8.64757L23.5901 8.05567C23.5196 8.05223 23.4489 8.05548 23.3789 8.06536C23.2672 8.15128 23.1329 8.20284 22.9924 8.21377C22.8518 8.22469 22.7112 8.1945 22.5875 8.12687L21.5349 7.55143C21.4113 7.48382 21.3099 7.3817 21.2433 7.25751C21.1766 7.13332 21.1475 6.99243 21.1595 6.852C21.1298 6.78809 21.0946 6.72684 21.0544 6.6689L20.3618 6.68489C20.3246 6.7447 20.2922 6.80738 20.2649 6.87234C20.2835 7.0121 20.261 7.15425 20.2002 7.28146C20.1394 7.40866 20.0429 7.51542 19.9224 7.58873L18.898 8.21212C18.7774 8.28553 18.6381 8.32225 18.4971 8.31777C18.356 8.3133 18.2193 8.26784 18.1036 8.18693C18.0335 8.18248 17.9631 8.18248 17.8929 8.18693L17.5606 8.79483C17.5939 8.85717 17.6323 8.91663 17.6754 8.97259C17.8057 9.02652 17.9175 9.1172 17.9972 9.23357C18.0768 9.34994 18.1209 9.48697 18.124 9.62795L18.1516 10.8268C18.1547 10.9676 18.1169 11.1063 18.0427 11.226C17.9685 11.3457 17.8611 11.4413 17.7336 11.501C17.6935 11.5592 17.658 11.6204 17.6275 11.6841L17.9879 12.276C18.0581 12.2771 18.1283 12.2737 18.1981 12.2659C18.3098 12.1798 18.4442 12.1281 18.5848 12.117C18.7255 12.106 18.8662 12.1362 18.99 12.2039L20.0421 12.7798C20.1658 12.8474 20.2671 12.9495 20.3337 13.0737C20.4004 13.1979 20.4295 13.3388 20.4175 13.4792ZM20.7851 12.152C20.482 12.1527 20.1828 12.0839 19.9103 11.951C19.6379 11.8181 19.3995 11.6246 19.2134 11.3854C19.0273 11.1461 18.8984 10.8674 18.8367 10.5707C18.7749 10.2739 18.7819 9.96695 18.8571 9.67332C18.9324 9.37968 19.0738 9.10716 19.2706 8.87663C19.4674 8.6461 19.7144 8.46368 19.9926 8.34335C20.2708 8.22302 20.5729 8.16797 20.8756 8.18241C21.1784 8.19686 21.4739 8.28042 21.7393 8.4267C22.1247 8.63928 22.4285 8.97383 22.6031 9.37783C22.7777 9.78182 22.8131 10.2324 22.7039 10.6587C22.5946 11.085 22.3468 11.463 21.9994 11.7332C21.652 12.0034 21.2247 12.1505 20.7846 12.1515L20.7851 12.152ZM20.789 9.63667C20.7068 9.63699 20.6258 9.65633 20.5523 9.69316C20.4788 9.73 20.4148 9.78334 20.3654 9.84901C20.316 9.91468 20.2824 9.9909 20.2673 10.0717C20.2522 10.1525 20.256 10.2357 20.2785 10.3148C20.3088 10.4149 20.3678 10.5038 20.4483 10.5705C20.5288 10.6373 20.6271 10.6789 20.7311 10.6901C20.835 10.7014 20.94 10.6818 21.0329 10.6339C21.1258 10.5859 21.2025 10.5117 21.2535 10.4204C21.3207 10.2968 21.3362 10.1516 21.2967 10.0166C21.2572 9.88156 21.166 9.76763 21.0428 9.69964C20.9652 9.65737 20.8783 9.63507 20.79 9.63473L20.789 9.63667Z" fill="#0070C0"/>
</svg>
