<svg width="31" height="31" viewBox="0 0 31 31" fill="none" xmlns="http://www.w3.org/2000/svg">
<g clip-path="url(#clip0_12378_1375)">
<path d="M27.5706 10.5924H19.2491V4.51353C19.2491 4.27618 19.0747 4.07275 18.8373 4.034C18.4256 3.97103 18.0333 3.92743 17.6603 3.89837V3.47212C17.6603 3.22993 17.4859 3.0265 17.2437 2.99259C13.2477 2.41618 10.9178 3.61259 10.1089 4.1454C9.30969 3.61743 6.97984 2.41134 2.96922 2.99259C2.73188 3.0265 2.5575 3.22993 2.5575 3.47212V3.89837C2.18938 3.92743 1.79703 3.97103 1.38047 4.034C1.14312 4.07275 0.96875 4.27618 0.96875 4.51353V13.7554C0.96875 13.8959 1.03172 14.0315 1.13828 14.1235C1.24 14.2156 1.38531 14.2592 1.52094 14.2349C2.77062 14.0557 3.97187 14.017 5.10047 14.1138V14.6418C5.10047 15.4507 5.49281 16.1676 6.09828 16.6132C5.49281 17.054 5.10047 17.7757 5.10047 18.5846V20.1734C5.10047 20.9823 5.49281 21.6992 6.09828 22.1448C5.49281 22.5856 5.10047 23.3073 5.10047 24.1162V25.7049C5.10047 27.0612 6.2 28.1607 7.55625 28.1607H27.5755C28.9269 28.1607 30.0312 27.0612 30.0312 25.7049V24.1162C30.0312 23.3073 29.6389 22.5904 29.0334 22.1448C29.6389 21.6992 30.0312 20.9774 30.0312 20.1734V18.5846C30.0312 17.7757 29.6389 17.0588 29.0334 16.6132C29.6389 16.1627 30.0312 15.4459 30.0312 14.6418V13.0531C30.0312 11.6968 28.9269 10.5924 27.5706 10.5924ZM16.6916 3.89353V11.2899C15.6841 11.1785 14.788 11.1834 14.0081 11.2657C13.8822 11.2754 13.7611 11.2899 13.6448 11.3045C13.5141 11.319 13.3881 11.3384 13.267 11.3577C13.1653 11.3771 13.0684 11.3965 12.9716 11.4159C12.4145 11.5224 11.9398 11.6629 11.533 11.8131C11.407 11.8615 11.2908 11.9051 11.1794 11.9535C11.1648 11.9584 11.1503 11.9632 11.1358 11.9729C11.068 12.002 11.0002 12.031 10.9372 12.0601C10.8064 12.1182 10.6902 12.1763 10.5884 12.2345V4.98821C11.16 4.60556 13.1653 3.4915 16.6916 3.89353ZM3.52625 3.89353C7.05734 3.4915 9.05297 4.60556 9.61969 4.98337V12.2345C9.5325 12.186 9.43563 12.1376 9.32906 12.0892C9.26609 12.0601 9.19828 12.0262 9.12562 11.9971C8.79625 11.8518 8.38937 11.7017 7.905 11.566L7.77422 11.537C7.70641 11.5176 7.63859 11.5031 7.59016 11.4934C7.44 11.4546 7.28016 11.4207 7.13969 11.3965C7.01375 11.3723 6.88297 11.3529 6.74734 11.3335L6.48094 11.2948C6.38891 11.2851 6.29688 11.2754 6.20484 11.2657C6.15156 11.256 6.11766 11.256 6.11281 11.256C5.9675 11.2463 5.82219 11.2318 5.68172 11.227C5.18766 11.1979 4.64516 11.2027 4.04453 11.2463C3.86531 11.2609 3.69578 11.2754 3.52625 11.2899V3.89353ZM3.89438 13.0918C3.255 13.0918 2.60594 13.1306 1.9375 13.2081V4.93493C2.15062 4.91071 2.35891 4.8865 2.5575 4.87196V11.8421C2.5575 11.9826 2.61562 12.1182 2.72219 12.2102C2.83359 12.3023 2.96922 12.341 3.11453 12.3217C3.43422 12.2732 3.76359 12.2393 4.11234 12.2102C4.66937 12.1715 5.15375 12.1667 5.63328 12.1957C5.76891 12.2006 5.89969 12.2102 6.03531 12.2199C6.05469 12.2248 6.07406 12.2296 6.09828 12.2296C6.18547 12.2345 6.2775 12.249 6.35984 12.2538L6.61172 12.2926C6.72797 12.3071 6.83453 12.3265 6.96047 12.3507C7.09609 12.3701 7.22203 12.3992 7.36734 12.4379C7.43031 12.4476 7.48844 12.4621 7.54656 12.4767L7.6725 12.5057C8.48141 12.7334 9.04812 13.0143 9.39203 13.2177C9.43563 13.242 9.47437 13.2613 9.5325 13.3049C9.55672 13.3195 9.57609 13.3292 9.59547 13.3437C9.60516 13.3485 9.61 13.3582 9.61969 13.3631V14.4093C9.51797 14.3512 9.40172 14.2931 9.28063 14.2301C8.84953 14.017 8.29734 13.7845 7.60953 13.5907C7.49813 13.5568 7.38188 13.5229 7.26078 13.4938C7.13969 13.4648 7.01859 13.4309 6.88781 13.4067C6.77156 13.3776 6.65047 13.3534 6.52453 13.3292C6.45188 13.3146 6.37922 13.3049 6.30656 13.2904C6.2 13.271 6.09344 13.2565 5.98688 13.242C5.87547 13.2226 5.75437 13.2081 5.63812 13.1935C5.61875 13.1935 5.60422 13.1887 5.58484 13.1887C5.0375 13.1257 4.47078 13.0918 3.89438 13.0918ZM29.0625 24.1162V25.7049C29.0625 26.5235 28.3941 27.192 27.5755 27.192H7.55625C6.73766 27.192 6.06922 26.5235 6.06922 25.7049V24.1162C6.06922 23.2927 6.73766 22.6292 7.55625 22.6292H27.5755C28.3941 22.6292 29.0625 23.2927 29.0625 24.1162ZM29.0625 18.5846V20.1734C29.0625 20.992 28.3941 21.6604 27.5755 21.6604H7.55625C6.73766 21.6604 6.06922 20.992 6.06922 20.1734V18.5846C6.06922 17.7612 6.73766 17.0976 7.55625 17.0976H27.5755C28.3941 17.0976 29.0625 17.7612 29.0625 18.5846ZM29.0625 14.6418C29.0625 15.4604 28.3941 16.124 27.5706 16.124H7.55625C6.73766 16.124 6.06922 15.4604 6.06922 14.6418V14.2349C6.22906 14.2592 6.38406 14.2882 6.52937 14.3173C6.81516 14.3802 7.08641 14.4481 7.33344 14.5159C7.48844 14.5643 7.63859 14.6079 7.77906 14.6563C7.90016 14.6999 8.01641 14.7435 8.12781 14.7823C8.23922 14.821 8.34094 14.8646 8.44266 14.9131C9.23703 15.2521 9.67781 15.5863 9.76984 15.659C9.78438 15.6687 9.78922 15.6735 9.78922 15.6735C9.80375 15.6881 9.82312 15.7026 9.8425 15.7123C9.86187 15.7268 9.88125 15.7365 9.90063 15.7462C9.90547 15.751 9.91031 15.751 9.91516 15.751C9.92484 15.7607 9.93453 15.7607 9.94906 15.7656C9.95875 15.7704 9.96359 15.7704 9.97328 15.7752C9.98781 15.7801 10.0072 15.7849 10.0217 15.7849C10.0459 15.7898 10.075 15.7946 10.1041 15.7946H10.1089C10.138 15.7946 10.167 15.7898 10.1913 15.7849H10.2058C10.2203 15.7801 10.23 15.7801 10.2397 15.7752C10.2639 15.7704 10.2881 15.7607 10.3075 15.751H10.3123C10.3269 15.7413 10.3366 15.7365 10.3511 15.7268C10.3559 15.7268 10.3608 15.722 10.3656 15.7171C10.385 15.7074 10.4092 15.6881 10.4286 15.6735C10.5933 15.5379 13.2767 13.4502 18.692 14.2349C18.8325 14.2592 18.973 14.2156 19.0795 14.1235C19.1861 14.0315 19.2491 13.8959 19.2491 13.7554V11.5612H27.5706C28.3941 11.5612 29.0625 12.2296 29.0625 13.0531V14.6418Z" fill="#0070C0"/>
<path d="M26.3206 12.5547C25.6086 12.5547 25.0273 13.1359 25.0273 13.848C25.0273 14.56 25.6086 15.1413 26.3206 15.1413C27.0375 15.1413 27.6139 14.56 27.6139 13.848C27.6139 13.1359 27.0375 12.5547 26.3206 12.5547Z" fill="#0070C0"/>
<path d="M22.7816 12.5547C22.0695 12.5547 21.4883 13.1359 21.4883 13.848C21.4883 14.56 22.0695 15.1413 22.7816 15.1413C23.4936 15.1413 24.0748 14.56 24.0748 13.848C24.0748 13.1359 23.4936 12.5547 22.7816 12.5547Z" fill="#0070C0"/>
<path d="M26.3206 18.0859C25.6086 18.0859 25.0273 18.6672 25.0273 19.3792C25.0273 20.0912 25.6086 20.6725 26.3206 20.6725C27.0375 20.6725 27.6139 20.0912 27.6139 19.3792C27.6139 18.6672 27.0375 18.0859 26.3206 18.0859Z" fill="#0070C0"/>
<path d="M22.7816 18.0859C22.0695 18.0859 21.4883 18.6672 21.4883 19.3792C21.4883 20.0912 22.0695 20.6725 22.7816 20.6725C23.4936 20.6725 24.0748 20.0912 24.0748 19.3792C24.0748 18.6672 23.4936 18.0859 22.7816 18.0859Z" fill="#0070C0"/>
<path d="M26.3206 26.2038C27.0375 26.2038 27.6139 25.6225 27.6139 24.9105C27.6139 24.1984 27.0375 23.6172 26.3206 23.6172C25.6086 23.6172 25.0273 24.1984 25.0273 24.9105C25.0273 25.6225 25.6086 26.2038 26.3206 26.2038Z" fill="#0070C0"/>
<path d="M22.7816 26.2038C23.4936 26.2038 24.0748 25.6225 24.0748 24.9105C24.0748 24.1984 23.4936 23.6172 22.7816 23.6172C22.0695 23.6172 21.4883 24.1984 21.4883 24.9105C21.4883 25.6225 22.0695 26.2038 22.7816 26.2038Z" fill="#0070C0"/>
</g>
<defs>
<clipPath id="clip0_12378_1375">
<rect width="31" height="31" fill="white"/>
</clipPath>
</defs>
</svg>
