<svg width="31" height="31" viewBox="0 0 31 31" fill="none" xmlns="http://www.w3.org/2000/svg">
<path d="M11.5636 14.5722H6.98719C6.19525 14.5712 5.43603 14.2562 4.87604 13.6962C4.31605 13.1362 4.00101 12.377 4 11.5851V7.00868C4.00101 6.21673 4.31605 5.45751 4.87604 4.89752C5.43603 4.33753 6.19525 4.02249 6.98719 4.02148H11.5636C12.3555 4.02249 13.1147 4.33753 13.6747 4.89752C14.2347 5.45751 14.5498 6.21673 14.5508 7.00868V11.5851C14.5498 12.377 14.2347 13.1362 13.6747 13.6962C13.1147 14.2562 12.3555 14.5712 11.5636 14.5722ZM6.98719 5.65086C6.62708 5.65086 6.28171 5.79392 6.02707 6.04856C5.77243 6.3032 5.62938 6.64856 5.62938 7.00868V11.5851C5.62938 11.9452 5.77243 12.2905 6.02707 12.5452C6.28171 12.7998 6.62708 12.9429 6.98719 12.9429H11.5636C11.9237 12.9429 12.269 12.7998 12.5237 12.5452C12.7783 12.2905 12.9214 11.9452 12.9214 11.5851V7.00868C12.9214 6.64856 12.7783 6.3032 12.5237 6.04856C12.269 5.79392 11.9237 5.65086 11.5636 5.65086H6.98719Z" fill="#0070C0"/>
<path d="M11.5636 26.5761H6.98719C6.19525 26.5751 5.43603 26.2601 4.87604 25.7001C4.31605 25.1401 4.00101 24.3809 4 23.589V19.0126C4.00101 18.2206 4.31605 17.4614 4.87604 16.9014C5.43603 16.3414 6.19525 16.0264 6.98719 16.0254H11.5636C12.3555 16.0264 13.1147 16.3414 13.6747 16.9014C14.2347 17.4614 14.5498 18.2206 14.5508 19.0126V23.589C14.5498 24.3809 14.2347 25.1401 13.6747 25.7001C13.1147 26.2601 12.3555 26.5751 11.5636 26.5761ZM6.98719 17.6548C6.62708 17.6548 6.28171 17.7978 6.02707 18.0525C5.77243 18.3071 5.62938 18.6525 5.62938 19.0126V23.589C5.62938 23.7673 5.6645 23.9438 5.73273 24.1086C5.80097 24.2733 5.90099 24.423 6.02707 24.5491C6.15316 24.6752 6.30284 24.7752 6.46758 24.8434C6.63232 24.9117 6.80888 24.9468 6.98719 24.9468H11.5636C11.7419 24.9468 11.9184 24.9117 12.0832 24.8434C12.2479 24.7752 12.3976 24.6752 12.5237 24.5491C12.6498 24.423 12.7498 24.2733 12.818 24.1086C12.8863 23.9438 12.9214 23.7673 12.9214 23.589V19.0126C12.9214 18.6525 12.7783 18.3071 12.5237 18.0525C12.269 17.7978 11.9237 17.6548 11.5636 17.6548H6.98719Z" fill="#0070C0"/>
<path d="M23.5669 26.5761H18.9911C18.1991 26.5753 17.4398 26.2603 16.8798 25.7003C16.3198 25.1402 16.0048 24.3809 16.0039 23.589V19.0126C16.0048 18.2206 16.3198 17.4613 16.8798 16.9013C17.4398 16.3413 18.1991 16.0263 18.9911 16.0254H23.5669C24.3589 16.0264 25.1181 16.3414 25.6781 16.9014C26.2381 17.4614 26.5531 18.2206 26.5541 19.0126V23.589C26.5531 24.3809 26.2381 25.1401 25.6781 25.7001C25.1181 26.2601 24.3589 26.5751 23.5669 26.5761ZM18.9911 17.6548C18.631 17.6548 18.2856 17.7978 18.031 18.0525C17.7763 18.3071 17.6333 18.6525 17.6333 19.0126V23.589C17.6333 23.7673 17.6684 23.9438 17.7366 24.1086C17.8049 24.2733 17.9049 24.423 18.031 24.5491C18.1571 24.6752 18.3067 24.7752 18.4715 24.8434C18.6362 24.9117 18.8128 24.9468 18.9911 24.9468H23.5669C23.7452 24.9468 23.9218 24.9117 24.0865 24.8434C24.2513 24.7752 24.401 24.6752 24.5271 24.5491C24.6531 24.423 24.7532 24.2733 24.8214 24.1086C24.8896 23.9438 24.9247 23.7673 24.9247 23.589V19.0126C24.9247 18.8343 24.8896 18.6577 24.8214 18.493C24.7532 18.3282 24.6531 18.1785 24.5271 18.0525C24.401 17.9264 24.2513 17.8264 24.0865 17.7581C23.9218 17.6899 23.7452 17.6548 23.5669 17.6548H18.9911Z" fill="#0070C0"/>
<path d="M16.8301 14.6585C16.7099 14.6585 16.5913 14.6319 16.4826 14.5806C16.374 14.5294 16.278 14.4547 16.2016 14.362C16.1252 14.2693 16.0703 14.1608 16.0407 14.0444C16.0111 13.928 16.0077 13.8064 16.0306 13.6885L16.6601 10.4537C16.6908 10.2943 16.7688 10.1478 16.8838 10.0333L22.3781 4.53847C22.7403 4.19284 23.2217 4 23.7223 4C24.223 4 24.7044 4.19284 25.0666 4.53847L26.1354 5.60789C26.4918 5.96436 26.692 6.44779 26.692 6.95185C26.692 7.45591 26.4918 7.93934 26.1354 8.29581L20.6412 13.7912C20.5263 13.906 20.3797 13.984 20.2202 14.0149L16.9859 14.6466C16.9345 14.6554 16.8823 14.6594 16.8301 14.6585ZM18.2118 11.0076L17.8604 12.8119L19.6652 12.461L24.9835 7.14222C25.0344 7.09129 25.063 7.02223 25.063 6.95022C25.063 6.87821 25.0344 6.80915 24.9835 6.75823L23.914 5.68935C23.8631 5.63861 23.7942 5.61012 23.7223 5.61012C23.6504 5.61012 23.5815 5.63861 23.5306 5.68935L18.2118 11.0076Z" fill="#0070C0"/>
<path d="M24.2691 9.82488C24.1622 9.82497 24.0562 9.8039 23.9574 9.76288C23.8586 9.72187 23.7689 9.66172 23.6934 9.58591L21.0864 6.9789C21.0108 6.90326 20.9507 6.81346 20.9097 6.71462C20.8688 6.61578 20.8477 6.50984 20.8477 6.40284C20.8476 6.29584 20.8687 6.18989 20.9096 6.09103C20.9505 5.99217 21.0105 5.90234 21.0862 5.82666C21.2389 5.67383 21.4461 5.58794 21.6622 5.58789C21.7692 5.58787 21.8752 5.60891 21.974 5.64984C22.0729 5.69076 22.1627 5.75075 22.2384 5.82639L24.8454 8.43339C24.9594 8.54733 25.0371 8.69253 25.0685 8.85061C25.1 9.00869 25.0839 9.17256 25.0222 9.32147C24.9605 9.47038 24.856 9.59764 24.722 9.68716C24.5879 9.77667 24.4303 9.82496 24.2691 9.82488Z" fill="#0070C0"/>
</svg>
