<svg width="32" height="32" viewBox="0 0 32 32" fill="none" xmlns="http://www.w3.org/2000/svg">
<path d="M2.2725 6.29113H12.8331C13.5694 6.29113 14.1681 6.88988 14.1681 7.62613V18.4018C15.2131 17.6549 16.4531 17.2174 17.7344 17.1568H17.735C17.7369 17.1568 17.7388 17.1568 17.7406 17.1561V17.1568C17.8006 17.1543 17.8619 17.1655 17.9181 17.1918L21.1975 18.7411L24.4769 17.1918C24.5331 17.1655 24.5938 17.1536 24.6537 17.1568V17.1561C26.38 17.2336 27.9944 17.9761 29.1994 19.2474C30.4006 20.5136 31.0625 22.163 31.0625 23.8911V25.278C31.0625 26.0699 30.4181 26.7149 29.6256 26.7149H12.7687C11.9769 26.7149 11.3319 26.0705 11.3319 25.278V23.8911C11.3319 23.8211 11.3331 23.7511 11.3356 23.6811H2.2725C1.53625 23.6811 0.9375 23.0824 0.9375 22.3461V7.62613C0.9375 6.88988 1.53625 6.29113 2.2725 6.29113ZM18.1331 18.123V20.1893L20.32 19.1561L18.1331 18.123ZM21.1975 19.5711L20.2188 20.0336L19.88 25.9655H22.515L22.1763 20.0336L21.1975 19.5711ZM24.2619 18.123L22.075 19.1561L24.2619 20.1893V18.123ZM30.3125 25.2786V23.8918C30.3125 20.8649 27.9688 18.2736 25.0119 17.9374V20.7818C25.0119 20.9105 24.9462 21.0299 24.8375 21.0986C24.7762 21.1374 24.7069 21.1568 24.6369 21.1568C24.5825 21.1568 24.5275 21.1449 24.4769 21.1205L22.9481 20.398L23.2662 25.9649H26.5319V23.6343C26.5319 23.4274 26.7 23.2593 26.9069 23.2593C27.1138 23.2593 27.2819 23.4274 27.2819 23.6343V25.9649H29.6256C30.0044 25.9649 30.3125 25.6568 30.3125 25.2786ZM12.0819 23.8911V25.278C12.0819 25.6568 12.39 25.9649 12.7687 25.9649H15.1125V23.6343C15.1125 23.4274 15.2806 23.2593 15.4875 23.2593C15.6944 23.2593 15.8625 23.4274 15.8625 23.6343V25.9649H19.1281L19.4462 20.398L17.9175 21.1205C17.8669 21.1443 17.8119 21.1568 17.7575 21.1568C17.6875 21.1568 17.6175 21.1374 17.5569 21.0986C17.4481 21.0299 17.3825 20.9105 17.3825 20.7818V17.9386C16.2013 18.0736 15.0769 18.568 14.1675 19.3555V22.3468C14.1675 23.083 13.5688 23.6818 12.8325 23.6818H12.0869C12.0844 23.7518 12.0819 23.8218 12.0819 23.8911ZM1.6875 22.3461C1.6875 22.6686 1.95 22.9311 2.2725 22.9311H12.8331C13.1556 22.9311 13.4181 22.6686 13.4181 22.3461V7.62613C13.4181 7.30363 13.1556 7.04113 12.8331 7.04113H2.2725C1.95 7.04113 1.6875 7.30363 1.6875 7.62613V22.3461ZM8.86188 9.18551L10.8731 11.6543C10.9444 11.7418 11.0513 11.7924 11.1637 11.7924C11.1644 11.7924 11.165 11.7924 11.1656 11.7924C11.2787 11.7918 11.3862 11.7399 11.4569 11.6518L12.4625 10.3943C12.5919 10.2324 12.5656 9.99676 12.4037 9.86738C12.2419 9.73801 12.0063 9.76426 11.8769 9.92613L11.1612 10.8205L9.44312 8.71176C9.3125 8.55113 9.07625 8.52738 8.91562 8.65801C8.755 8.78863 8.73063 9.02488 8.86188 9.18551ZM9.33312 19.1743L10.125 19.9661L9.33312 20.758C9.18687 20.9043 9.18687 21.1418 9.33312 21.288C9.40625 21.3611 9.5025 21.398 9.59813 21.398C9.69438 21.398 9.79 21.3611 9.86312 21.288L10.655 20.4961L11.4469 21.288C11.52 21.3611 11.6163 21.398 11.7119 21.398C11.8075 21.398 11.9037 21.3611 11.9769 21.288C12.1231 21.1418 12.1231 20.9043 11.9769 20.758L11.185 19.9661L11.9769 19.1743C12.1231 19.028 12.1231 18.7905 11.9769 18.6443C11.8306 18.498 11.5931 18.498 11.4463 18.6443L10.6544 19.4361L9.8625 18.6443C9.71625 18.498 9.47875 18.498 9.33187 18.6443C9.18625 18.7905 9.18625 19.028 9.33312 19.1743ZM8.86188 13.8261L10.8731 16.2949C10.9444 16.3824 11.0513 16.433 11.1637 16.433C11.1644 16.433 11.165 16.433 11.1656 16.433C11.2787 16.4324 11.3862 16.3805 11.4569 16.2924L12.4625 15.0349C12.5919 14.873 12.5656 14.6374 12.4037 14.508C12.2419 14.3786 12.0063 14.4049 11.8769 14.5668L11.1612 15.4611L9.44312 13.3524C9.3125 13.1918 9.07625 13.168 8.91562 13.2986C8.755 13.4293 8.73063 13.6655 8.86188 13.8261ZM2.56063 9.52051C2.56063 9.72738 2.72875 9.89551 2.93563 9.89551H7.34687C7.55375 9.89551 7.72187 9.72738 7.72187 9.52051C7.72187 9.31363 7.55375 9.14551 7.34687 9.14551H2.93563C2.72875 9.14551 2.56063 9.31301 2.56063 9.52051ZM2.56063 14.1605C2.56063 14.3674 2.72875 14.5355 2.93563 14.5355H7.34687C7.55375 14.5355 7.72187 14.3674 7.72187 14.1605C7.72187 13.9536 7.55375 13.7855 7.34687 13.7855H2.93563C2.72875 13.7855 2.56063 13.9536 2.56063 14.1605ZM7.7225 11.0061C7.7225 10.7993 7.55437 10.6311 7.3475 10.6311H4.17063C3.96375 10.6311 3.79563 10.7993 3.79563 11.0061C3.79563 11.213 3.96375 11.3811 4.17063 11.3811H7.3475C7.55437 11.3811 7.7225 11.213 7.7225 11.0061ZM7.7225 15.6461C7.7225 15.4393 7.55437 15.2711 7.3475 15.2711H4.17063C3.96375 15.2711 3.79563 15.4393 3.79563 15.6461C3.79563 15.853 3.96375 16.0211 4.17063 16.0211H7.3475C7.55437 16.0211 7.7225 15.853 7.7225 15.6461ZM2.56063 19.1893C2.56063 19.3961 2.72875 19.5643 2.93563 19.5643H7.34687C7.55375 19.5643 7.72187 19.3961 7.72187 19.1893C7.72187 18.9824 7.55375 18.8143 7.34687 18.8143H2.93563C2.72875 18.8143 2.56063 18.9818 2.56063 19.1893ZM3.795 20.6749C3.795 20.8818 3.96313 21.0499 4.17 21.0499H7.34687C7.55375 21.0499 7.72187 20.8818 7.72187 20.6749C7.72187 20.468 7.55375 20.2999 7.34687 20.2999H4.17C3.96313 20.2999 3.795 20.468 3.795 20.6749ZM21.1975 16.0474C18.2306 16.0474 15.8169 13.6336 15.8169 10.6668C15.8169 7.69988 18.2306 5.28613 21.1975 5.28613C24.1644 5.28613 26.5781 7.69988 26.5781 10.6668C26.5781 13.6336 24.1644 16.0474 21.1975 16.0474ZM21.1975 6.03613C18.6444 6.03613 16.5669 8.11363 16.5669 10.6668C16.5669 13.2205 18.6444 15.2974 21.1975 15.2974C23.7506 15.2974 25.8281 13.2199 25.8281 10.6668C25.8281 8.11301 23.7506 6.03613 21.1975 6.03613Z" fill="black"/>
</svg>
