<svg width="33" height="32" viewBox="0 0 33 32" fill="none" xmlns="http://www.w3.org/2000/svg">
<g clip-path="url(#clip0_13068_798)">
<path d="M28.2295 9.60178C28.3506 9.60184 28.4682 9.56059 28.5628 9.48495L30.0517 8.29386C30.8021 8.75998 31.7882 8.52945 32.2543 7.77909C32.7203 7.02873 32.4899 6.04252 31.7395 5.57647C30.9891 5.11035 30.003 5.34088 29.5369 6.09124C29.282 6.50164 29.2263 7.00534 29.3852 7.46153L28.0425 8.53545H24.107C19.9951 4.3342 13.2559 4.26176 9.05468 8.37364C9.00016 8.42702 8.94625 8.48094 8.89287 8.53545H4.95746L3.61496 7.46146C3.90653 6.62613 3.46574 5.71256 2.63041 5.42098C1.79508 5.12941 0.881502 5.5702 0.589929 6.40553C0.298356 7.24087 0.739148 8.15444 1.57448 8.44601C2.03193 8.6057 2.5371 8.54978 2.94851 8.29386L4.43716 9.48495C4.53173 9.56059 4.64929 9.60184 4.77039 9.60178H7.97476C7.24799 10.5669 6.69077 11.6487 6.32715 12.8008H3.61236C3.31792 11.9679 2.40401 11.5314 1.57121 11.8259C0.738348 12.1204 0.301888 13.0343 0.596394 13.8671C0.890899 14.6999 1.80474 15.1364 2.63754 14.8419C3.09306 14.6809 3.45134 14.3225 3.61236 13.8671H6.05111C5.76527 15.2745 5.76527 16.725 6.05111 18.1324H3.61236C3.31792 17.2995 2.40401 16.863 1.57121 17.1576C0.738415 17.4521 0.301888 18.3659 0.596394 19.1987C0.890899 20.0315 1.80474 20.468 2.63754 20.1735C3.09306 20.0125 3.45134 19.6542 3.61236 19.1987H6.32715C6.69077 20.3508 7.24799 21.4326 7.97476 22.3977H4.77039C4.64929 22.3976 4.53173 22.4389 4.43716 22.5145L2.94831 23.7056C2.19788 23.2395 1.21173 23.4699 0.745613 24.2204C0.279495 24.9708 0.509955 25.9569 1.26038 26.423C2.01081 26.8892 2.99696 26.6587 3.46307 25.9083C3.71799 25.4979 3.77377 24.9942 3.61476 24.538L4.95746 23.464H8.89287C13.0048 27.6652 19.744 27.7377 23.9452 23.6258C23.9997 23.5724 24.0537 23.5185 24.107 23.464H28.0425L29.385 24.5379C29.0933 25.3733 29.534 26.2869 30.3694 26.5786C31.2047 26.8702 32.1183 26.4295 32.41 25.5942C32.7018 24.7588 32.261 23.8452 31.4256 23.5535C30.9681 23.3938 30.4629 23.4497 30.0514 23.7056L28.5628 22.5145C28.4682 22.4389 28.3506 22.3976 28.2295 22.3977H25.0252C25.7519 21.4326 26.3091 20.3508 26.6728 19.1987H29.3876C29.682 20.0316 30.5959 20.468 31.4287 20.1735C32.2616 19.8791 32.698 18.9652 32.4035 18.1324C32.1091 17.2995 31.1952 16.863 30.3624 17.1576C29.9069 17.3186 29.5486 17.6769 29.3876 18.1324H26.9488C27.2346 16.725 27.2346 15.2745 26.9488 13.8671H29.3876C29.682 14.6999 30.5959 15.1364 31.4287 14.8419C32.2616 14.5475 32.698 13.6335 32.4035 12.8008C32.1091 11.9679 31.1952 11.5314 30.3624 11.8259C29.9069 11.9869 29.5486 12.3453 29.3876 12.8008H26.6728C26.3091 11.6487 25.7519 10.5669 25.0252 9.60178H28.2295ZM30.8953 6.4028C31.1898 6.4028 31.4285 6.64153 31.4285 6.93596C31.4285 7.2304 31.1898 7.46913 30.8953 7.46913C30.6009 7.46913 30.3622 7.2304 30.3622 6.93596C30.3625 6.64166 30.601 6.40314 30.8953 6.4028ZM1.57141 6.93596C1.57141 6.64153 1.81014 6.4028 2.10458 6.4028C2.39902 6.4028 2.63774 6.64153 2.63774 6.93596C2.63774 7.2304 2.39902 7.46913 2.10458 7.46913C1.8102 7.46879 1.57168 7.23027 1.57141 6.93596ZM2.10458 25.5966C1.81014 25.5966 1.57141 25.3579 1.57141 25.0635C1.57141 24.769 1.81014 24.5303 2.10458 24.5303C2.39902 24.5303 2.63774 24.769 2.63774 25.0635C2.63741 25.3578 2.39888 25.5963 2.10458 25.5966ZM30.8953 24.5303C31.1898 24.5303 31.4285 24.769 31.4285 25.0635C31.4285 25.3579 31.1898 25.5966 30.8953 25.5966C30.6009 25.5966 30.3622 25.3579 30.3622 25.0635C30.3625 24.7692 30.601 24.5307 30.8953 24.5303ZM2.10458 13.8671C1.81014 13.8671 1.57141 13.6284 1.57141 13.3339C1.57141 13.0395 1.81014 12.8008 2.10458 12.8008C2.39902 12.8008 2.63774 13.0395 2.63774 13.3339C2.63741 13.6282 2.39888 13.8667 2.10458 13.8671ZM2.10458 19.1987C1.81014 19.1987 1.57141 18.96 1.57141 18.6655C1.57141 18.3711 1.81014 18.1324 2.10458 18.1324C2.39902 18.1324 2.63774 18.3711 2.63774 18.6655C2.63741 18.9598 2.39888 19.1984 2.10458 19.1987ZM30.8953 18.1324C31.1898 18.1324 31.4285 18.3711 31.4285 18.6655C31.4285 18.96 31.1898 19.1987 30.8953 19.1987C30.6009 19.1987 30.3622 18.96 30.3622 18.6655C30.3625 18.3712 30.601 18.1327 30.8953 18.1324ZM30.8953 12.8008C31.1898 12.8008 31.4285 13.0395 31.4285 13.3339C31.4285 13.6284 31.1898 13.8671 30.8953 13.8671C30.6009 13.8671 30.3622 13.6284 30.3622 13.3339C30.3625 13.0396 30.601 12.8011 30.8953 12.8008ZM16.5 25.5966C11.2083 25.5966 6.90304 21.2914 6.90304 15.9997C6.90304 10.7081 11.2083 6.4028 16.5 6.4028C21.7916 6.4028 26.0969 10.7081 26.0969 15.9997C26.0969 21.2914 21.7916 25.5966 16.5 25.5966Z" fill="black"/>
<path d="M16.4993 7.46875C11.7881 7.46875 7.96875 11.2881 7.96875 15.9993C7.96875 20.7106 11.7881 24.5299 16.4993 24.5299C21.2106 24.5299 25.0299 20.7106 25.0299 15.9993C25.0246 11.2903 21.2084 7.47408 16.4993 7.46875ZM16.4993 23.4636C12.3769 23.4636 9.03507 20.1218 9.03507 15.9993C9.03507 11.8769 12.3769 8.53508 16.4993 8.53508C20.6218 8.53508 23.9636 11.8769 23.9636 15.9993C23.959 20.1198 20.6198 23.459 16.4993 23.4636Z" fill="black"/>
<path d="M11.4863 17.4924L15.3816 14.5709L16.121 15.3103C16.3195 15.5087 16.6378 15.5193 16.8491 15.3345L20.2302 12.376V12.8006C20.2302 13.0951 20.4689 13.3338 20.7633 13.3338C21.0578 13.3338 21.2965 13.0951 21.2965 12.8006V11.2011C21.2965 10.9067 21.0578 10.668 20.7633 10.668H19.1638C18.8694 10.668 18.6307 10.9067 18.6307 11.2011C18.6307 11.4956 18.8694 11.7343 19.1638 11.7343H19.3443L16.5223 14.2036L15.8087 13.4899C15.6211 13.3023 15.3241 13.2812 15.1118 13.4404L10.8465 16.6394C10.6108 16.8159 10.5627 17.15 10.7392 17.3857C10.9157 17.6215 11.2498 17.6695 11.4856 17.493C11.4858 17.4928 11.486 17.4926 11.4863 17.4924Z" fill="black"/>
<path d="M21.2981 19.732V14.9336C21.2981 14.6391 21.0593 14.4004 20.7649 14.4004C20.4705 14.4004 20.2317 14.6391 20.2317 14.9336V19.732H19.1654V15.4667C19.1654 15.1723 18.9267 14.9336 18.6322 14.9336C18.3378 14.9336 18.0991 15.1723 18.0991 15.4667V19.732H17.0328V16.533C17.0328 16.2386 16.794 15.9999 16.4996 15.9999C16.2052 15.9999 15.9664 16.2386 15.9664 16.533V19.732H14.9001V17.0662C14.9001 16.7718 14.6614 16.533 14.3669 16.533C14.0725 16.533 13.8338 16.7718 13.8338 17.0662V19.732H12.7675V18.1325C12.7675 17.8381 12.5287 17.5994 12.2343 17.5994C11.9399 17.5994 11.7011 17.8381 11.7011 18.1325V19.732C11.4067 19.732 11.168 19.9707 11.168 20.2652C11.168 20.5596 11.4067 20.7983 11.7011 20.7983H21.2981C21.5925 20.7983 21.8312 20.5596 21.8312 20.2652C21.8312 19.9707 21.5925 19.732 21.2981 19.732Z" fill="black"/>
</g>
<defs>
<clipPath id="clip0_13068_798">
<rect width="32" height="32" fill="white" transform="translate(0.5)"/>
</clipPath>
</defs>
</svg>
