<svg width="33" height="32" viewBox="0 0 33 32" fill="none" xmlns="http://www.w3.org/2000/svg">
<g clip-path="url(#clip0_13068_809)">
<path d="M4.557 25.7204H8.68507C9.12732 25.7204 9.44363 25.2985 9.32682 24.872C8.82532 23.0405 7.15069 21.6943 5.16 21.6943C3.16932 21.6943 1.49475 23.0405 0.993191 24.872C0.876379 25.2985 1.19269 25.7204 1.63494 25.7204H2.36919" stroke="black" stroke-miterlimit="10" stroke-linecap="round" stroke-linejoin="round"/>
<path d="M5.16034 21.6947C6.54116 21.6947 7.66053 20.5753 7.66053 19.1945C7.66053 17.8137 6.54116 16.6943 5.16034 16.6943C3.77953 16.6943 2.66016 17.8137 2.66016 19.1945C2.66016 20.5753 3.77953 21.6947 5.16034 21.6947Z" stroke="black" stroke-miterlimit="10" stroke-linecap="round" stroke-linejoin="round"/>
<path d="M31.3647 25.7204C31.8069 25.7204 32.1233 25.2985 32.0064 24.872C31.5049 23.0405 29.8303 21.6943 27.8396 21.6943C25.8489 21.6943 24.1744 23.0405 23.6729 24.872C23.5561 25.2985 23.8724 25.7204 24.3146 25.7204H31.3647Z" stroke="black" stroke-miterlimit="10" stroke-linecap="round" stroke-linejoin="round"/>
<path d="M30.2135 18.4066C30.2957 18.6543 30.3402 18.9192 30.3402 19.1945C30.3402 20.5753 29.2208 21.6947 27.84 21.6947C26.4592 21.6947 25.3398 20.5753 25.3398 19.1945C25.3398 17.8137 26.4592 16.6943 27.84 16.6943C28.1164 16.6943 28.3823 16.7392 28.6308 16.822" stroke="black" stroke-miterlimit="10" stroke-linecap="round" stroke-linejoin="round"/>
<path d="M20.0249 25.7204C20.4672 25.7204 20.7835 25.2985 20.6667 24.872C20.1652 23.0405 18.4905 21.6943 16.4998 21.6943C14.5092 21.6943 12.8346 23.0405 12.333 24.872C12.2162 25.2985 12.5325 25.7204 12.9748 25.7204H20.0249Z" stroke="black" stroke-miterlimit="10" stroke-linecap="round" stroke-linejoin="round"/>
<path d="M16.5002 21.6947C17.881 21.6947 19.0004 20.5753 19.0004 19.1945C19.0004 17.8137 17.881 16.6943 16.5002 16.6943C15.1194 16.6943 14 17.8137 14 19.1945C14 20.5753 15.1194 21.6947 16.5002 21.6947Z" stroke="black" stroke-miterlimit="10" stroke-linecap="round" stroke-linejoin="round"/>
<path d="M3.46491 12.4054C4.15098 12.4054 4.70716 11.8492 4.70716 11.1631C4.70716 10.4771 4.15098 9.9209 3.46491 9.9209C2.77883 9.9209 2.22266 10.4771 2.22266 11.1631C2.22266 11.8492 2.77883 12.4054 3.46491 12.4054Z" stroke="black" stroke-miterlimit="10" stroke-linecap="round" stroke-linejoin="round"/>
<path d="M8.44537 12.4054C9.13145 12.4054 9.68762 11.8492 9.68762 11.1631C9.68762 10.4771 9.13145 9.9209 8.44537 9.9209C7.7593 9.9209 7.20312 10.4771 7.20312 11.1631C7.20312 11.8492 7.7593 12.4054 8.44537 12.4054Z" stroke="black" stroke-miterlimit="10" stroke-linecap="round" stroke-linejoin="round"/>
<path d="M12.1845 11.1631H9.6875" stroke="black" stroke-miterlimit="10" stroke-linecap="round" stroke-linejoin="round"/>
<path d="M2.1595 11.1631H0.96875" stroke="black" stroke-miterlimit="10" stroke-linecap="round" stroke-linejoin="round"/>
<path d="M7.20178 11.1631H4.70703" stroke="black" stroke-miterlimit="10" stroke-linecap="round" stroke-linejoin="round"/>
<path d="M29.5352 12.4054C30.2213 12.4054 30.7775 11.8492 30.7775 11.1631C30.7775 10.4771 30.2213 9.9209 29.5352 9.9209C28.8491 9.9209 28.293 10.4771 28.293 11.1631C28.293 11.8492 28.8491 12.4054 29.5352 12.4054Z" stroke="black" stroke-miterlimit="10" stroke-linecap="round" stroke-linejoin="round"/>
<path d="M24.5548 12.4054C25.2408 12.4054 25.797 11.8492 25.797 11.1631C25.797 10.4771 25.2408 9.9209 24.5548 9.9209C23.8687 9.9209 23.3125 10.4771 23.3125 11.1631C23.3125 11.8492 23.8687 12.4054 24.5548 12.4054Z" stroke="black" stroke-miterlimit="10" stroke-linecap="round" stroke-linejoin="round"/>
<path d="M20.8164 11.1631H23.3134" stroke="black" stroke-miterlimit="10" stroke-linecap="round" stroke-linejoin="round"/>
<path d="M30.8398 11.1631H32.0306" stroke="black" stroke-miterlimit="10" stroke-linecap="round" stroke-linejoin="round"/>
<path d="M25.7969 11.1631H28.2916" stroke="black" stroke-miterlimit="10" stroke-linecap="round" stroke-linejoin="round"/>
<path d="M13.3055 8.14746H19.6941C20.2447 8.14746 20.691 8.59377 20.691 9.1444V13.1812C20.691 13.7318 20.2447 14.1781 19.6941 14.1781H13.3055C12.755 14.1781 12.3086 13.7318 12.3086 13.1812V9.1444C12.3087 8.59384 12.755 8.14746 13.3055 8.14746Z" stroke="black" stroke-miterlimit="10" stroke-linecap="round" stroke-linejoin="round"/>
<path d="M18.0045 8.14777V6.62296C18.0045 6.43371 17.8511 6.28027 17.6618 6.28027H15.3388C15.1495 6.28027 14.9961 6.43371 14.9961 6.62296V8.14777" stroke="black" stroke-miterlimit="10" stroke-linecap="round" stroke-linejoin="round"/>
<path d="M15.3008 11.1631H17.7003" stroke="black" stroke-miterlimit="10" stroke-linecap="round" stroke-linejoin="round"/>
</g>
<defs>
<clipPath id="clip0_13068_809">
<rect width="32" height="32" fill="white" transform="translate(0.5)"/>
</clipPath>
</defs>
</svg>
