<svg width="36" height="36" viewBox="0 0 36 36" fill="none" xmlns="http://www.w3.org/2000/svg">
<path d="M12.2855 8.2594C12.4992 8.16659 12.5969 7.91768 12.5041 7.70393C12.4113 7.49018 12.1624 7.39245 11.9494 7.48526C10.2028 8.24464 8.87952 9.66425 8.31913 11.3792C8.156 11.9065 8.93717 12.1681 9.12139 11.6414C9.60725 10.1557 10.7604 8.92245 12.2862 8.2587L12.2855 8.2594Z" fill="black"/>
<path d="M23.6589 11.7223C26.5031 11.7659 28.9746 9.30708 28.9204 6.46013C28.7109 -0.264556 19.1048 -0.6119 18.4101 6.06708C10.3621 2.64216 2.85277 12.1716 8.07488 19.205C10.6005 22.6074 15.2186 23.6508 18.9185 21.7749L20.4822 23.8786C20.0997 24.207 20.0294 24.7815 20.3346 25.1928L25.0019 31.4717C25.7493 32.5208 27.33 32.7514 28.3495 31.9639C29.4077 31.1764 29.6285 29.6752 28.8417 28.6163L24.175 22.3381C23.8692 21.9282 23.2989 21.8297 22.8743 22.1011L21.3112 19.9974C23.41 17.7882 24.187 14.6389 23.3693 11.7146C23.4656 11.7195 23.5619 11.723 23.6589 11.723V11.7223ZM20.1925 3.72005C22.7146 0.450522 28.1189 2.32927 28.0774 6.46013C28.1463 9.15662 25.4793 11.3546 22.8454 10.804C19.6462 10.3097 18.1204 6.19083 20.1925 3.72005ZM23.3967 22.7902C23.4353 22.7902 23.4733 22.8078 23.4986 22.8408L28.1646 29.119C28.6736 29.8046 28.5309 30.7763 27.8461 31.2861C27.1865 31.7972 26.1628 31.6461 25.679 30.9676L21.0124 24.6894C20.9709 24.6338 20.9828 24.5543 21.0384 24.5129L23.3228 22.8148C23.3453 22.7979 23.3714 22.7902 23.3981 22.7902H23.3967ZM21.1572 23.3717L19.6582 21.3551C20.0231 21.1245 20.3704 20.8672 20.6967 20.5831L22.195 22.5997L21.1572 23.3717ZM20.4309 19.6866C17.1487 22.9048 11.4928 22.4731 8.75199 18.7015C3.94894 12.1386 11.0892 3.51404 18.4235 6.99872C18.6492 9.23396 20.26 11.0691 22.4468 11.5817C23.3953 14.4406 22.6176 17.599 20.4302 19.6866H20.4309Z" fill="black"/>
<path d="M22.7535 8.31337C22.9124 8.52008 23.2513 8.52079 23.4095 8.31337L26.2755 4.7661C26.62 4.33649 25.9682 3.80704 25.6194 4.23594L23.0819 7.3768L22.1565 6.23071C21.8078 5.80321 21.1553 6.32985 21.4998 6.76087L22.7535 8.31266V8.31337Z" fill="black"/>
<path d="M18.9653 15.6919C18.5955 15.5155 17.107 14.9783 16.6513 14.8158L16.5782 14.2315C17.6196 13.167 18.0773 8.95881 15.0419 9.04108C12.0142 8.9335 12.4663 13.1607 13.5105 14.2597L13.4416 14.8151C12.8924 15.0099 11.4806 15.5232 11.1276 15.6905C10.5419 15.9683 10.2599 17.2754 10.1664 17.8245C10.0828 18.3125 10.3795 18.7822 10.8555 18.9179C13.6328 19.7089 16.4531 19.7265 19.2367 18.9699C19.7142 18.8398 20.0165 18.373 19.9385 17.8836C19.6685 16.1954 19.1678 15.789 18.9653 15.6919ZM15.0271 9.88553C16.053 9.87921 16.4453 10.3173 16.4931 11.5604C16.5543 12.4048 16.3202 13.3934 15.854 13.7647C15.371 14.1971 14.4928 14.1584 14.0856 13.6374C13.7685 13.2549 13.5942 12.6193 13.5942 11.8473C13.5942 10.3679 13.9422 9.89186 15.0271 9.88624V9.88553ZM19.0153 18.1557C16.3821 18.8715 13.7151 18.8553 11.0861 18.1065C11.0263 18.0896 10.9877 18.0284 10.9982 17.9673C11.1501 17.0778 11.3983 16.5469 11.5045 16.4464C11.8258 16.2987 13.1245 15.8227 13.7784 15.5914C14.1271 15.4768 14.2867 15.128 14.2966 14.7814C14.7599 14.9473 15.3485 14.9403 15.7956 14.7673C15.8062 15.1189 15.9588 15.4768 16.3167 15.5921C16.9347 15.8108 18.2643 16.2966 18.5892 16.4471C18.6974 16.5462 18.9604 17.108 19.106 18.0158C19.1158 18.0776 19.0757 18.1388 19.016 18.1557H19.0153Z" fill="black"/>
</svg>
