<svg width="32" height="32" viewBox="0 0 32 32" fill="none" xmlns="http://www.w3.org/2000/svg">
<g clip-path="url(#clip0_13068_791)">
<path fill-rule="evenodd" clip-rule="evenodd" d="M19.5606 3.67156C20.4775 3.93501 21.3617 4.30116 22.1964 4.76306C22.2688 4.80529 22.3533 4.82191 22.4363 4.81021C22.5193 4.79852 22.596 4.75921 22.6539 4.69862L23.6964 3.65606C23.9107 3.44236 24.2009 3.32235 24.5035 3.32235C24.8061 3.32235 25.0963 3.44236 25.3105 3.65606L28.3433 6.6885C28.557 6.90272 28.677 7.19295 28.677 7.49553C28.677 7.79812 28.557 8.08835 28.3433 8.30256L27.3009 9.34488C27.2403 9.40279 27.201 9.47944 27.1893 9.56245C27.1777 9.64546 27.1943 9.72998 27.2366 9.80237C27.6986 10.6372 28.0648 11.5215 28.3283 12.4384C28.3501 12.5191 28.3984 12.5901 28.4654 12.64C28.5324 12.69 28.6142 12.716 28.6978 12.7139H30.1701C30.4727 12.7143 30.7628 12.8347 30.9767 13.0486C31.1907 13.2626 31.3111 13.5527 31.3115 13.8553V18.1438C31.3111 18.4463 31.1907 18.7364 30.9767 18.9504C30.7628 19.1643 30.4727 19.2847 30.1701 19.2851H28.6977C28.6141 19.283 28.5323 19.309 28.4653 19.3589C28.3983 19.4089 28.35 19.4799 28.3282 19.5606C28.0647 20.4776 27.6985 21.362 27.2366 22.1969C27.1943 22.2693 27.1777 22.3539 27.1893 22.4369C27.201 22.5199 27.2403 22.5965 27.3009 22.6544L28.3433 23.6964C28.557 23.9107 28.677 24.2009 28.677 24.5035C28.677 24.8061 28.557 25.0963 28.3433 25.3105L25.3105 28.3433C25.0963 28.557 24.8061 28.677 24.5035 28.677C24.2009 28.677 23.9107 28.557 23.6964 28.3433L22.6539 27.3008C22.596 27.2402 22.5194 27.2009 22.4364 27.1892C22.3534 27.1775 22.2689 27.1941 22.1965 27.2363C21.3617 27.6982 20.4775 28.0643 19.5606 28.3278C19.4799 28.3496 19.4089 28.3979 19.359 28.4649C19.309 28.5319 19.283 28.6137 19.2851 28.6973V30.1701C19.2847 30.4727 19.1643 30.7628 18.9504 30.9767C18.7364 31.1907 18.4463 31.3111 18.1438 31.3115H13.8553C13.5527 31.3111 13.2626 31.1907 13.0486 30.9767C12.8347 30.7628 12.7143 30.4727 12.7139 30.1701V28.6977C12.716 28.6141 12.69 28.5323 12.6401 28.4653C12.5901 28.3983 12.5191 28.35 12.4384 28.3282C11.5214 28.0647 10.637 27.6985 9.80206 27.2366C9.72967 27.1943 9.64515 27.1777 9.56214 27.1893C9.47913 27.201 9.40248 27.2403 9.34456 27.3009L8.30256 28.3433C8.08835 28.557 7.79812 28.677 7.49553 28.677C7.19295 28.677 6.90272 28.557 6.6885 28.3433L3.65606 25.3105C3.44236 25.0963 3.32235 24.8061 3.32235 24.5035C3.32235 24.2009 3.44236 23.9107 3.65606 23.6964L4.69856 22.6539C4.75915 22.596 4.79846 22.5194 4.81015 22.4364C4.82184 22.3534 4.80523 22.2689 4.763 22.1965C4.30113 21.3617 3.935 20.4775 3.67156 19.5606C3.64973 19.4799 3.60144 19.4089 3.53444 19.359C3.46744 19.309 3.3856 19.283 3.30206 19.2851H1.82888C1.52629 19.2847 1.23622 19.1643 1.02226 18.9504C0.808298 18.7364 0.687913 18.4463 0.6875 18.1438V13.8553C0.687913 13.5527 0.808298 13.2626 1.02226 13.0486C1.23622 12.8347 1.52629 12.7143 1.82888 12.7139H3.30131C3.38486 12.716 3.4667 12.69 3.5337 12.6401C3.6007 12.5901 3.64899 12.5191 3.67081 12.4384C3.93429 11.5214 4.30048 10.637 4.76244 9.80206C4.8047 9.72967 4.82134 9.64515 4.80966 9.56214C4.79798 9.47913 4.75866 9.40248 4.69806 9.34456L3.65606 8.30256C3.44236 8.08835 3.32235 7.79812 3.32235 7.49553C3.32235 7.19295 3.44236 6.90272 3.65606 6.6885L6.6885 3.65606C6.90272 3.44236 7.19295 3.32235 7.49553 3.32235C7.79812 3.32235 8.08835 3.44236 8.30256 3.65606L9.34506 4.69856C9.40297 4.75915 9.47961 4.79846 9.5626 4.81015C9.64559 4.82184 9.73011 4.80523 9.8025 4.763C10.6373 4.30113 11.5215 3.935 12.4384 3.67156C12.5191 3.64973 12.5901 3.60144 12.64 3.53444C12.69 3.46744 12.716 3.3856 12.7139 3.30206V1.82888C12.7143 1.52629 12.8347 1.23622 13.0486 1.02226C13.2626 0.808298 13.5527 0.687913 13.8553 0.6875H18.1438C18.4463 0.687913 18.7364 0.808298 18.9504 1.02226C19.1643 1.23622 19.2847 1.52629 19.2851 1.82888V3.30206C19.283 3.3856 19.309 3.46744 19.359 3.53444C19.4089 3.60144 19.4799 3.64973 19.5606 3.67156ZM16.8533 13.4911L16.8626 7.48787C16.5458 7.24414 16.1496 7.12713 15.7513 7.15966C15.353 7.19219 14.981 7.37192 14.708 7.66381C14.3806 8.01312 14.2557 8.552 14.3036 9.02413C14.8418 8.9157 15.4003 8.97575 15.9031 9.19613L15.9026 9.19738C15.9495 9.21603 15.9922 9.24389 16.0281 9.27931C16.0641 9.31474 16.0926 9.35701 16.1119 9.40362C16.1312 9.45023 16.141 9.50025 16.1407 9.55072C16.1404 9.60118 16.1299 9.65107 16.11 9.69743C16.0901 9.7438 16.0611 9.7857 16.0247 9.82066C15.9883 9.85563 15.9453 9.88294 15.8982 9.901C15.851 9.91906 15.8008 9.92748 15.7503 9.92579C15.6999 9.92409 15.6503 9.91231 15.6045 9.89113L15.6039 9.89237C15.1432 9.68747 14.6201 9.67366 14.1492 9.85397C13.6784 10.0343 13.2982 10.394 13.0922 10.8542C13.0724 10.9001 13.0437 10.9416 13.0077 10.9764C12.9717 11.0111 12.9291 11.0383 12.8825 11.0565C12.8359 11.0747 12.7862 11.0834 12.7362 11.0822C12.6862 11.081 12.6369 11.0699 12.5912 11.0495C12.5455 11.0291 12.5044 10.9999 12.4701 10.9634C12.4358 10.927 12.4091 10.8842 12.3915 10.8373C12.3739 10.7905 12.3658 10.7407 12.3676 10.6907C12.3694 10.6407 12.3811 10.5915 12.4021 10.5461C12.6426 10.007 13.0559 9.56333 13.5767 9.28538C13.4965 8.82352 13.5376 8.34875 13.6958 7.9075C12.9463 6.77775 11.1949 7.02231 10.7887 8.379C10.7259 8.58152 10.7044 8.79454 10.7252 9.00553C10.7461 9.21651 10.8089 9.42119 10.9101 9.6075C10.9495 9.67971 10.9642 9.76275 10.9522 9.8441C10.9402 9.92544 10.902 10.0007 10.8435 10.0584C10.785 10.1162 10.7093 10.1533 10.6278 10.1642C10.5463 10.1752 10.4634 10.1593 10.3918 10.119C9.243 9.49544 7.64906 10.5449 8.1925 11.9741C8.3534 12.3918 8.64841 12.7442 9.03125 12.9761C9.32651 12.9776 9.6197 13.0256 9.9 13.1184L9.89956 13.1197C10.3796 13.2728 10.1566 13.9961 9.66344 13.8369L9.663 13.8382C9.26512 13.7066 8.83656 13.6994 8.43451 13.8177C8.03245 13.9359 7.67603 14.174 7.41279 14.5001C7.14956 14.8262 6.99203 15.2248 6.96124 15.6428C6.93044 16.0607 7.02784 16.4782 7.24044 16.8393C7.39044 16.588 7.57295 16.3576 7.78325 16.154C7.85528 16.0848 7.95174 16.047 8.05159 16.0487C8.15144 16.0504 8.24656 16.0915 8.31619 16.1631C8.38583 16.2347 8.42431 16.3309 8.42326 16.4307C8.42221 16.5306 8.38169 16.626 8.31056 16.6961C8.1531 16.8489 8.01518 17.0207 7.89994 17.2074C7.13019 18.4779 7.80831 20.1317 9.382 20.306C9.45465 20.314 9.52342 20.3429 9.58002 20.3891C9.63662 20.4353 9.67861 20.497 9.70094 20.5666C9.72326 20.6362 9.72495 20.7107 9.7058 20.7813C9.68666 20.8518 9.6475 20.9153 9.59306 20.9641C9.25988 21.2754 9.13806 22.2061 9.3395 22.6507C9.60825 23.2436 10.4907 23.4402 11.0124 23.1987C11.0773 23.1662 11.1501 23.1531 11.2223 23.1609C11.2945 23.1687 11.3628 23.1971 11.4193 23.2427C11.4757 23.2884 11.5178 23.3493 11.5405 23.4182C11.5632 23.4872 11.5656 23.5612 11.5474 23.6314C11.3224 24.5017 12.0443 25.3689 12.7793 25.2307C12.9851 25.1866 13.1772 25.0931 13.339 24.9583C13.3056 24.7987 13.3067 24.6338 13.3421 24.4747C13.3775 24.3155 13.4465 24.1658 13.5444 24.0354C13.5738 23.9954 13.6108 23.9615 13.6532 23.9357C13.6957 23.9099 13.7428 23.8928 13.7919 23.8852C13.841 23.8776 13.8911 23.8798 13.9394 23.8916C13.9876 23.9034 14.0331 23.9246 14.0732 23.954C14.1132 23.9833 14.1471 24.0203 14.1729 24.0628C14.1987 24.1052 14.2158 24.1524 14.2234 24.2015C14.231 24.2506 14.2288 24.3007 14.217 24.3489C14.2052 24.3972 14.184 24.4426 14.1546 24.4827C13.9757 24.7264 14.1429 25.0594 14.313 25.2749C14.5829 25.6014 14.9397 25.8449 15.3421 25.9772C15.8582 26.1459 16.4312 26.0996 16.8346 25.6334L16.8389 21.6018C16.8389 21.5906 16.8398 21.5795 16.8409 21.5686L16.8534 13.491L16.8533 13.4911ZM17.6091 13.1987C17.6377 13.2189 17.6645 13.2416 17.6893 13.2663L20.5706 16.1476C20.6936 16.2708 20.7626 16.4378 20.7626 16.612C20.7626 16.7861 20.6936 16.9531 20.5706 17.0764L17.6893 19.9576C17.6614 19.9855 17.631 20.0107 17.5984 20.0329L17.5971 20.8819L21.8245 16.6545C21.8355 16.6431 21.8416 16.6278 21.8416 16.612C21.8416 16.5962 21.8355 16.5809 21.8245 16.5695L17.6103 12.3553L17.609 13.199L17.6091 13.1987ZM17.6001 18.9745L19.9626 16.612L17.6074 14.2568L17.6001 18.9745ZM25.4282 13.9398C25.2859 13.7978 25.112 13.6914 24.9207 13.6294C24.7294 13.5675 24.5262 13.5516 24.3276 13.5832C24.129 13.6148 23.9407 13.693 23.7781 13.8112C23.6155 13.9295 23.4832 14.0846 23.3919 14.2638L22.9058 14.1814C22.8428 14.1665 22.7772 14.1679 22.715 14.1856C22.6528 14.2033 22.5962 14.2365 22.5505 14.2823L21.5802 15.2526L20.3504 14.0228L22.0763 12.2969C22.39 12.4897 22.7595 12.5713 23.1252 12.5283C23.4909 12.4853 23.8314 12.3203 24.0918 12.06C25.1197 11.0319 24.3888 9.26581 22.9344 9.26581C21.6496 9.26581 20.8734 10.6793 21.5402 11.7607L19.8143 13.4866L18.5844 12.2568L19.5548 11.2866C19.6005 11.2409 19.6338 11.1843 19.6514 11.1221C19.6691 11.0599 19.6705 10.9942 19.6556 10.9313L19.5732 10.4449C19.7829 10.3384 19.959 10.1759 20.0821 9.9754C20.2051 9.77492 20.2702 9.54429 20.2703 9.30906C20.2703 8.17781 18.8961 7.60906 18.0963 8.40863C17.3506 9.15431 17.7877 10.4321 18.8271 10.5711L18.8808 10.8881L18.0483 11.7206C17.9144 11.5868 17.7693 11.4185 17.6121 11.3352L17.6184 7.31337C17.6184 7.26185 17.6079 7.21086 17.5875 7.16356C17.5671 7.11626 17.5372 7.07365 17.4996 7.03837L17.5001 7.03794C17.2686 6.82123 16.996 6.65324 16.6984 6.54395C16.4008 6.43466 16.0842 6.3863 15.7675 6.40175C15.4509 6.41719 15.1405 6.49612 14.8549 6.63385C14.5694 6.77158 14.3144 6.9653 14.1051 7.2035C13.8089 6.87866 13.428 6.64292 13.0051 6.52281C11.3084 6.03937 9.7345 7.52131 9.98688 9.20406C9.50421 9.13467 9.01189 9.21605 8.57723 9.43709C8.14257 9.65812 7.7868 10.008 7.55856 10.4389C7.07731 11.3469 7.38431 12.4312 8.05406 13.1474C7.62315 13.3046 7.2371 13.5645 6.92939 13.9046C6.62169 14.2447 6.40164 14.6548 6.28833 15.0993C6.17502 15.5437 6.17188 16.0091 6.27918 16.455C6.38648 16.901 6.60098 17.314 6.90406 17.6583C6.56487 19.056 7.31156 20.4809 8.72094 20.9365C8.44756 21.5428 8.39987 22.3561 8.64412 22.9434C8.97081 23.7288 9.91525 24.1337 10.751 24.0382C10.7995 25.4252 12.2584 26.6066 13.6588 25.6607C14.4757 26.792 16.4529 27.4394 17.5174 25.9904C17.5693 25.9199 17.595 25.8334 17.5901 25.746L17.596 21.8979C17.7635 21.8136 17.9076 21.6445 18.0485 21.5035L18.8808 22.3358L18.827 22.6528C18.5214 22.6938 18.2411 22.8444 18.0381 23.0766C17.8351 23.3087 17.7232 23.6066 17.7232 23.9149C17.7232 25.0462 19.0973 25.6149 19.8971 24.8153C20.0391 24.6729 20.1454 24.499 20.2073 24.3077C20.2692 24.1165 20.285 23.9133 20.2534 23.7147C20.2218 23.5162 20.1437 23.3279 20.0255 23.1653C19.9073 23.0027 19.7523 22.8703 19.5731 22.7791L19.6556 22.2927C19.6705 22.2298 19.669 22.1641 19.6514 22.1019C19.6337 22.0397 19.6004 21.9831 19.5547 21.9374L18.5844 20.9671L19.8142 19.7373L21.5401 21.4633C21.3473 21.7769 21.2657 22.1464 21.3087 22.5121C21.3517 22.8778 21.5167 23.2184 21.777 23.4788C22.8051 24.5068 24.5712 23.7756 24.5712 22.3214C24.5712 21.0365 23.1576 20.2603 22.0763 20.9271L20.3503 19.2012L21.5801 17.9714L22.5504 18.9417C22.5961 18.9874 22.6528 19.0207 22.7149 19.0383C22.7771 19.056 22.8428 19.0574 22.9057 19.0426L23.3921 18.9601C23.4986 19.1698 23.6611 19.346 23.8616 19.469C24.0621 19.592 24.2927 19.6571 24.5279 19.6571C25.6592 19.6571 26.2279 18.2831 25.4283 17.4832C24.6826 16.7376 23.4048 17.1746 23.2658 18.2139L22.9489 18.2677L22.1163 17.4352C22.37 17.1816 22.6001 17.0064 22.6001 16.612C22.6001 16.2176 22.37 16.0424 22.1163 15.7888L22.9489 14.9562L23.2658 15.01C23.3069 15.3156 23.4575 15.5959 23.6896 15.7989C23.9217 16.0019 24.2196 16.1137 24.528 16.1137C25.6593 16.1137 26.228 14.7396 25.4284 13.9398H25.4282ZM25.0433 14.8403C25.0433 14.7383 25.0131 14.6387 24.9565 14.554C24.8998 14.4693 24.8194 14.4032 24.7252 14.3642C24.6311 14.3252 24.5275 14.315 24.4276 14.3349C24.3276 14.3548 24.2358 14.4038 24.1638 14.4759C24.0917 14.5479 24.0426 14.6398 24.0228 14.7397C24.0029 14.8396 24.0131 14.9432 24.0521 15.0374C24.0911 15.1315 24.1571 15.212 24.2419 15.2686C24.3266 15.3252 24.4262 15.3554 24.5281 15.3554C24.6647 15.3552 24.7956 15.3009 24.8922 15.2043C24.9888 15.1077 25.0431 14.9768 25.0433 14.8403ZM19.512 9.309C19.512 9.20712 19.4818 9.10752 19.4252 9.02281C19.3686 8.9381 19.2881 8.87208 19.194 8.83309C19.0999 8.7941 18.9963 8.7839 18.8964 8.80377C18.7965 8.82365 18.7047 8.87271 18.6326 8.94475C18.5606 9.01679 18.5115 9.10858 18.4916 9.2085C18.4718 9.30843 18.482 9.412 18.521 9.50613C18.5599 9.60026 18.626 9.68071 18.7107 9.73731C18.7954 9.79391 18.895 9.82413 18.9969 9.82413C19.1334 9.82398 19.2644 9.76966 19.361 9.67308C19.4575 9.57651 19.5119 9.44557 19.512 9.309ZM23.5557 10.2813C23.0043 9.72988 22.0557 10.1216 22.0557 10.9026C22.0557 11.6836 23.0041 12.0752 23.5557 11.5238C23.7205 11.359 23.8131 11.1355 23.8131 10.9025C23.8131 10.6695 23.7205 10.4461 23.5557 10.2813ZM18.9966 24.43C19.0984 24.43 19.198 24.3998 19.2828 24.3432C19.3675 24.2866 19.4335 24.2061 19.4725 24.112C19.5115 24.0179 19.5217 23.9143 19.5018 23.8144C19.4819 23.7144 19.4328 23.6226 19.3608 23.5506C19.2887 23.4786 19.1969 23.4295 19.097 23.4096C18.9971 23.3898 18.8935 23.4 18.7994 23.439C18.7053 23.478 18.6248 23.544 18.5682 23.6287C18.5116 23.7135 18.4814 23.8131 18.4814 23.9149C18.4816 24.0515 18.5359 24.1824 18.6325 24.279C18.7291 24.3755 18.86 24.4299 18.9966 24.43ZM24.5278 18.8988C24.6297 18.8988 24.7293 18.8685 24.814 18.8119C24.8987 18.7553 24.9647 18.6749 25.0037 18.5808C25.0427 18.4866 25.0529 18.3831 25.033 18.2831C25.0132 18.1832 24.9641 18.0914 24.8921 18.0194C24.82 17.9473 24.7282 17.8983 24.6283 17.8784C24.5284 17.8585 24.4248 17.8687 24.3307 17.9077C24.2366 17.9467 24.1561 18.0127 24.0995 18.0974C24.0429 18.1821 24.0127 18.2817 24.0127 18.3836C24.0128 18.5202 24.0672 18.6511 24.1637 18.7477C24.2603 18.8443 24.3912 18.8986 24.5278 18.8988ZM23.5554 22.9425C24.1069 22.391 23.7152 21.4425 22.9342 21.4425C22.1533 21.4425 21.7616 22.3908 22.313 22.9425C22.4778 23.1072 22.7012 23.1998 22.9342 23.1998C23.1672 23.1998 23.3907 23.1072 23.5554 22.9425ZM14.7094 20.5866C14.6293 19.8202 14.2482 19.117 13.6498 18.6316C13.0514 18.1462 12.2847 17.9182 11.5183 17.9979C11.4688 18.003 11.4209 18.0177 11.3772 18.0413C11.3335 18.0649 11.2949 18.0968 11.2635 18.1353C11.2322 18.1739 11.2087 18.2182 11.1945 18.2657C11.1802 18.3133 11.1755 18.3632 11.1806 18.4126C11.1856 18.462 11.2004 18.5099 11.2239 18.5537C11.2475 18.5974 11.2795 18.636 11.318 18.6674C11.3565 18.6987 11.4008 18.7222 11.4484 18.7364C11.4959 18.7506 11.5458 18.7554 11.5953 18.7503C11.8759 18.7208 12.1597 18.7469 12.4303 18.8271C12.7009 18.9073 12.9531 19.04 13.1724 19.2177C13.3917 19.3954 13.5738 19.6145 13.7084 19.8626C13.843 20.1107 13.9274 20.3829 13.9567 20.6636C13.9618 20.713 13.9765 20.7609 14.0001 20.8047C14.0237 20.8484 14.0556 20.887 14.0942 20.9184C14.1327 20.9497 14.177 20.9732 14.2245 20.9874C14.2721 21.0016 14.322 21.0064 14.3714 21.0013C14.4208 20.9963 14.4688 20.9815 14.5125 20.9579C14.5562 20.9344 14.5948 20.9024 14.6262 20.8639C14.6575 20.8254 14.681 20.7811 14.6952 20.7335C14.7095 20.6859 14.7142 20.636 14.7091 20.5866H14.7094ZM11.712 14.4002C11.9615 14.6889 12.2655 14.9255 12.6066 15.0967C12.9477 15.2678 13.3191 15.37 13.6997 15.3975C14.0803 15.425 14.4626 15.3772 14.8247 15.2569C15.1868 15.1365 15.5216 14.946 15.8101 14.6961C15.8859 14.6305 15.9325 14.5374 15.9397 14.4374C15.9469 14.3374 15.914 14.2386 15.8484 14.1628C15.7828 14.087 15.6897 14.0404 15.5897 14.0332C15.4897 14.026 15.3909 14.0589 15.3151 14.1245C14.8839 14.4971 14.3225 14.6834 13.754 14.6424C13.1856 14.6014 12.6567 14.3364 12.2834 13.9058C12.2178 13.8299 12.1248 13.7833 12.0248 13.7761C11.9248 13.7689 11.8261 13.8017 11.7502 13.8673C11.6744 13.9328 11.6278 14.0259 11.6206 14.1259C11.6134 14.2259 11.6462 14.3246 11.7118 14.4004L11.712 14.4002ZM12.5843 22.4331C13.46 23.6257 14.9987 23.7278 15.9686 22.5604C16.0009 22.5224 16.0253 22.4783 16.0404 22.4308C16.0556 22.3832 16.0611 22.3332 16.0568 22.2835C16.0525 22.2338 16.0384 22.1854 16.0152 22.1412C15.9921 22.097 15.9604 22.0578 15.9221 22.0259C15.8837 21.994 15.8394 21.9701 15.7918 21.9554C15.7441 21.9407 15.694 21.9356 15.6443 21.9404C15.5946 21.9452 15.5464 21.9598 15.5024 21.9834C15.4585 22.0069 15.4196 22.039 15.3881 22.0776C14.7362 22.8621 13.7803 22.7843 13.1943 21.9859C13.135 21.905 13.046 21.8509 12.9468 21.8356C12.8477 21.8204 12.7465 21.8451 12.6656 21.9044C12.5847 21.9637 12.5306 22.0527 12.5154 22.1519C12.5001 22.251 12.5248 22.3522 12.5841 22.4331H12.5843ZM20.6194 4.84212C20.206 4.67028 19.7833 4.52178 19.3532 4.39731C19.1147 4.33018 18.9047 4.18673 18.7554 3.98893C18.6062 3.79112 18.5259 3.54986 18.5268 3.30206V1.82888C18.5264 1.72739 18.486 1.63016 18.4142 1.55839C18.3425 1.48663 18.2452 1.44616 18.1438 1.44581H13.8553C13.7538 1.44616 13.6565 1.48663 13.5848 1.55839C13.513 1.63015 13.4725 1.72739 13.4722 1.82888V3.30206C13.4731 3.54986 13.3928 3.79112 13.2435 3.98893C13.0943 4.18674 12.8843 4.33018 12.6458 4.39731C11.7838 4.64722 10.9524 4.99242 10.1668 5.4265C9.95056 5.54713 9.70077 5.59369 9.45557 5.55905C9.21038 5.52442 8.98326 5.4105 8.80888 5.23469L7.76644 4.19225C7.69439 4.12078 7.59701 4.08068 7.49553 4.08068C7.39405 4.08068 7.29668 4.12078 7.22462 4.19225L4.19225 7.2245C4.12078 7.29655 4.08068 7.39392 4.08068 7.49541C4.08068 7.59689 4.12078 7.69426 4.19225 7.76631L5.23419 8.80825C5.41003 8.98264 5.52396 9.20979 5.55858 9.45502C5.5932 9.70024 5.54662 9.95005 5.42594 10.1663C4.99176 10.952 4.64649 11.7836 4.3965 12.6458C4.3294 12.8843 4.18597 13.0943 3.98817 13.2435C3.79038 13.3928 3.54911 13.4731 3.30131 13.4722H1.82888C1.72739 13.4726 1.63016 13.513 1.55839 13.5848C1.48663 13.6565 1.44616 13.7538 1.44581 13.8553V18.1438C1.44616 18.2452 1.48663 18.3425 1.55839 18.4142C1.63015 18.486 1.72739 18.5265 1.82888 18.5268H3.30206C3.54986 18.5259 3.79112 18.6062 3.98893 18.7555C4.18674 18.9047 4.33018 19.1147 4.39731 19.3532C4.64722 20.2152 4.99242 21.0466 5.4265 21.8322C5.54713 22.0484 5.59369 22.2982 5.55905 22.5434C5.52442 22.7886 5.4105 23.0157 5.23469 23.1901L4.19225 24.2326C4.12078 24.3046 4.08068 24.402 4.08068 24.5035C4.08068 24.605 4.12078 24.7023 4.19225 24.7744L7.2245 27.8067C7.29655 27.8782 7.39392 27.9183 7.49541 27.9183C7.59689 27.9183 7.69426 27.8782 7.76631 27.8067L8.80825 26.7648C8.98264 26.589 9.20979 26.475 9.45502 26.4404C9.70024 26.4058 9.95005 26.4524 10.1663 26.5731C10.952 27.0072 11.7835 27.3525 12.6456 27.6025C12.8842 27.6696 13.0941 27.813 13.2434 28.0108C13.3926 28.2086 13.473 28.4499 13.4721 28.6977V30.1701C13.4724 30.2716 13.5129 30.3688 13.5846 30.4406C13.6564 30.5124 13.7536 30.5528 13.8551 30.5532H18.1436C18.2451 30.5528 18.3423 30.5124 18.4141 30.4406C18.4858 30.3688 18.5263 30.2716 18.5266 30.1701V28.6969C18.5257 28.4491 18.606 28.2079 18.7553 28.0101C18.9046 27.8123 19.1145 27.6689 19.3531 27.6017C20.2151 27.3518 21.0465 27.0066 21.8321 26.5725C22.0483 26.4519 22.2981 26.4053 22.5433 26.4399C22.7885 26.4746 23.0156 26.5885 23.19 26.7643L24.2324 27.8067C24.3045 27.8782 24.4019 27.9183 24.5033 27.9183C24.6048 27.9183 24.7022 27.8782 24.7743 27.8067L27.8067 24.7745C27.8782 24.7024 27.9183 24.6051 27.9183 24.5036C27.9183 24.4021 27.8782 24.3047 27.8067 24.2327L26.7648 23.1908C26.589 23.0164 26.475 22.7892 26.4404 22.544C26.4058 22.2988 26.4523 22.049 26.573 21.8327C27.0072 21.0471 27.3525 20.2155 27.6025 19.3534C27.6696 19.1148 27.813 18.9049 28.0108 18.7556C28.2086 18.6063 28.4499 18.526 28.6977 18.5269H30.1701C30.2716 18.5266 30.3688 18.4861 30.4406 18.4144C30.5124 18.3426 30.5528 18.2454 30.5532 18.1439V13.8553C30.5528 13.7538 30.5124 13.6565 30.4406 13.5848C30.3688 13.513 30.2716 13.4726 30.1701 13.4722H28.6974C28.4496 13.4732 28.2084 13.3928 28.0106 13.2436C27.8128 13.0943 27.6694 12.8843 27.6023 12.6458C27.3523 11.7837 27.0069 10.9522 26.5727 10.1667C26.4521 9.95043 26.4055 9.70063 26.4401 9.45543C26.4747 9.21023 26.5886 8.98309 26.7644 8.80869L27.8067 7.76644C27.8782 7.69439 27.9183 7.59701 27.9183 7.49553C27.9183 7.39405 27.8782 7.29668 27.8067 7.22462L24.7745 4.19225C24.7024 4.12078 24.6051 4.08068 24.5036 4.08068C24.4021 4.08068 24.3047 4.12078 24.2327 4.19225L23.1902 5.23475C23.0158 5.41057 22.7887 5.52449 22.5435 5.55912C22.2983 5.59376 22.0485 5.5472 21.8322 5.42656C21.4392 5.20924 21.0343 5.01412 20.6194 4.84212Z" fill="black"/>
</g>
<defs>
<clipPath id="clip0_13068_791">
<rect width="32" height="32" fill="white"/>
</clipPath>
</defs>
</svg>
