<svg width="49" height="48" viewBox="0 0 49 48" fill="none" xmlns="http://www.w3.org/2000/svg">
<path d="M14 35.25C14 35.0511 14.079 34.8603 14.2197 34.7197C14.3603 34.579 14.5511 34.5 14.75 34.5H21.5C21.6989 34.5 21.8897 34.579 22.0303 34.7197C22.171 34.8603 22.25 35.0511 22.25 35.25C22.25 35.4489 22.171 35.6397 22.0303 35.7803C21.8897 35.921 21.6989 36 21.5 36H14.75C14.5511 36 14.3603 35.921 14.2197 35.7803C14.079 35.6397 14 35.4489 14 35.25ZM14.75 40.5H23C23.1989 40.5 23.3897 40.421 23.5303 40.2803C23.671 40.1397 23.75 39.9489 23.75 39.75C23.75 39.5511 23.671 39.3603 23.5303 39.2197C23.3897 39.079 23.1989 39 23 39H14.75C14.5511 39 14.3603 39.079 14.2197 39.2197C14.079 39.3603 14 39.5511 14 39.75C14 39.9489 14.079 40.1397 14.2197 40.2803C14.3603 40.421 14.5511 40.5 14.75 40.5ZM14.75 31.5H21.5C21.6989 31.5 21.8897 31.421 22.0303 31.2803C22.171 31.1397 22.25 30.9489 22.25 30.75C22.25 30.5511 22.171 30.3603 22.0303 30.2197C21.8897 30.079 21.6989 30 21.5 30H14.75C14.5511 30 14.3603 30.079 14.2197 30.2197C14.079 30.3603 14 30.5511 14 30.75C14 30.9489 14.079 31.1397 14.2197 31.2803C14.3603 31.421 14.5511 31.5 14.75 31.5ZM24.5 26.25C24.5 26.0511 24.421 25.8603 24.2803 25.7197C24.1397 25.579 23.9489 25.5 23.75 25.5H18.5C18.3011 25.5 18.1103 25.579 17.9697 25.7197C17.829 25.8603 17.75 26.0511 17.75 26.25C17.75 26.4489 17.829 26.6397 17.9697 26.7803C18.1103 26.921 18.3011 27 18.5 27H23.75C23.9489 27 24.1397 26.921 24.2803 26.7803C24.421 26.6397 24.5 26.4489 24.5 26.25ZM29 21.75C29 21.5511 28.921 21.3603 28.7803 21.2197C28.6397 21.079 28.4489 21 28.25 21H20C19.8011 21 19.6103 21.079 19.4697 21.2197C19.329 21.3603 19.25 21.5511 19.25 21.75C19.25 21.9489 19.329 22.1397 19.4697 22.2803C19.6103 22.421 19.8011 22.5 20 22.5H28.25C28.4489 22.5 28.6397 22.421 28.7803 22.2803C28.921 22.1397 29 21.9489 29 21.75ZM31.25 16.5C31.0511 16.5 30.8603 16.579 30.7197 16.7197C30.579 16.8603 30.5 17.0511 30.5 17.25C30.5 17.4489 30.579 17.6397 30.7197 17.7803C30.8603 17.921 31.0511 18 31.25 18H35.75C35.9489 18 36.1397 17.921 36.2803 17.7803C36.421 17.6397 36.5 17.4489 36.5 17.25C36.5 17.0511 36.421 16.8603 36.2803 16.7197C36.1397 16.579 35.9489 16.5 35.75 16.5H31.25ZM22.25 17.25C22.25 17.4489 22.329 17.6397 22.4697 17.7803C22.6103 17.921 22.8011 18 23 18H28.25C28.4489 18 28.6397 17.921 28.7803 17.7803C28.921 17.6397 29 17.4489 29 17.25C29 17.0511 28.921 16.8603 28.7803 16.7197C28.6397 16.579 28.4489 16.5 28.25 16.5H23C22.8011 16.5 22.6103 16.579 22.4697 16.7197C22.329 16.8603 22.25 17.0511 22.25 17.25ZM23.75 13.5H29.75C29.9489 13.5 30.1397 13.421 30.2803 13.2803C30.421 13.1397 30.5 12.9489 30.5 12.75C30.5 12.5511 30.421 12.3603 30.2803 12.2197C30.1397 12.079 29.9489 12 29.75 12H23.75C23.5511 12 23.3603 12.079 23.2197 12.2197C23.079 12.3603 23 12.5511 23 12.75C23 12.9489 23.079 13.1397 23.2197 13.2803C23.3603 13.421 23.5511 13.5 23.75 13.5ZM47 43.6285C47 44.1965 46.8317 44.7516 46.5162 45.2239C46.2006 45.6961 45.7522 46.0641 45.2275 46.2814C44.7028 46.4988 44.1255 46.5556 43.5685 46.4448C43.0115 46.3339 42.4998 46.0604 42.0983 45.6588L38.0542 41.6147C35.9875 42.7091 33.5968 43.0255 31.3166 42.5064C29.0364 41.9874 27.0181 40.6674 25.6288 38.7864C24.2394 36.9053 23.5711 34.5882 23.7454 32.2562C23.9197 29.9242 24.925 27.7322 26.5786 26.0786C28.2322 24.425 30.4242 23.4197 32.7562 23.2454C35.0882 23.0711 37.4053 23.7394 39.2864 25.1288C41.1674 26.5181 42.4874 28.5364 43.0064 30.8166C43.5255 33.0968 43.2091 35.4875 42.1147 37.5541L46.1588 41.5983C46.4263 41.8643 46.6384 42.1807 46.7828 42.5292C46.9272 42.8777 47.001 43.2513 47 43.6285ZM33.5 41.25C35.1317 41.25 36.7267 40.7661 38.0835 39.8596C39.4402 38.9531 40.4976 37.6646 41.122 36.1571C41.7464 34.6496 41.9098 32.9908 41.5915 31.3905C41.2732 29.7902 40.4874 28.3202 39.3336 27.1664C38.1799 26.0126 36.7098 25.2268 35.1095 24.9085C33.5092 24.5902 31.8504 24.7536 30.3429 25.378C28.8354 26.0024 27.5469 27.0598 26.6404 28.4165C25.7339 29.7733 25.25 31.3683 25.25 33C25.2525 35.1873 26.1225 37.2843 27.6691 38.8309C29.2157 40.3775 31.3127 41.2475 33.5 41.25ZM45.5 43.6285C45.5005 43.4484 45.4653 43.2699 45.3963 43.1034C45.3274 42.937 45.2261 42.7858 45.0983 42.6588L41.285 38.8454C40.7325 39.5795 40.0796 40.2324 39.3455 40.7849L43.1589 44.5983C43.42 44.8479 43.7674 44.9872 44.1286 44.9872C44.4899 44.9872 44.8372 44.8479 45.0984 44.5983C45.2261 44.4713 45.3274 44.3201 45.3964 44.1537C45.4653 43.9872 45.5005 43.8087 45.5 43.6285ZM37.8865 44.5061C37.4938 44.8233 37.0048 44.9975 36.5 45H14C13.4035 44.9993 12.8315 44.7621 12.4097 44.3403C11.9879 43.9185 11.7507 43.3465 11.75 42.75V28.5C11.75 28.3011 11.671 28.1103 11.5303 27.9697C11.3897 27.829 11.1989 27.75 11 27.75C10.8011 27.75 10.6103 27.829 10.4697 27.9697C10.329 28.1103 10.25 28.3011 10.25 28.5V42.75C10.2512 43.7442 10.6466 44.6973 11.3496 45.4004C12.0527 46.1034 13.0058 46.4988 14 46.5H36.5C37.3427 46.4989 38.1599 46.2105 38.8167 45.6825C38.9671 45.5573 39.0626 45.3784 39.0829 45.1838C39.1031 44.9892 39.0466 44.7944 38.9252 44.6409C38.8039 44.4874 38.6274 44.3874 38.4334 44.3623C38.2393 44.3371 38.0429 44.3886 37.8865 44.5061ZM23.75 6.75C23.75 6.55109 23.829 6.36032 23.9697 6.21967C24.1103 6.07902 24.3011 6 24.5 6H32.2575C32.7561 6.0014 33.2493 6.10381 33.7073 6.30105C33.7844 6.32242 33.8575 6.35632 33.9237 6.4014C34.2879 6.57841 34.6206 6.81382 34.9088 7.0983L39.1517 11.3412C39.4511 11.6444 39.6961 11.9968 39.8761 12.383C39.886 12.4014 39.8948 12.4197 39.9032 12.4387C40.1294 12.9257 40.248 13.4556 40.25 13.9925V22.5C40.25 22.6989 40.171 22.8897 40.0303 23.0303C39.8897 23.171 39.6989 23.25 39.5 23.25C39.3011 23.25 39.1103 23.171 38.9697 23.0303C38.829 22.8897 38.75 22.6989 38.75 22.5V13.9925C38.7486 13.8265 38.7277 13.6612 38.6878 13.5H35C34.4035 13.4993 33.8315 13.2621 33.4097 12.8403C32.9879 12.4185 32.7507 11.8465 32.75 11.25V7.56247C32.5889 7.52237 32.4235 7.5014 32.2575 7.5H24.5C24.3011 7.5 24.1103 7.42098 23.9697 7.28033C23.829 7.13968 23.75 6.94891 23.75 6.75ZM34.25 8.56057V11.25C34.2503 11.4488 34.3294 11.6394 34.47 11.78C34.6106 11.9206 34.8012 11.9997 35 12H37.6894L34.25 8.56057ZM40.25 33C40.25 34.335 39.8541 35.6401 39.1124 36.7501C38.3707 37.8601 37.3165 38.7253 36.0831 39.2362C34.8497 39.7471 33.4925 39.8808 32.1831 39.6203C30.8738 39.3599 29.671 38.717 28.727 37.773C27.783 36.829 27.1402 35.6262 26.8797 34.3169C26.6193 33.0075 26.7529 31.6503 27.2638 30.4169C27.7747 29.1835 28.6399 28.1293 29.7499 27.3876C30.8599 26.6459 32.165 26.25 33.5 26.25C35.2896 26.252 37.0053 26.9638 38.2708 28.2292C39.5362 29.4947 40.248 31.2104 40.25 33ZM38.75 33C38.75 31.9616 38.4421 30.9466 37.8652 30.0833C37.2883 29.2199 36.4684 28.547 35.5091 28.1496C34.5498 27.7523 33.4942 27.6483 32.4758 27.8509C31.4574 28.0534 30.5219 28.5535 29.7877 29.2877C29.0535 30.0219 28.5535 30.9574 28.3509 31.9758C28.1483 32.9942 28.2523 34.0498 28.6496 35.0091C29.047 35.9684 29.7199 36.7883 30.5833 37.3652C31.4466 37.9421 32.4617 38.25 33.5 38.25C34.8919 38.2485 36.2264 37.6948 37.2106 36.7106C38.1948 35.7264 38.7485 34.3919 38.75 33ZM10.25 19.9882C8.82019 19.1627 7.70272 17.8884 7.0709 16.3631C6.43909 14.8378 6.32825 13.1466 6.75556 11.5518C7.18287 9.95709 8.12446 8.5479 9.43429 7.54283C10.7441 6.53777 12.349 5.99298 14 5.99298C15.651 5.99298 17.2559 6.53777 18.5657 7.54283C19.8755 8.5479 20.8171 9.95709 21.2444 11.5518C21.6718 13.1466 21.5609 14.8378 20.9291 16.3631C20.2973 17.8884 19.1798 19.1627 17.75 19.9882V21.75C17.7494 22.0375 17.6661 22.3187 17.5101 22.5602C17.3541 22.8017 17.132 22.9932 16.8702 23.1119L16.37 25.1141C16.2891 25.4388 16.1019 25.7271 15.8381 25.933C15.5742 26.1389 15.2491 26.2505 14.9144 26.25H13.0856C12.7511 26.2503 12.426 26.1387 12.1623 25.9328C11.8986 25.7269 11.7114 25.4387 11.6306 25.1141L11.1302 23.1119C10.8683 22.9932 10.6461 22.8017 10.49 22.5603C10.334 22.3188 10.2506 22.0375 10.25 21.75V19.9882ZM11.75 20.25V21.75H16.25V20.25H11.75ZM14.9144 24.75L15.2894 23.25H12.7106L13.0856 24.75H14.9144ZM11.1322 18.75H13.25V16.0606L11.2198 14.0303C11.0831 13.8888 11.0075 13.6993 11.0092 13.5027C11.011 13.3061 11.0898 13.1179 11.2289 12.9789C11.3679 12.8398 11.5561 12.761 11.7527 12.7592C11.9493 12.7575 12.1388 12.8331 12.2803 12.9697L14 14.6894L15.7198 12.9697C15.8612 12.8331 16.0507 12.7575 16.2473 12.7592C16.4439 12.761 16.6321 12.8398 16.7711 12.9789C16.9102 13.1179 16.989 13.3061 16.9908 13.5027C16.9925 13.6993 16.9169 13.8888 16.7803 14.0303L14.75 16.0606V18.75H16.8678C18.0393 18.1125 18.9651 17.1028 19.4988 15.8804C20.0325 14.6581 20.1436 13.2927 19.8147 12.0001C19.4858 10.7075 18.7356 9.56139 17.6826 8.74276C16.6295 7.92414 15.3338 7.47972 14 7.47972C12.6662 7.47972 11.3705 7.92414 10.3174 8.74276C9.26442 9.56139 8.5142 10.7075 8.18529 12.0001C7.85638 13.2927 7.96755 14.6581 8.50122 15.8804C9.0349 17.1028 9.96065 18.1125 11.1322 18.75ZM4.25 12.75H2.75C2.55109 12.75 2.36032 12.829 2.21967 12.9697C2.07902 13.1103 2 13.3011 2 13.5C2 13.6989 2.07902 13.8897 2.21967 14.0303C2.36032 14.171 2.55109 14.25 2.75 14.25H4.25C4.44891 14.25 4.63968 14.171 4.78033 14.0303C4.92098 13.8897 5 13.6989 5 13.5C5 13.3011 4.92098 13.1103 4.78033 12.9697C4.63968 12.829 4.44891 12.75 4.25 12.75ZM6.57538 19.864L5.51473 20.925C5.44458 20.9945 5.38886 21.0772 5.35076 21.1684C5.31267 21.2595 5.29295 21.3572 5.29273 21.456C5.29251 21.5548 5.31181 21.6526 5.3495 21.7439C5.3872 21.8352 5.44256 21.9181 5.5124 21.988C5.58224 22.0578 5.66518 22.1132 5.75647 22.1509C5.84776 22.1886 5.9456 22.2079 6.04437 22.2076C6.14314 22.2074 6.24089 22.1877 6.33201 22.1496C6.42314 22.1115 6.50584 22.0558 6.57538 21.9856L7.63603 20.925C7.70617 20.8555 7.76189 20.7728 7.79999 20.6816C7.83808 20.5905 7.85781 20.4928 7.85802 20.394C7.85824 20.2952 7.83894 20.1974 7.80125 20.1061C7.76355 20.0148 7.70819 19.9319 7.63835 19.862C7.56851 19.7922 7.48557 19.7368 7.39428 19.6991C7.30299 19.6614 7.20515 19.6421 7.10638 19.6424C7.00761 19.6426 6.90986 19.6623 6.81874 19.7004C6.72761 19.7385 6.64491 19.7938 6.57538 19.864ZM21.425 7.13602L22.4857 6.07538C22.5558 6.00584 22.6115 5.92314 22.6496 5.83201C22.6877 5.74089 22.7074 5.64314 22.7076 5.54437C22.7079 5.4456 22.6886 5.34776 22.6509 5.25647C22.6132 5.16518 22.5578 5.08224 22.488 5.0124C22.4181 4.94256 22.3352 4.8872 22.2439 4.8495C22.1526 4.81181 22.0548 4.79251 21.956 4.79273C21.8572 4.79295 21.7595 4.81267 21.6684 4.85076C21.5772 4.88886 21.4945 4.94458 21.425 5.01472L20.364 6.07538C20.2943 6.14504 20.2391 6.22775 20.2014 6.31876C20.1637 6.40978 20.1443 6.50732 20.1444 6.60583C20.1444 6.70434 20.1638 6.80188 20.2015 6.89288C20.2392 6.98389 20.2945 7.06657 20.3642 7.13621C20.4338 7.20586 20.5165 7.2611 20.6076 7.29878C20.6986 7.33646 20.7961 7.35584 20.8946 7.35583C20.9931 7.35581 21.0907 7.33639 21.1817 7.29867C21.2727 7.26096 21.3554 7.20569 21.425 7.13602ZM6.57575 7.13602C6.64489 7.20787 6.72767 7.2652 6.81923 7.30467C6.9108 7.34414 7.00932 7.36496 7.10902 7.3659C7.20873 7.36685 7.30762 7.3479 7.39992 7.31017C7.49221 7.27244 7.57606 7.21669 7.64655 7.14617C7.71704 7.07565 7.77277 6.99179 7.81046 6.89948C7.84816 6.80717 7.86707 6.70827 7.86609 6.60856C7.86511 6.50886 7.84426 6.41035 7.80476 6.3188C7.76525 6.22725 7.70789 6.14449 7.63603 6.07538L6.57538 5.01472C6.50584 4.94458 6.42314 4.88886 6.33201 4.85076C6.24089 4.81267 6.14314 4.79295 6.04437 4.79273C5.9456 4.79251 5.84776 4.81181 5.75647 4.8495C5.66518 4.8872 5.58224 4.94256 5.5124 5.0124C5.44256 5.08224 5.3872 5.16518 5.3495 5.25647C5.31181 5.34776 5.29251 5.4456 5.29273 5.54437C5.29295 5.64314 5.31267 5.74089 5.35076 5.83201C5.38886 5.92314 5.44458 6.00584 5.51473 6.07538L6.57575 7.13602ZM14 4.5C14.1989 4.5 14.3897 4.42098 14.5303 4.28033C14.671 4.13968 14.75 3.94891 14.75 3.75V2.25C14.75 2.05109 14.671 1.86032 14.5303 1.71967C14.3897 1.57902 14.1989 1.5 14 1.5C13.8011 1.5 13.6103 1.57902 13.4697 1.71967C13.329 1.86032 13.25 2.05109 13.25 2.25V3.75C13.25 3.94891 13.329 4.13968 13.4697 4.28033C13.6103 4.42098 13.8011 4.5 14 4.5Z" fill="#054674"/>
</svg>
