<svg width="49" height="48" viewBox="0 0 49 48" fill="none" xmlns="http://www.w3.org/2000/svg">
<path d="M5.77354 14.2113H12.1379C15.2707 13.7985 12.9883 9.88479 11.2201 9.16908C11.6712 8.72065 11.9791 8.14835 12.1047 7.52474C12.2302 6.90112 12.1678 6.25427 11.9252 5.66618C11.6827 5.0781 11.271 4.57527 10.7424 4.22145C10.2137 3.86762 9.59194 3.67872 8.95581 3.67871C8.31969 3.6787 7.69788 3.86757 7.16922 4.22138C6.64056 4.57518 6.22886 5.07799 5.98631 5.66607C5.74376 6.25414 5.68128 6.90099 5.8068 7.52461C5.93232 8.14823 6.24018 8.72054 6.69135 9.16899C4.92366 9.88396 2.6401 13.7993 5.77354 14.2113ZM10.669 6.89221C10.664 7.34326 10.4812 7.77412 10.1604 8.09128C9.83968 8.40844 9.40679 8.58631 8.95571 8.58631C8.50462 8.5863 8.07173 8.40841 7.75098 8.09125C7.43023 7.77408 7.24749 7.34322 7.24241 6.89216C7.2475 6.4411 7.43025 6.01025 7.75101 5.69309C8.07177 5.37593 8.50466 5.19805 8.95575 5.19806C9.40684 5.19807 9.83972 5.37595 10.1605 5.69312C10.4812 6.01029 10.664 6.44115 10.669 6.89221ZM8.95551 10.1057C9.70579 10.104 10.4349 10.3544 11.0258 10.8166C11.6168 11.2789 12.0354 11.9262 12.2145 12.6548L12.1379 12.7112H5.77354L5.697 12.6548C5.87603 11.9263 6.29455 11.279 6.88542 10.8167C7.4763 10.3545 8.20531 10.1041 8.95551 10.1057Z" fill="#054674"/>
<path d="M35.3663 42.4047C35.3147 42.6345 35.3154 42.873 35.3684 43.1024C35.4214 43.3319 35.5253 43.5465 35.6724 43.7304C35.8195 43.9142 36.0061 44.0627 36.2183 44.1648C36.4306 44.2668 36.663 44.3199 36.8985 44.32L43.2629 44.32C46.3962 43.9073 44.1136 39.9936 42.3454 39.2779C42.7971 38.8293 43.1053 38.2568 43.2311 37.6328C43.3569 37.0089 43.2946 36.3616 43.052 35.7731C42.8094 35.1846 42.3976 34.6814 41.8687 34.3273C41.3397 33.9732 40.7176 33.7842 40.081 33.7842C39.4445 33.7842 38.8223 33.9732 38.2934 34.3272C37.7644 34.6813 37.3526 35.1845 37.11 35.7729C36.8674 36.3614 36.805 37.0086 36.9307 37.6326C37.0565 38.2566 37.3647 38.8291 37.8163 39.2777C37.2097 39.5956 36.6776 40.0388 36.2552 40.5779C35.8328 41.117 35.5298 41.7397 35.3663 42.4047ZM41.7944 37.001C41.7894 37.4522 41.6066 37.8831 41.2858 38.2004C40.965 38.5177 40.532 38.6956 40.0808 38.6956C39.6297 38.6956 39.1967 38.5177 38.8759 38.2004C38.5551 37.8831 38.3724 37.4521 38.3674 37.0009C38.3727 36.55 38.5556 36.1194 38.8764 35.8024C39.1971 35.4854 39.6299 35.3076 40.0809 35.3076C40.5318 35.3076 40.9646 35.4854 41.2854 35.8024C41.6061 36.1194 41.789 36.5501 41.7944 37.001ZM40.0809 40.2145C40.8336 40.2121 41.5649 40.4652 42.1552 40.9324C42.7454 41.3995 43.1597 42.0532 43.3303 42.7864C43.3223 42.7966 43.3121 42.805 43.3004 42.8108C43.2887 42.8167 43.2759 42.8198 43.2629 42.82H36.8985L36.8227 42.764C37.0014 42.0353 37.4197 41.3878 38.0106 40.9255C38.6015 40.4631 39.3306 40.2127 40.0809 40.2145Z" fill="#054674"/>
<path d="M12.0455 29.2194C15.5328 37.9596 27.3135 40.4212 34.0145 33.6156C42.5999 25.1158 36.5971 10.7396 24.7503 10.4618C15.2409 10.0924 8.10068 20.366 12.0455 29.2194ZM28.3769 35.3963C29.2736 34.2907 29.969 33.0361 30.4313 31.6898C31.1296 32.078 31.7869 32.5356 32.3931 33.0558C31.2167 34.086 29.8532 34.8806 28.3769 35.3963ZM36.5549 23.9434C36.5781 26.9236 35.4733 29.8022 33.4623 32.0017C32.6735 31.3114 31.8061 30.7164 30.8781 30.2289C31.9274 26.1494 31.9201 21.8698 30.8568 17.7939C31.7988 17.2849 32.6778 16.6671 33.4758 15.9532C35.4514 18.1463 36.5479 20.9917 36.5549 23.9434ZM32.3956 14.9104C31.7795 15.4512 31.1105 15.9285 30.3987 16.3353C29.9591 15.0215 29.3121 13.7866 28.4824 12.6772C29.9172 13.1654 31.2455 13.9234 32.3956 14.9104ZM25.2594 12.0773C27.2918 12.7824 28.2062 14.785 29.0414 16.9883C27.8394 17.4937 26.5609 17.7928 25.2594 17.8731V12.0773ZM25.2594 19.3655C26.7074 19.2866 28.1325 18.9702 29.4777 18.4288C29.9566 20.2155 30.1848 22.0602 30.1557 23.9097C30.1414 25.8262 29.9174 27.7354 29.4877 29.6032C28.1371 29.0646 26.7103 28.7416 25.2594 28.6461V19.3655ZM29.0653 31.0499C28.2257 33.2048 27.2441 35.1621 25.2595 35.9309L25.2594 30.1472C26.5677 30.2457 27.8521 30.5504 29.0653 31.0499ZM16.5911 33.0716C17.208 32.526 17.8789 32.0446 18.5932 31.6348C19.0449 32.9045 19.6687 34.1061 20.4471 35.2062C20.4946 35.2714 20.5471 35.3303 20.5965 35.3931C19.1206 34.8927 17.759 34.1035 16.5911 33.0716ZM23.7594 35.9088C22.9083 35.6207 22.1728 35.0659 21.6622 34.3266C20.9365 33.2995 20.3605 32.1745 19.9514 30.9853C21.1621 30.4833 22.4503 30.1941 23.7594 30.1305V35.9088ZM23.7594 28.6101C22.302 28.6744 20.866 28.9845 19.5119 29.5272C18.9683 27.1912 18.767 24.7886 18.9141 22.3947C19.4653 16.4492 19.039 19.1991 23.7595 19.361L23.7594 28.6101ZM23.7594 12.0504V17.8598C22.4545 17.7851 21.1708 17.4953 19.9602 17.0022C20.8118 14.58 22.1328 12.5062 23.7594 12.0504ZM20.6566 12.5733C19.7727 13.7178 19.0798 14.9978 18.6048 16.3636C17.8829 15.9626 17.2084 15.4815 16.5942 14.9295C17.7784 13.8821 19.1594 13.0811 20.6566 12.5733ZM15.5318 15.9875C16.3193 16.7052 17.1954 17.319 18.139 17.8139C17.7186 19.2884 17.4756 20.8077 17.4152 22.3398C17.2527 24.9735 17.4954 27.6166 18.135 30.1766C17.1994 30.6836 16.3264 31.2984 15.5337 32.0083C14.6541 31.0072 13.9432 29.8696 13.429 28.6401C12.5274 26.5519 12.2463 24.2482 12.6192 22.0045C12.9921 19.7607 14.0033 17.6718 15.5318 15.9875Z" fill="#054674"/>
<path d="M17.1855 8.3143C29.8279 2.37335 44.0534 13.3471 41.5363 27.0554L41.1046 25.1179C41.0582 24.927 40.9388 24.7619 40.772 24.6581C40.6052 24.5543 40.4044 24.5201 40.2126 24.5628C40.0209 24.6054 39.8535 24.7217 39.7465 24.8864C39.6396 25.0512 39.6015 25.2513 39.6405 25.4439L40.7387 30.3723C40.7658 30.4956 40.8241 30.6099 40.908 30.7042C40.992 30.7985 41.0987 30.8696 41.2181 30.9108C41.3374 30.9519 41.4654 30.9617 41.5896 30.9392C41.7138 30.9167 41.8302 30.8627 41.9275 30.7823C41.9679 30.7577 42.0058 30.7291 42.0407 30.6971L45.3245 26.861C45.4535 26.7099 45.5172 26.5137 45.5017 26.3156C45.4862 26.1174 45.3927 25.9336 45.2417 25.8043C45.0907 25.6751 44.8946 25.611 44.6965 25.6262C44.4983 25.6415 44.3143 25.7347 44.1848 25.8855L43.0419 27.2206C45.6744 12.3596 30.2397 0.513775 16.5519 6.95506C16.3758 7.04164 16.2407 7.19377 16.1754 7.37884C16.1102 7.5639 16.1201 7.76715 16.203 7.94499C16.286 8.12283 16.4352 8.2611 16.6189 8.33014C16.8026 8.39918 17.006 8.39349 17.1855 8.3143Z" fill="#054674"/>
<path d="M4.81844 22.1564L5.9574 20.8259C3.30553 35.4862 18.7912 47.5746 32.4576 41.056C32.6343 40.9696 32.77 40.8174 32.8355 40.632C32.9011 40.4466 32.8912 40.2429 32.808 40.0647C32.7248 39.8865 32.575 39.7481 32.3908 39.6793C32.2066 39.6105 32.0027 39.6168 31.8231 39.6968C19.189 45.7173 4.90724 34.4891 7.45836 20.9473L7.89861 22.924C7.9449 23.115 8.06429 23.2801 8.2311 23.384C8.39791 23.4879 8.59881 23.5222 8.79062 23.4794C8.98243 23.4367 9.14983 23.3205 9.25681 23.1556C9.36379 22.9908 9.40182 22.7906 9.36272 22.598L8.26445 17.6696C8.23648 17.5539 8.18164 17.4464 8.10439 17.3559C8.02714 17.2653 7.92965 17.1942 7.8198 17.1483C7.70996 17.1025 7.59086 17.0831 7.47215 17.0919C7.35344 17.1006 7.23846 17.1372 7.13653 17.1987C7.06272 17.2462 6.99641 17.3044 6.93978 17.3714L3.67878 21.1808C3.55393 21.3325 3.49357 21.5271 3.51066 21.7228C3.52775 21.9185 3.62092 22.0998 3.77017 22.2275C3.91942 22.3553 4.11282 22.4194 4.30883 22.4061C4.50484 22.3928 4.68782 22.3031 4.81844 22.1564Z" fill="#054674"/>
</svg>
