<svg width="49" height="48" viewBox="0 0 49 48" fill="none" xmlns="http://www.w3.org/2000/svg">
<path d="M25.5205 25.8298C25.4465 25.8138 25.3706 25.8109 25.2956 25.8221C24.5444 25.7346 23.9776 25.099 23.9764 24.343C23.9764 23.9806 23.6826 23.6869 23.3202 23.6869C22.9579 23.6869 22.6641 23.9806 22.6641 24.343C22.6661 25.6055 23.5105 26.7115 24.7279 27.0456V27.7017C24.7279 28.064 25.0217 28.3578 25.3841 28.3578C25.7464 28.3578 26.0402 28.064 26.0402 27.7017V27.0853C27.4453 26.7912 28.4003 25.4825 28.2526 24.0546C28.1046 22.6267 26.9016 21.5417 25.4661 21.5413C24.6434 21.5413 23.9764 20.8743 23.9764 20.0516C23.9764 19.2289 24.6434 18.5619 25.4661 18.5619C26.2888 18.5619 26.9558 19.2289 26.9558 20.0516C26.9558 20.414 27.2496 20.7077 27.6119 20.7077C27.9742 20.7077 28.268 20.414 28.268 20.0516C28.2661 18.7259 27.3374 17.5825 26.0402 17.3089V16.7118C26.0402 16.3494 25.7464 16.0557 25.3841 16.0557C25.0217 16.0557 24.7279 16.3494 24.7279 16.7118V17.349C23.3741 17.7187 22.5027 19.0332 22.6891 20.4242C22.8756 21.8153 24.0625 22.8536 25.4661 22.8533C26.2779 22.8533 26.9401 23.5033 26.9548 24.3148C26.9699 25.1263 26.3317 25.8003 25.5205 25.8298Z" fill="#054674"/>
<path d="M15.9531 22.2477C15.9531 27.5024 20.2127 31.762 25.4674 31.762C30.7221 31.762 34.9818 27.5024 34.9818 22.2477C34.9818 16.993 30.7221 12.7334 25.4674 12.7334C20.2153 12.7392 15.9592 16.9956 15.9531 22.2477ZM25.4674 14.0456C29.9975 14.0456 33.6695 17.7177 33.6695 22.2477C33.6695 26.7777 29.9975 30.4498 25.4674 30.4498C20.9374 30.4498 17.2654 26.7777 17.2654 22.2477C17.2705 17.7199 20.9397 14.0508 25.4674 14.0456Z" fill="#054674"/>
<path d="M38.2165 33.3798L33.0769 35.8082C32.3672 34.4882 31.006 33.6482 29.508 33.6059L24.7633 33.4756C24.012 33.4541 23.2749 33.2638 22.6069 32.9188L22.1241 32.6685C19.6521 31.38 16.7057 31.3832 14.2363 32.6769L14.2664 31.5831C14.2763 31.2208 13.9909 30.919 13.6286 30.9091L8.42577 30.7659C8.06343 30.7559 7.76196 31.0414 7.75203 31.4037L7.43775 42.821C7.42782 43.1834 7.71327 43.4852 8.07561 43.4951L13.2784 43.6383H13.2963C13.6519 43.6383 13.9428 43.3554 13.9525 43.0001L13.9675 42.4539L15.3191 41.7302C15.8497 41.4447 16.4699 41.3768 17.0495 41.5408L25.1208 43.8062C25.1349 43.8103 25.149 43.8135 25.1634 43.8167C25.7468 43.9388 26.3414 44 26.9373 43.9997C28.1996 44.0003 29.4471 43.7283 30.5943 43.2016C30.6225 43.1888 30.6498 43.1738 30.6757 43.1568L42.3785 35.5871C42.67 35.3984 42.7642 35.0156 42.5934 34.7131C41.7246 33.1715 39.7976 32.5843 38.2165 33.3798ZM8.7676 42.2014L9.04568 32.0957L12.9366 32.2027L12.6585 42.3088L8.7676 42.2014ZM30.0032 42.0297C28.5779 42.673 26.986 42.8505 25.454 42.5375L17.4044 40.2779C16.4984 40.022 15.5287 40.128 14.6999 40.5736L14.0092 40.9437L14.194 34.2246C16.3828 32.7688 19.1898 32.6192 21.5208 33.8337L22.0036 34.0839C22.8475 34.5196 23.7782 34.7599 24.7274 34.7875L29.4724 34.9179C30.8051 34.9563 31.937 35.9052 32.2074 37.2111L25.1397 37.016C24.7774 37.006 24.4759 37.2918 24.4657 37.6538C24.4557 38.0161 24.7415 38.3179 25.1035 38.3279L32.9032 38.5425H32.9215C33.2768 38.5422 33.5674 38.2593 33.577 37.9043C33.585 37.6192 33.5638 37.3338 33.5135 37.0531L38.7852 34.5622C38.7903 34.56 38.7954 34.5574 38.8006 34.5549C39.5483 34.1765 40.4524 34.3031 41.0675 34.8724L30.0032 42.0297Z" fill="#054674"/>
<path d="M26.1247 10.8892V4.65612C26.1247 4.29378 25.831 4 25.4686 4C25.1063 4 24.8125 4.29378 24.8125 4.65612V10.8892C24.8125 11.2515 25.1063 11.5453 25.4686 11.5453C25.831 11.5453 26.1247 11.2515 26.1247 10.8892Z" fill="#054674"/>
<path d="M31.0388 10.8889V7.93639C31.0388 7.57405 30.745 7.28027 30.3827 7.28027C30.0203 7.28027 29.7266 7.57405 29.7266 7.93639V10.8889C29.7266 11.2512 30.0203 11.545 30.3827 11.545C30.745 11.545 31.0388 11.2512 31.0388 10.8889Z" fill="#054674"/>
<path d="M21.2029 10.8889V7.93639C21.2029 7.57405 20.9091 7.28027 20.5467 7.28027C20.1844 7.28027 19.8906 7.57405 19.8906 7.93639V10.8889C19.8906 11.2512 20.1844 11.545 20.5467 11.545C20.9091 11.545 21.2029 11.2512 21.2029 10.8889Z" fill="#054674"/>
</svg>
