<svg width="49" height="48" viewBox="0 0 49 48" fill="none" xmlns="http://www.w3.org/2000/svg">
<path d="M40.8573 39.9441C40.5423 40.0582 40.3792 40.4064 40.493 40.7216C40.5826 40.9687 40.8156 41.1225 41.0641 41.1225C41.1329 41.1225 41.2026 41.1107 41.2709 41.0859C42.8994 40.4965 43.9933 38.934 43.9933 37.1974V4.70109C43.9933 2.41922 42.1343 0.5625 39.8497 0.5625H13.9014C11.6169 0.5625 9.75781 2.41912 9.75781 4.70109V4.83703C9.75781 5.17237 10.0296 5.44425 10.365 5.44425C10.7005 5.44425 10.9723 5.17247 10.9723 4.83703V4.70109C10.9723 3.08878 12.2863 1.77694 13.9014 1.77694H39.8498C41.465 1.77694 42.7789 3.08878 42.7789 4.70109V37.1973C42.7789 38.4243 42.0067 39.5281 40.8573 39.9441Z" fill="#054674"/>
<path d="M5.00781 10.6488V43.4496C5.00781 45.6482 6.79666 47.437 8.99575 47.437H35.252C37.4507 47.437 39.2395 45.6482 39.2395 43.4496V16.6628C39.2395 16.5272 39.1719 16.3437 39.0617 16.2335L29.6674 6.83898C29.5579 6.72929 29.3674 6.66113 29.2382 6.66113H8.99575C6.79666 6.66113 5.00781 8.44998 5.00781 10.6488ZM35.252 46.2227H8.99575C7.46641 46.2227 6.22216 44.9787 6.22216 43.4496V10.6488C6.22216 9.11944 7.46641 7.87548 8.99575 7.87548H28.6309V14.2456C28.6309 15.9132 29.9876 17.2699 31.6549 17.2699H38.0252V43.4496C38.0252 44.9787 36.7814 46.2227 35.252 46.2227ZM37.1666 16.0555H31.655C30.657 16.0555 29.8454 15.2437 29.8454 14.2456V8.73432L37.1666 16.0555Z" fill="#054674"/>
<path d="M34.8441 23.2373H23.8494C23.5141 23.2373 23.2422 23.5091 23.2422 23.8445C23.2422 24.18 23.514 24.4517 23.8494 24.4517H34.8441C35.1795 24.4517 35.4513 24.18 35.4513 23.8445C35.4513 23.5091 35.1795 23.2373 34.8441 23.2373Z" fill="#054674"/>
<path d="M34.8467 27.2588H10.365C10.0297 27.2588 9.75781 27.5306 9.75781 27.866C9.75781 28.2014 10.0296 28.4732 10.365 28.4732H34.8467C35.1821 28.4732 35.4539 28.2014 35.4539 27.866C35.4539 27.5306 35.1821 27.2588 34.8467 27.2588Z" fill="#054674"/>
<path d="M12.4434 19.3403V24.227C12.4434 24.6388 12.6758 25.0033 13.0496 25.1786C13.4267 25.3553 13.8583 25.2993 14.1814 25.0296L15.4902 23.9184L17.1452 25.1448C17.4645 25.3844 17.8851 25.4229 18.2439 25.2435C18.6029 25.0639 18.8259 24.7022 18.8259 24.2997V19.0565C19.7113 18.1875 20.2627 16.9791 20.2627 15.6434C20.2627 13.0071 18.1157 10.8623 15.4764 10.8623C12.8398 10.8623 10.6953 13.0071 10.6953 15.6434C10.6954 17.1309 11.3769 18.4618 12.4434 19.3403ZM17.6115 23.979L15.8261 22.656C15.5988 22.4878 15.2872 22.498 15.0714 22.6811L13.6578 23.8815V20.068C14.2189 20.3 14.8326 20.4298 15.4765 20.4298C16.2443 20.4298 16.9678 20.2436 17.6115 19.921V23.979ZM15.4765 12.0768C17.446 12.0768 19.0484 13.6769 19.0484 15.6436C19.0484 17.6131 17.4461 19.2155 15.4765 19.2155C13.5098 19.2155 11.9098 17.6131 11.9098 15.6436C11.9098 13.6769 13.5098 12.0768 15.4765 12.0768Z" fill="#054674"/>
<path d="M34.8441 19.2158H23.8494C23.5141 19.2158 23.2422 19.4876 23.2422 19.823C23.2422 20.1585 23.514 20.4303 23.8494 20.4303H34.8441C35.1795 20.4303 35.4513 20.1585 35.4513 19.823C35.4513 19.4876 35.1795 19.2158 34.8441 19.2158Z" fill="#054674"/>
<path d="M10.365 32.5963H16.4539C16.7892 32.5963 17.0611 32.3245 17.0611 31.9891C17.0611 31.6536 16.7893 31.3818 16.4539 31.3818H10.365C10.0297 31.3818 9.75781 31.6536 9.75781 31.9891C9.75781 32.3245 10.0297 32.5963 10.365 32.5963Z" fill="#054674"/>
<path d="M34.8376 31.3818H19.6463C19.3109 31.3818 19.0391 31.6536 19.0391 31.9891C19.0391 32.3245 19.3108 32.5963 19.6463 32.5963H34.8376C35.173 32.5963 35.4448 32.3245 35.4448 31.9891C35.4448 31.6536 35.173 31.3818 34.8376 31.3818Z" fill="#054674"/>
<path d="M16.4539 39.627H10.365C10.0297 39.627 9.75781 39.8987 9.75781 40.2342C9.75781 40.5696 10.0296 40.8414 10.365 40.8414H16.4539C16.7892 40.8414 17.0611 40.5696 17.0611 40.2342C17.0611 39.8987 16.7892 39.627 16.4539 39.627Z" fill="#054674"/>
<path d="M34.8376 39.627H19.6463C19.3109 39.627 19.0391 39.8987 19.0391 40.2342C19.0391 40.5696 19.3108 40.8414 19.6463 40.8414H34.8376C35.173 40.8414 35.4448 40.5696 35.4448 40.2342C35.4448 39.8987 35.173 39.627 34.8376 39.627Z" fill="#054674"/>
<path d="M34.8519 35.5039H28.7635C28.4281 35.5039 28.1562 35.7757 28.1562 36.1111C28.1562 36.4466 28.428 36.7183 28.7635 36.7183H34.8519C35.1872 36.7183 35.4591 36.4466 35.4591 36.1111C35.4591 35.7757 35.1872 35.5039 34.8519 35.5039Z" fill="#054674"/>
<path d="M10.365 36.7183H25.5564C25.8917 36.7183 26.1636 36.4466 26.1636 36.1111C26.1636 35.7757 25.8918 35.5039 25.5564 35.5039H10.365C10.0297 35.5039 9.75781 35.7757 9.75781 36.1111C9.75781 36.4466 10.0297 36.7183 10.365 36.7183Z" fill="#054674"/>
</svg>
