<svg width="46" height="45" viewBox="0 0 46 45" fill="none" xmlns="http://www.w3.org/2000/svg">
<path d="M12.5 33.75C12.5 33.5511 12.579 33.3603 12.7197 33.2197C12.8603 33.079 13.0511 33 13.25 33H20C20.1989 33 20.3897 33.079 20.5303 33.2197C20.671 33.3603 20.75 33.5511 20.75 33.75C20.75 33.9489 20.671 34.1397 20.5303 34.2803C20.3897 34.421 20.1989 34.5 20 34.5H13.25C13.0511 34.5 12.8603 34.421 12.7197 34.2803C12.579 34.1397 12.5 33.9489 12.5 33.75ZM13.25 39H21.5C21.6989 39 21.8897 38.921 22.0303 38.7803C22.171 38.6397 22.25 38.4489 22.25 38.25C22.25 38.0511 22.171 37.8603 22.0303 37.7197C21.8897 37.579 21.6989 37.5 21.5 37.5H13.25C13.0511 37.5 12.8603 37.579 12.7197 37.7197C12.579 37.8603 12.5 38.0511 12.5 38.25C12.5 38.4489 12.579 38.6397 12.7197 38.7803C12.8603 38.921 13.0511 39 13.25 39ZM13.25 30H20C20.1989 30 20.3897 29.921 20.5303 29.7803C20.671 29.6397 20.75 29.4489 20.75 29.25C20.75 29.0511 20.671 28.8603 20.5303 28.7197C20.3897 28.579 20.1989 28.5 20 28.5H13.25C13.0511 28.5 12.8603 28.579 12.7197 28.7197C12.579 28.8603 12.5 29.0511 12.5 29.25C12.5 29.4489 12.579 29.6397 12.7197 29.7803C12.8603 29.921 13.0511 30 13.25 30ZM23 24.75C23 24.5511 22.921 24.3603 22.7803 24.2197C22.6397 24.079 22.4489 24 22.25 24H17C16.8011 24 16.6103 24.079 16.4697 24.2197C16.329 24.3603 16.25 24.5511 16.25 24.75C16.25 24.9489 16.329 25.1397 16.4697 25.2803C16.6103 25.421 16.8011 25.5 17 25.5H22.25C22.4489 25.5 22.6397 25.421 22.7803 25.2803C22.921 25.1397 23 24.9489 23 24.75ZM27.5 20.25C27.5 20.0511 27.421 19.8603 27.2803 19.7197C27.1397 19.579 26.9489 19.5 26.75 19.5H18.5C18.3011 19.5 18.1103 19.579 17.9697 19.7197C17.829 19.8603 17.75 20.0511 17.75 20.25C17.75 20.4489 17.829 20.6397 17.9697 20.7803C18.1103 20.921 18.3011 21 18.5 21H26.75C26.9489 21 27.1397 20.921 27.2803 20.7803C27.421 20.6397 27.5 20.4489 27.5 20.25ZM29.75 15C29.5511 15 29.3603 15.079 29.2197 15.2197C29.079 15.3603 29 15.5511 29 15.75C29 15.9489 29.079 16.1397 29.2197 16.2803C29.3603 16.421 29.5511 16.5 29.75 16.5H34.25C34.4489 16.5 34.6397 16.421 34.7803 16.2803C34.921 16.1397 35 15.9489 35 15.75C35 15.5511 34.921 15.3603 34.7803 15.2197C34.6397 15.079 34.4489 15 34.25 15H29.75ZM20.75 15.75C20.75 15.9489 20.829 16.1397 20.9697 16.2803C21.1103 16.421 21.3011 16.5 21.5 16.5H26.75C26.9489 16.5 27.1397 16.421 27.2803 16.2803C27.421 16.1397 27.5 15.9489 27.5 15.75C27.5 15.5511 27.421 15.3603 27.2803 15.2197C27.1397 15.079 26.9489 15 26.75 15H21.5C21.3011 15 21.1103 15.079 20.9697 15.2197C20.829 15.3603 20.75 15.5511 20.75 15.75ZM22.25 12H28.25C28.4489 12 28.6397 11.921 28.7803 11.7803C28.921 11.6397 29 11.4489 29 11.25C29 11.0511 28.921 10.8603 28.7803 10.7197C28.6397 10.579 28.4489 10.5 28.25 10.5H22.25C22.0511 10.5 21.8603 10.579 21.7197 10.7197C21.579 10.8603 21.5 11.0511 21.5 11.25C21.5 11.4489 21.579 11.6397 21.7197 11.7803C21.8603 11.921 22.0511 12 22.25 12ZM45.5 42.1285C45.5 42.6965 45.3317 43.2516 45.0162 43.7239C44.7006 44.1961 44.2522 44.5641 43.7275 44.7814C43.2028 44.9988 42.6255 45.0556 42.0685 44.9448C41.5115 44.8339 40.9998 44.5604 40.5983 44.1588L36.5542 40.1147C34.4875 41.2091 32.0968 41.5255 29.8166 41.0064C27.5364 40.4874 25.5181 39.1674 24.1288 37.2864C22.7394 35.4053 22.0711 33.0882 22.2454 30.7562C22.4197 28.4242 23.425 26.2322 25.0786 24.5786C26.7322 22.925 28.9242 21.9197 31.2562 21.7454C33.5882 21.5711 35.9053 22.2394 37.7864 23.6288C39.6674 25.0181 40.9874 27.0364 41.5064 29.3166C42.0255 31.5968 41.7091 33.9875 40.6147 36.0541L44.6588 40.0983C44.9263 40.3643 45.1384 40.6807 45.2828 41.0292C45.4272 41.3777 45.501 41.7513 45.5 42.1285ZM32 39.75C33.6317 39.75 35.2267 39.2661 36.5835 38.3596C37.9402 37.4531 38.9976 36.1646 39.622 34.6571C40.2464 33.1496 40.4098 31.4908 40.0915 29.8905C39.7732 28.2902 38.9874 26.8202 37.8336 25.6664C36.6799 24.5126 35.2098 23.7268 33.6095 23.4085C32.0092 23.0902 30.3504 23.2536 28.8429 23.878C27.3354 24.5024 26.0469 25.5598 25.1404 26.9165C24.2339 28.2733 23.75 29.8683 23.75 31.5C23.7525 33.6873 24.6225 35.7843 26.1691 37.3309C27.7157 38.8775 29.8127 39.7475 32 39.75ZM44 42.1285C44.0005 41.9484 43.9653 41.7699 43.8963 41.6034C43.8274 41.437 43.7261 41.2858 43.5983 41.1588L39.785 37.3454C39.2325 38.0795 38.5796 38.7324 37.8455 39.2849L41.6589 43.0983C41.92 43.3479 42.2674 43.4872 42.6286 43.4872C42.9899 43.4872 43.3372 43.3479 43.5984 43.0983C43.7261 42.9713 43.8274 42.8201 43.8964 42.6537C43.9653 42.4872 44.0005 42.3087 44 42.1285ZM36.3865 43.0061C35.9938 43.3233 35.5048 43.4975 35 43.5H12.5C11.9035 43.4993 11.3315 43.2621 10.9097 42.8403C10.4879 42.4185 10.2507 41.8465 10.25 41.25V27C10.25 26.8011 10.171 26.6103 10.0303 26.4697C9.88968 26.329 9.69891 26.25 9.5 26.25C9.30109 26.25 9.11032 26.329 8.96967 26.4697C8.82902 26.6103 8.75 26.8011 8.75 27V41.25C8.75117 42.2442 9.14664 43.1973 9.84964 43.9004C10.5527 44.6034 11.5058 44.9988 12.5 45H35C35.8427 44.9989 36.6599 44.7105 37.3167 44.1825C37.4671 44.0573 37.5626 43.8784 37.5829 43.6838C37.6031 43.4892 37.5466 43.2944 37.4252 43.1409C37.3039 42.9874 37.1274 42.8874 36.9334 42.8623C36.7393 42.8371 36.5429 42.8886 36.3865 43.0061ZM22.25 5.25C22.25 5.05109 22.329 4.86032 22.4697 4.71967C22.6103 4.57902 22.8011 4.5 23 4.5H30.7575C31.2561 4.5014 31.7493 4.60381 32.2073 4.80105C32.2844 4.82242 32.3575 4.85632 32.4237 4.9014C32.7879 5.07841 33.1206 5.31382 33.4088 5.5983L37.6517 9.8412C37.9511 10.1444 38.1961 10.4968 38.3761 10.883C38.386 10.9014 38.3948 10.9197 38.4032 10.9387C38.6294 11.4257 38.748 11.9556 38.75 12.4925V21C38.75 21.1989 38.671 21.3897 38.5303 21.5303C38.3897 21.671 38.1989 21.75 38 21.75C37.8011 21.75 37.6103 21.671 37.4697 21.5303C37.329 21.3897 37.25 21.1989 37.25 21V12.4925C37.2486 12.3265 37.2277 12.1612 37.1878 12H33.5C32.9035 11.9993 32.3315 11.7621 31.9097 11.3403C31.4879 10.9185 31.2507 10.3465 31.25 9.75V6.06247C31.0889 6.02237 30.9235 6.0014 30.7575 6H23C22.8011 6 22.6103 5.92098 22.4697 5.78033C22.329 5.63968 22.25 5.44891 22.25 5.25ZM32.75 7.06057V9.75C32.7503 9.94883 32.8294 10.1394 32.97 10.28C33.1106 10.4206 33.3012 10.4997 33.5 10.5H36.1894L32.75 7.06057ZM38.75 31.5C38.75 32.835 38.3541 34.1401 37.6124 35.2501C36.8707 36.3601 35.8165 37.2253 34.5831 37.7362C33.3497 38.2471 31.9925 38.3808 30.6831 38.1203C29.3738 37.8599 28.171 37.217 27.227 36.273C26.283 35.329 25.6402 34.1262 25.3797 32.8169C25.1193 31.5075 25.2529 30.1503 25.7638 28.9169C26.2747 27.6835 27.1399 26.6293 28.2499 25.8876C29.3599 25.1459 30.665 24.75 32 24.75C33.7896 24.752 35.5053 25.4638 36.7708 26.7292C38.0362 27.9947 38.748 29.7104 38.75 31.5ZM37.25 31.5C37.25 30.4616 36.9421 29.4466 36.3652 28.5833C35.7883 27.7199 34.9684 27.047 34.0091 26.6496C33.0498 26.2523 31.9942 26.1483 30.9758 26.3509C29.9574 26.5534 29.0219 27.0535 28.2877 27.7877C27.5535 28.5219 27.0535 29.4574 26.8509 30.4758C26.6483 31.4942 26.7523 32.5498 27.1496 33.5091C27.547 34.4684 28.2199 35.2883 29.0833 35.8652C29.9466 36.4421 30.9617 36.75 32 36.75C33.3919 36.7485 34.7264 36.1948 35.7106 35.2106C36.6948 34.2264 37.2485 32.8919 37.25 31.5ZM8.75 18.4882C7.32019 17.6627 6.20272 16.3884 5.5709 14.8631C4.93909 13.3378 4.82825 11.6466 5.25556 10.0518C5.68287 8.45709 6.62446 7.0479 7.93429 6.04283C9.24412 5.03777 10.849 4.49298 12.5 4.49298C14.151 4.49298 15.7559 5.03777 17.0657 6.04283C18.3755 7.0479 19.3171 8.45709 19.7444 10.0518C20.1718 11.6466 20.0609 13.3378 19.4291 14.8631C18.7973 16.3884 17.6798 17.6627 16.25 18.4882V20.25C16.2494 20.5375 16.1661 20.8187 16.0101 21.0602C15.8541 21.3017 15.632 21.4932 15.3702 21.6119L14.87 23.6141C14.7891 23.9388 14.6019 24.2271 14.3381 24.433C14.0742 24.6389 13.7491 24.7505 13.4144 24.75H11.5856C11.2511 24.7503 10.926 24.6387 10.6623 24.4328C10.3986 24.2269 10.2114 23.9387 10.1306 23.6141L9.6302 21.6119C9.36832 21.4932 9.1461 21.3017 8.99003 21.0603C8.83397 20.8188 8.75065 20.5375 8.75 20.25V18.4882ZM10.25 18.75V20.25H14.75V18.75H10.25ZM13.4144 23.25L13.7894 21.75H11.2106L11.5856 23.25H13.4144ZM9.63223 17.25H11.75V14.5606L9.71975 12.5303C9.58313 12.3888 9.50754 12.1993 9.50925 12.0027C9.51095 11.8061 9.58983 11.6179 9.72889 11.4789C9.86794 11.3398 10.0561 11.261 10.2527 11.2592C10.4493 11.2575 10.6388 11.3331 10.7803 11.4697L12.5 13.1894L14.2198 11.4697C14.3612 11.3331 14.5507 11.2575 14.7473 11.2592C14.9439 11.261 15.1321 11.3398 15.2711 11.4789C15.4102 11.6179 15.489 11.8061 15.4908 12.0027C15.4925 12.1993 15.4169 12.3888 15.2803 12.5303L13.25 14.5606V17.25H15.3678C16.5393 16.6125 17.4651 15.6028 17.9988 14.3804C18.5325 13.1581 18.6436 11.7927 18.3147 10.5001C17.9858 9.20754 17.2356 8.06139 16.1826 7.24276C15.1295 6.42414 13.8338 5.97972 12.5 5.97972C11.1662 5.97972 9.87045 6.42414 8.81744 7.24276C7.76442 8.06139 7.0142 9.20754 6.68529 10.5001C6.35638 11.7927 6.46755 13.1581 7.00122 14.3804C7.5349 15.6028 8.46065 16.6125 9.63223 17.25ZM2.75 11.25H1.25C1.05109 11.25 0.860322 11.329 0.71967 11.4697C0.579018 11.6103 0.5 11.8011 0.5 12C0.5 12.1989 0.579018 12.3897 0.71967 12.5303C0.860322 12.671 1.05109 12.75 1.25 12.75H2.75C2.94891 12.75 3.13968 12.671 3.28033 12.5303C3.42098 12.3897 3.5 12.1989 3.5 12C3.5 11.8011 3.42098 11.6103 3.28033 11.4697C3.13968 11.329 2.94891 11.25 2.75 11.25ZM5.07538 18.364L4.01473 19.425C3.94458 19.4945 3.88886 19.5772 3.85076 19.6684C3.81267 19.7595 3.79295 19.8572 3.79273 19.956C3.79251 20.0548 3.81181 20.1526 3.8495 20.2439C3.8872 20.3352 3.94256 20.4181 4.0124 20.488C4.08224 20.5578 4.16518 20.6132 4.25647 20.6509C4.34776 20.6886 4.4456 20.7079 4.54437 20.7076C4.64314 20.7074 4.74089 20.6877 4.83201 20.6496C4.92314 20.6115 5.00584 20.5558 5.07538 20.4856L6.13603 19.425C6.20617 19.3555 6.26189 19.2728 6.29999 19.1816C6.33808 19.0905 6.35781 18.9928 6.35802 18.894C6.35824 18.7952 6.33894 18.6974 6.30125 18.6061C6.26355 18.5148 6.20819 18.4319 6.13835 18.362C6.06851 18.2922 5.98557 18.2368 5.89428 18.1991C5.80299 18.1614 5.70515 18.1421 5.60638 18.1424C5.50761 18.1426 5.40986 18.1623 5.31874 18.2004C5.22761 18.2385 5.14491 18.2938 5.07538 18.364ZM19.925 5.63602L20.9857 4.57538C21.0558 4.50584 21.1115 4.42314 21.1496 4.33201C21.1877 4.24089 21.2074 4.14314 21.2076 4.04437C21.2079 3.9456 21.1886 3.84776 21.1509 3.75647C21.1132 3.66518 21.0578 3.58224 20.988 3.5124C20.9181 3.44256 20.8352 3.3872 20.7439 3.3495C20.6526 3.31181 20.5548 3.29251 20.456 3.29273C20.3572 3.29295 20.2595 3.31267 20.1684 3.35076C20.0772 3.38886 19.9945 3.44458 19.925 3.51472L18.864 4.57538C18.7943 4.64504 18.7391 4.72775 18.7014 4.81876C18.6637 4.90978 18.6443 5.00732 18.6444 5.10583C18.6444 5.20434 18.6638 5.30188 18.7015 5.39288C18.7392 5.48389 18.7945 5.56657 18.8642 5.63621C18.9338 5.70586 19.0165 5.7611 19.1076 5.79878C19.1986 5.83646 19.2961 5.85584 19.3946 5.85583C19.4931 5.85581 19.5907 5.83639 19.6817 5.79867C19.7727 5.76096 19.8554 5.70569 19.925 5.63602ZM5.07575 5.63602C5.14489 5.70787 5.22767 5.7652 5.31923 5.80467C5.4108 5.84414 5.50932 5.86496 5.60902 5.8659C5.70873 5.86685 5.80762 5.8479 5.89992 5.81017C5.99221 5.77244 6.07606 5.71669 6.14655 5.64617C6.21704 5.57565 6.27277 5.49179 6.31046 5.39948C6.34816 5.30717 6.36707 5.20827 6.36609 5.10856C6.36511 5.00886 6.34426 4.91035 6.30476 4.8188C6.26525 4.72725 6.20789 4.64449 6.13603 4.57538L5.07538 3.51472C5.00584 3.44458 4.92314 3.38886 4.83201 3.35076C4.74089 3.31267 4.64314 3.29295 4.54437 3.29273C4.4456 3.29251 4.34776 3.31181 4.25647 3.3495C4.16518 3.3872 4.08224 3.44256 4.0124 3.5124C3.94256 3.58224 3.8872 3.66518 3.8495 3.75647C3.81181 3.84776 3.79251 3.9456 3.79273 4.04437C3.79295 4.14314 3.81267 4.24089 3.85076 4.33201C3.88886 4.42314 3.94458 4.50584 4.01473 4.57538L5.07575 5.63602ZM12.5 3C12.6989 3 12.8897 2.92098 13.0303 2.78033C13.171 2.63968 13.25 2.44891 13.25 2.25V0.75C13.25 0.551088 13.171 0.360322 13.0303 0.21967C12.8897 0.0790176 12.6989 0 12.5 0C12.3011 0 12.1103 0.0790176 11.9697 0.21967C11.829 0.360322 11.75 0.551088 11.75 0.75V2.25C11.75 2.44891 11.829 2.63968 11.9697 2.78033C12.1103 2.92098 12.3011 3 12.5 3Z" fill="white"/>
</svg>
