<svg width="40" height="40" viewBox="0 0 40 40" fill="none" xmlns="http://www.w3.org/2000/svg">
<path d="M32.2602 24.3277C31.966 24.3277 31.7269 24.0886 31.7269 23.7944V22.4993H30.9651V23.7944C30.9651 24.0886 30.726 24.3277 30.4318 24.3277C30.1375 24.3277 29.8984 24.0886 29.8984 23.7944V21.966C29.8984 21.6717 30.1375 21.4326 30.4318 21.4326H32.2602C32.5544 21.4326 32.7935 21.6717 32.7935 21.966V23.7944C32.7935 24.0895 32.5544 24.3277 32.2602 24.3277Z" fill="black"/>
<path d="M33.1755 22.4993H29.5177C29.2235 22.4993 28.9844 22.2602 28.9844 21.966C28.9844 21.6717 29.2235 21.4326 29.5177 21.4326H33.1755C33.4697 21.4326 33.7088 21.6717 33.7088 21.966C33.7088 22.2602 33.4697 22.4993 33.1755 22.4993Z" fill="black"/>
<path d="M31.345 39.4839C26.8534 39.4839 23.1992 35.8297 23.1992 31.3382C23.1992 26.8466 26.8534 23.1924 31.345 23.1924C35.8366 23.1924 39.4908 26.8466 39.4908 31.3382C39.4908 35.8297 35.8366 39.4839 31.345 39.4839ZM31.345 24.259C27.4419 24.259 24.2659 27.435 24.2659 31.3382C24.2659 35.2413 27.4419 38.4173 31.345 38.4173C35.2481 38.4173 38.4241 35.2413 38.4241 31.3382C38.4241 27.435 35.249 24.259 31.345 24.259Z" fill="black"/>
<path d="M31.3439 37.1976C28.1128 37.1976 25.4844 34.5692 25.4844 31.3381C25.4844 28.107 28.1128 25.4785 31.3439 25.4785C34.575 25.4785 37.2035 28.107 37.2035 31.3381C37.2035 34.5692 34.575 37.1976 31.3439 37.1976ZM31.3439 26.5452C28.7013 26.5452 26.551 28.6954 26.551 31.3381C26.551 33.9807 28.7013 36.131 31.3439 36.131C33.9866 36.131 36.1368 33.9807 36.1368 31.3381C36.1368 28.6954 33.9866 26.5452 31.3439 26.5452Z" fill="black"/>
<path d="M16.9428 24.5561C12.8672 24.5561 9.55078 21.2405 9.55078 17.1641V14.1925C9.55078 13.8983 9.78989 13.6592 10.0841 13.6592C10.3783 13.6592 10.6174 13.8983 10.6174 14.1925V17.1641C10.6174 20.6521 13.4548 23.4894 16.9428 23.4894C20.4308 23.4894 23.2681 20.6521 23.2681 17.1641V14.1925C23.2681 13.8983 23.5072 13.6592 23.8014 13.6592C24.0957 13.6592 24.3348 13.8983 24.3348 14.1925V17.1641C24.3339 21.2405 21.0183 24.5561 16.9428 24.5561Z" fill="black"/>
<path d="M24.2802 29.0383C24.2348 29.0383 24.1895 29.0321 24.1433 29.0205L20.1611 27.9681C19.9744 27.9192 19.8295 27.7725 19.7815 27.5859L18.7788 23.7147C18.7051 23.4294 18.8766 23.1387 19.1611 23.065C19.4464 22.9912 19.7371 23.1627 19.8108 23.4472L20.7353 27.0161L24.4162 27.9885C24.7006 28.0641 24.8704 28.3556 24.7957 28.6401C24.7326 28.8801 24.5166 29.0383 24.2802 29.0383Z" fill="black"/>
<path d="M30.3547 39.4158H0.939583C0.645361 39.4158 0.40625 39.1767 0.40625 38.8825V33.4327C0.40625 31.6692 1.54136 30.1447 3.23025 29.6372C3.23558 29.6354 3.24003 29.6345 3.24536 29.6327L13 27.0167L13.9405 23.4567C14.016 23.1723 14.3076 23.0025 14.592 23.0772C14.8765 23.1527 15.0471 23.4443 14.9716 23.7287L13.952 27.5874C13.9031 27.7723 13.7591 27.9172 13.5743 27.9661L3.52981 30.6612C2.31825 31.0283 1.47292 32.1669 1.47292 33.4327V38.3492H30.3547C30.6489 38.3492 30.888 38.5883 30.888 38.8825C30.888 39.1767 30.6489 39.4158 30.3547 39.4158Z" fill="black"/>
<path d="M16.8685 29.4029C15.4898 29.4029 14.112 28.8785 13.0622 27.8287C12.8542 27.6207 12.8542 27.2829 13.0622 27.0749C13.2702 26.8669 13.608 26.8669 13.8169 27.0749C15.4996 28.7576 18.2383 28.7576 19.9209 27.0749C20.1289 26.8669 20.4667 26.8669 20.6747 27.0749C20.8827 27.2829 20.8827 27.6207 20.6747 27.8287C19.6249 28.8785 18.2462 29.4029 16.8685 29.4029Z" fill="black"/>
<path d="M23.8029 39.4154C23.5086 39.4154 23.2695 39.1763 23.2695 38.8821V31.5665C23.2695 31.2723 23.5086 31.0332 23.8029 31.0332C24.0971 31.0332 24.3362 31.2723 24.3362 31.5665V38.8821C24.3362 39.1772 24.0971 39.4154 23.8029 39.4154Z" fill="black"/>
<path d="M10.0841 39.4157C9.78989 39.4157 9.55078 39.1766 9.55078 38.8824V28.3517C9.55078 28.0575 9.78989 27.8184 10.0841 27.8184C10.3783 27.8184 10.6174 28.0575 10.6174 28.3517V38.8832C10.6174 39.1775 10.3783 39.4157 10.0841 39.4157Z" fill="black"/>
<path d="M5.5138 39.4155C5.21958 39.4155 4.98047 39.1764 4.98047 38.8822V29.5773C4.98047 29.2831 5.21958 29.0439 5.5138 29.0439C5.80802 29.0439 6.04713 29.2831 6.04713 29.5773V38.8822C6.04713 39.1773 5.80891 39.4155 5.5138 39.4155Z" fill="black"/>
<path d="M28.3751 14.7258H5.5138C5.21958 14.7258 4.98047 14.4867 4.98047 14.1925V11.4493C4.98047 11.1551 5.21958 10.916 5.5138 10.916H28.3742C28.6685 10.916 28.9076 11.1551 28.9076 11.4493V14.1925C28.9085 14.4876 28.6694 14.7258 28.3751 14.7258ZM6.04714 13.6591H27.8409V11.9827H6.04714V13.6591Z" fill="black"/>
<path d="M7.84974 11.9833C7.8293 11.9833 7.80885 11.9824 7.7893 11.9797C7.49685 11.9468 7.28618 11.6819 7.31996 11.3895C7.75818 7.53792 10.744 4.46414 14.5813 3.91659C14.872 3.87481 15.1431 4.07748 15.1849 4.36903C15.2266 4.66059 15.024 4.93081 14.7324 4.97259C11.376 5.4517 8.76352 8.14059 8.38041 11.5104C8.34841 11.7824 8.1173 11.9833 7.84974 11.9833Z" fill="black"/>
<path d="M26.0341 11.9833C25.7665 11.9833 25.5354 11.7824 25.5052 11.5104C25.3159 9.84637 24.5568 8.27392 23.3665 7.0837C22.2137 5.9317 20.7568 5.20192 19.1532 4.97259C18.8617 4.93081 18.659 4.66059 18.7008 4.36903C18.7425 4.07748 19.0128 3.87481 19.3043 3.91659C21.1381 4.17792 22.8039 5.01259 24.1212 6.32903C25.4812 7.68992 26.3497 9.48726 26.5657 11.3895C26.5985 11.6819 26.3888 11.9459 26.0963 11.9797C26.0741 11.9824 26.0545 11.9833 26.0341 11.9833Z" fill="black"/>
<path d="M19.2299 11.9829H14.6583C14.3641 11.9829 14.125 11.7438 14.125 11.4496V1.84779C14.125 1.55356 14.3641 1.31445 14.6583 1.31445H19.2308C19.525 1.31445 19.7641 1.55356 19.7641 1.84779V11.4496C19.7632 11.7447 19.525 11.9829 19.2299 11.9829ZM15.1917 10.9162H18.6974V2.38112H15.1917V10.9162Z" fill="black"/>
<path d="M36.6036 31.6431H31.3458C31.0516 31.6431 30.8125 31.404 30.8125 31.1098V26.004C30.8125 25.7098 31.0516 25.4707 31.3458 25.4707C31.6401 25.4707 31.8792 25.7098 31.8792 26.004V30.5765H36.6036C36.8978 30.5765 37.1369 30.8156 37.1369 31.1098C37.1369 31.404 36.8987 31.6431 36.6036 31.6431Z" fill="black"/>
</svg>
