<svg width="40" height="40" viewBox="0 0 40 40" fill="none" xmlns="http://www.w3.org/2000/svg">
<path fill-rule="evenodd" clip-rule="evenodd" d="M11.2519 10.0244C11.5663 10.0481 11.88 10.0912 12.1913 10.1519C12.4063 10.1944 12.5838 10.3463 12.6582 10.5525C12.6582 10.5525 13.0188 11.5463 13.0182 11.5463C13.7875 11.8256 14.5019 12.2381 15.1282 12.7644L16.1694 12.5794C16.385 12.5413 16.6057 12.6188 16.7494 12.7838C17.4419 13.5769 17.9732 14.4975 18.3138 15.4931C18.385 15.7006 18.3419 15.93 18.2007 16.0981L17.52 16.9069C17.6625 17.7125 17.6625 18.5375 17.52 19.3431L18.2007 20.1519C18.3419 20.32 18.385 20.5494 18.3138 20.7569C17.9732 21.7525 17.4419 22.6731 16.7494 23.4663C16.6057 23.6313 16.385 23.7087 16.1694 23.6706C16.1694 23.6706 15.1282 23.4856 15.1288 23.4856C14.5019 24.0119 13.7875 24.4244 13.0188 24.7038L12.6582 25.6975C12.5838 25.9038 12.4063 26.0556 12.1913 26.0981C11.1582 26.3006 10.0957 26.3006 9.06255 26.0981C8.84755 26.0556 8.67005 25.9038 8.59567 25.6975C8.59567 25.6975 8.23505 24.7038 8.23567 24.7038C7.4663 24.4244 6.75192 24.0119 6.12567 23.4856L5.08442 23.6706C4.8688 23.7087 4.64817 23.6313 4.50442 23.4663C3.81192 22.6731 3.28067 21.7525 2.94005 20.7569C2.8688 20.5494 2.91192 20.32 3.05317 20.1519L3.73317 19.3431C3.5913 18.5375 3.5913 17.7125 3.73317 16.9069L3.05317 16.0981C2.91192 15.93 2.8688 15.7006 2.94005 15.4931C3.28067 14.4975 3.81192 13.5769 4.50442 12.7838C4.64817 12.6188 4.8688 12.5413 5.08442 12.5794C5.08442 12.5794 6.12567 12.7644 6.12505 12.7644C6.75192 12.2381 7.4663 11.8256 8.23505 11.5463L8.59567 10.5525C8.67005 10.3463 8.84755 10.1944 9.06255 10.1519C9.3738 10.0912 9.68755 10.0481 10.0019 10.0244V5.625C10.0019 5.28 10.2819 5 10.6269 5H15.0019C15.3469 5 15.6269 5.28 15.6269 5.625C15.6269 5.97 15.3469 6.25 15.0019 6.25H11.2519V10.0244ZM10.6269 11.25C10.2994 11.25 9.97192 11.2731 9.64692 11.32L9.30817 12.2544C9.24192 12.4381 9.0938 12.58 8.90755 12.6381C8.10005 12.8913 7.35817 13.3194 6.73505 13.8925C6.5913 14.0244 6.39442 14.0819 6.20255 14.0475L5.2238 13.8737C4.81755 14.39 4.48755 14.9619 4.2438 15.5712L4.8838 16.3319C5.00942 16.4813 5.05817 16.6806 5.01567 16.8706C4.83067 17.6969 4.83067 18.5531 5.01567 19.3794C5.05817 19.5694 5.00942 19.7694 4.8838 19.9181L4.2438 20.6787C4.48755 21.2881 4.81755 21.86 5.2238 22.3762L6.20255 22.2025C6.39442 22.1681 6.5913 22.2256 6.73505 22.3575C7.35817 22.9306 8.10005 23.3587 8.90755 23.6119C9.0938 23.67 9.24192 23.8119 9.30817 23.9956L9.64692 24.93C10.2969 25.0231 10.9569 25.0231 11.6069 24.93L11.9457 23.9956C12.0119 23.8119 12.16 23.67 12.3463 23.6119C13.1538 23.3587 13.8957 22.9306 14.5188 22.3575C14.6625 22.2256 14.8594 22.1681 15.0513 22.2025L16.03 22.3762C16.4363 21.86 16.7663 21.2881 17.01 20.6787L16.37 19.9181C16.2444 19.7694 16.1957 19.5694 16.2382 19.3794C16.4232 18.5531 16.4232 17.6969 16.2382 16.8706C16.1957 16.6806 16.2444 16.4813 16.37 16.3319L17.01 15.5712C16.7663 14.9619 16.4363 14.39 16.03 13.8737L15.0513 14.0475C14.8594 14.0819 14.6625 14.0244 14.5188 13.8925C13.8957 13.3194 13.1538 12.8913 12.3463 12.6381C12.16 12.58 12.0119 12.4381 11.9457 12.2544L11.6069 11.32C11.2819 11.2731 10.9544 11.25 10.6269 11.25ZM10.6269 15.625C12.0069 15.625 13.1269 16.745 13.1269 18.125C13.1269 19.505 12.0069 20.625 10.6269 20.625C9.24692 20.625 8.12692 19.505 8.12692 18.125C8.12692 16.745 9.24692 15.625 10.6269 15.625ZM10.6269 16.875C9.93692 16.875 9.37692 17.435 9.37692 18.125C9.37692 18.815 9.93692 19.375 10.6269 19.375C11.3169 19.375 11.8769 18.815 11.8769 18.125C11.8769 17.435 11.3169 16.875 10.6269 16.875ZM20.0638 6.25H17.5019C17.1569 6.25 16.8769 5.97 16.8769 5.625C16.8769 5.28 17.1569 5 17.5019 5H20.0638C20.3544 3.57438 21.6163 2.5 23.1269 2.5C24.8519 2.5 26.2519 3.9 26.2519 5.625C26.2519 7.35 24.8519 8.75 23.1269 8.75C21.6163 8.75 20.3544 7.67562 20.0638 6.25ZM21.2519 5.625C21.2519 6.66 22.0919 7.5 23.1269 7.5C24.1619 7.5 25.0019 6.66 25.0019 5.625C25.0019 4.59 24.1619 3.75 23.1269 3.75C22.0919 3.75 21.2519 4.59 21.2519 5.625ZM19.9394 35C19.6494 36.4256 18.3875 37.5 16.8769 37.5C15.1519 37.5 13.7519 36.1 13.7519 34.375C13.7519 33.5719 14.0557 32.8394 14.5538 32.2856C14.7844 32.0288 15.18 32.0081 15.4363 32.2388C15.6932 32.47 15.7138 32.865 15.4832 33.1219C15.1838 33.4537 15.0019 33.8931 15.0019 34.375C15.0019 35.41 15.8419 36.25 16.8769 36.25C17.9119 36.25 18.7519 35.41 18.7519 34.375C18.7519 33.4644 18.1013 32.7044 17.24 32.535C16.9013 32.4688 16.6807 32.14 16.7469 31.8013C16.8132 31.4631 17.1419 31.2419 17.4807 31.3088C18.7144 31.5506 19.6888 32.5194 19.9394 33.75H28.7519V29.9756C28.4375 29.9519 28.1238 29.9088 27.8125 29.8481C27.5975 29.8056 27.42 29.6538 27.3457 29.4475C27.3457 29.4475 26.985 28.4538 26.9857 28.4538C26.2163 28.1744 25.5019 27.7619 24.8757 27.2356L23.8344 27.4206C23.6188 27.4587 23.3982 27.3813 23.2544 27.2163C22.5619 26.4231 22.0307 25.5025 21.69 24.5069C21.6188 24.2994 21.6619 24.07 21.8032 23.9019L22.4838 23.0931C22.3413 22.2875 22.3413 21.4625 22.4838 20.6569L21.8032 19.8481C21.6619 19.68 21.6188 19.4506 21.69 19.2431C22.0307 18.2475 22.5619 17.3269 23.2544 16.5338C23.3982 16.3688 23.6188 16.2913 23.8344 16.3294C23.8344 16.3294 24.8757 16.5144 24.875 16.5144C25.5019 15.9881 26.2163 15.5756 26.985 15.2963L27.3457 14.3025C27.42 14.0963 27.5975 13.9444 27.8125 13.9019C28.8457 13.6994 29.9082 13.6994 30.9413 13.9019C31.1563 13.9444 31.3338 14.0963 31.4082 14.3025C31.4082 14.3025 31.7688 15.2963 31.7682 15.2963C32.5375 15.5756 33.2519 15.9881 33.8782 16.5144L34.9194 16.3294C35.135 16.2913 35.3557 16.3688 35.4994 16.5338C36.1919 17.3269 36.7232 18.2475 37.0638 19.2431C37.135 19.4506 37.0919 19.68 36.9507 19.8481L36.27 20.6569C36.4125 21.4625 36.4125 22.2875 36.27 23.0931L36.9507 23.9019C37.0919 24.07 37.135 24.2994 37.0638 24.5069C36.7232 25.5025 36.1919 26.4231 35.4994 27.2163C35.3557 27.3813 35.135 27.4587 34.9194 27.4206C34.9194 27.4206 33.8782 27.2356 33.8788 27.2356C33.2519 27.7619 32.5375 28.1744 31.7688 28.4538L31.4082 29.4475C31.3338 29.6538 31.1563 29.8056 30.9413 29.8481C30.63 29.9088 30.3163 29.9519 30.0019 29.9756V34.375C30.0019 34.72 29.7219 35 29.3769 35H19.9394ZM29.3769 28.75C29.7044 28.75 30.0319 28.7269 30.3569 28.68L30.6957 27.7456C30.7619 27.5619 30.91 27.42 31.0963 27.3619C31.9038 27.1087 32.6457 26.6806 33.2688 26.1075C33.4125 25.9756 33.6094 25.9181 33.8013 25.9525L34.78 26.1262C35.1863 25.61 35.5163 25.0381 35.76 24.4287L35.12 23.6681C34.9944 23.5187 34.9457 23.3194 34.9882 23.1294C35.1732 22.3031 35.1732 21.4469 34.9882 20.6206C34.9457 20.4306 34.9944 20.2313 35.12 20.0819L35.76 19.3212C35.5163 18.7119 35.1863 18.14 34.78 17.6237L33.8013 17.7975C33.6094 17.8319 33.4125 17.7744 33.2688 17.6425C32.6457 17.0694 31.9038 16.6413 31.0963 16.3881C30.91 16.33 30.7619 16.1881 30.6957 16.0044L30.3569 15.07C29.7069 14.9769 29.0469 14.9769 28.3969 15.07L28.0582 16.0044C27.9919 16.1881 27.8438 16.33 27.6575 16.3881C26.85 16.6413 26.1082 17.0694 25.485 17.6425C25.3413 17.7744 25.1444 17.8319 24.9525 17.7975L23.9738 17.6237C23.5675 18.14 23.2375 18.7119 22.9938 19.3212L23.6338 20.0819C23.7594 20.2313 23.8082 20.4306 23.7657 20.6206C23.5807 21.4469 23.5807 22.3031 23.7657 23.1294C23.8082 23.3194 23.7594 23.5187 23.6338 23.6681L22.9938 24.4287C23.2375 25.0381 23.5675 25.61 23.9738 26.1262L24.9525 25.9525C25.1444 25.9181 25.3413 25.9756 25.485 26.1075C26.1082 26.6806 26.85 27.1087 27.6575 27.3619C27.8438 27.42 27.9919 27.5619 28.0582 27.7456L28.3969 28.68C28.7219 28.7269 29.0494 28.75 29.3769 28.75ZM29.3769 24.375C27.9969 24.375 26.8769 23.255 26.8769 21.875C26.8769 20.495 27.9969 19.375 29.3769 19.375C30.7569 19.375 31.8769 20.495 31.8769 21.875C31.8769 23.255 30.7569 24.375 29.3769 24.375ZM29.3769 23.125C30.0669 23.125 30.6269 22.565 30.6269 21.875C30.6269 21.185 30.0669 20.625 29.3769 20.625C28.6869 20.625 28.1269 21.185 28.1269 21.875C28.1269 22.565 28.6869 23.125 29.3769 23.125Z" fill="black"/>
</svg>
