<svg width="40" height="40" viewBox="0 0 40 40" fill="none" xmlns="http://www.w3.org/2000/svg">
<path d="M35.4647 28.8709C35.2908 28.6383 35.0648 28.4497 34.8048 28.3202C34.5449 28.1907 34.2582 28.1238 33.9678 28.125H33.8873L34.0475 27.3241C34.1426 26.8489 34.0567 26.3554 33.8066 25.9403C33.5566 25.5253 33.1604 25.2186 32.696 25.0806C32.2315 24.9425 31.7322 24.9829 31.296 25.194C30.8598 25.4051 30.5182 25.7715 30.3383 26.2214L29.5769 28.125H28.125V26.875H24.375V33.125H28.125V32.5H28.2323C28.3144 32.4998 28.3957 32.5158 28.4716 32.5473C28.5474 32.5787 28.6163 32.6249 28.6742 32.6831L29.1919 33.2008C29.3656 33.3755 29.5722 33.514 29.7998 33.6082C30.0274 33.7025 30.2714 33.7507 30.5177 33.75H33.4322C33.8393 33.7487 34.235 33.6155 34.5601 33.3703C34.8851 33.1252 35.1219 32.7812 35.235 32.3901L35.7707 30.5151C35.8516 30.2361 35.8661 29.9421 35.813 29.6566C35.7598 29.3711 35.6406 29.102 35.4647 28.8709ZM26.875 31.875H25.625V28.125H26.875V31.875ZM34.5688 30.1717L34.0331 32.0467C33.9954 32.1771 33.9164 32.2917 33.8081 32.3735C33.6998 32.4552 33.5679 32.4996 33.4322 32.5H30.5177C30.4356 32.5002 30.3543 32.4842 30.2784 32.4527C30.2026 32.4213 30.1337 32.3751 30.0758 32.3169L29.5581 31.7992C29.3844 31.6245 29.1778 31.486 28.9502 31.3918C28.7226 31.2975 28.4786 31.2493 28.2323 31.25H28.125V29.375H30.4231L31.4989 26.6856C31.563 26.5252 31.6849 26.3945 31.8404 26.3192C31.996 26.2439 32.1741 26.2294 32.3398 26.2787C32.5055 26.3279 32.6467 26.4373 32.7359 26.5854C32.8251 26.7334 32.8557 26.9095 32.8218 27.0789L32.3627 29.375H33.9678C34.0646 29.375 34.16 29.3975 34.2465 29.4406C34.3331 29.4838 34.4085 29.5464 34.4668 29.6236C34.525 29.7009 34.5646 29.7905 34.5823 29.8856C34.6 29.9807 34.5954 30.0787 34.5688 30.1717Z" fill="black"/>
<path d="M35 22.8236V3.125C34.9994 2.62789 34.8017 2.15131 34.4502 1.7998C34.0987 1.4483 33.6221 1.25057 33.125 1.25H6.875C6.37789 1.25057 5.90131 1.4483 5.5498 1.7998C5.1983 2.15131 5.00057 2.62789 5 3.125V35.625C5.00095 36.4535 5.33049 37.2478 5.91634 37.8337C6.50218 38.4195 7.29649 38.7491 8.125 38.75H30C31.8626 38.7506 33.6768 38.1566 35.1783 37.0546C36.6799 35.9525 37.7905 34.3999 38.3484 32.6228C38.9063 30.8458 38.8824 28.937 38.2801 27.1745C37.6779 25.4119 36.5287 23.8876 35 22.8236ZM10 35.625C10 36.1223 9.80246 36.5992 9.45083 36.9508C9.09919 37.3025 8.62228 37.5 8.125 37.5C7.62772 37.5 7.15081 37.3025 6.79917 36.9508C6.44754 36.5992 6.25 36.1223 6.25 35.625V3.125C6.25019 2.9593 6.3161 2.80044 6.43327 2.68327C6.55044 2.5661 6.7093 2.50019 6.875 2.5H33.125C33.2907 2.50019 33.4496 2.5661 33.5667 2.68327C33.6839 2.80044 33.7498 2.9593 33.75 3.125V22.0954C32.0644 21.2948 30.167 21.0543 28.335 21.4089C26.503 21.7635 24.8323 22.6947 23.5672 24.0664C22.3021 25.4381 21.5088 27.1784 21.3032 29.0331C21.0977 30.8877 21.4906 32.7595 22.4246 34.375H10V35.625ZM10.6233 37.5C11.0307 36.9599 11.2507 36.3015 11.25 35.625H23.3034C23.9268 36.3663 24.6682 36.9998 25.4976 37.5H10.6233ZM30 37.5C28.5166 37.5 27.0666 37.0601 25.8332 36.236C24.5999 35.4119 23.6386 34.2406 23.0709 32.8701C22.5032 31.4997 22.3547 29.9917 22.6441 28.5368C22.9335 27.082 23.6478 25.7456 24.6967 24.6967C25.7456 23.6478 27.082 22.9335 28.5368 22.6441C29.9917 22.3547 31.4997 22.5032 32.8701 23.0709C34.2406 23.6386 35.4119 24.5999 36.236 25.8332C37.0601 27.0666 37.5 28.5166 37.5 30C37.4978 31.9884 36.7069 33.8948 35.3008 35.3008C33.8948 36.7069 31.9884 37.4978 30 37.5Z" fill="black"/>
<path d="M31.875 17.5H8.125V18.75H31.875V17.5Z" fill="black"/>
<path d="M24.375 20.625H8.125V21.875H24.375V20.625Z" fill="black"/>
<path d="M20.625 23.75H8.125V25H20.625V23.75Z" fill="black"/>
<path d="M13.125 28.125H8.125V29.375H13.125V28.125Z" fill="black"/>
<path d="M15.625 30.625H8.125V31.875H15.625V30.625Z" fill="black"/>
<path d="M20 16.25C21.2361 16.25 22.4445 15.8834 23.4723 15.1967C24.5001 14.5099 25.3012 13.5338 25.7742 12.3918C26.2473 11.2497 26.3711 9.99307 26.1299 8.78069C25.8888 7.56831 25.2935 6.45466 24.4194 5.58059C23.5453 4.70651 22.4317 4.11125 21.2193 3.87009C20.0069 3.62894 18.7503 3.75271 17.6082 4.22576C16.4662 4.6988 15.4901 5.49988 14.8033 6.52769C14.1166 7.5555 13.75 8.76387 13.75 10C13.7519 11.657 14.4109 13.2457 15.5826 14.4174C16.7543 15.5891 18.343 16.2481 20 16.25ZM23.125 13.899C22.2393 14.6115 21.1367 15 20 15C18.8633 15 17.7607 14.6115 16.875 13.899V13.8976C16.8746 13.7814 16.9068 13.6675 16.9678 13.5687C17.0289 13.4698 17.1165 13.3901 17.2205 13.3385L20 11.9488L22.7795 13.3385C22.8836 13.3901 22.9711 13.4699 23.0322 13.5687C23.0932 13.6675 23.1254 13.7814 23.125 13.8976V13.899ZM19.375 8.99651V8.125C19.375 7.95924 19.4408 7.80027 19.5581 7.68306C19.6753 7.56585 19.8342 7.5 20 7.5C20.1658 7.5 20.3247 7.56585 20.4419 7.68306C20.5592 7.80027 20.625 7.95924 20.625 8.125V8.99651C20.6251 9.11994 20.5886 9.24063 20.52 9.34326L20 10.1233L19.48 9.34319C19.4114 9.24058 19.3749 9.11991 19.375 8.99651ZM20 5C20.9168 4.99925 21.8161 5.25078 22.5995 5.72706C23.3829 6.20334 24.0201 6.886 24.4413 7.70027C24.8626 8.51455 25.0517 9.42905 24.9879 10.3436C24.9241 11.2582 24.6098 12.1376 24.0796 12.8855C23.8971 12.601 23.6411 12.3712 23.3385 12.2205L20.9128 11.0076L21.5601 10.0367C21.7657 9.72881 21.8753 9.36678 21.875 8.99651V8.125C21.875 7.62772 21.6775 7.15081 21.3258 6.79918C20.9742 6.44755 20.4973 6.25 20 6.25C19.5027 6.25 19.0258 6.44755 18.6742 6.79918C18.3225 7.15081 18.125 7.62772 18.125 8.125V8.99651C18.1247 9.36675 18.2343 9.72876 18.4399 10.0366L19.0872 11.0076L16.6615 12.2205C16.359 12.3712 16.1029 12.601 15.9204 12.8855C15.3902 12.1376 15.0759 11.2582 15.0121 10.3436C14.9483 9.42905 15.1374 8.51455 15.5586 7.70027C15.9799 6.88599 16.6171 6.20334 17.4005 5.72706C18.1839 5.25078 19.0832 4.99925 20 5Z" fill="black"/>
</svg>
