<svg width="40" height="40" viewBox="0 0 40 40" fill="none" xmlns="http://www.w3.org/2000/svg">
<path fill-rule="evenodd" clip-rule="evenodd" d="M29.5192 4.24491C29.3154 4.24491 29.1304 4.32741 28.9971 4.46116C28.8633 4.59491 28.7808 4.77949 28.7808 4.98366C28.7808 5.18783 28.8633 5.37241 28.9971 5.50574C29.1308 5.63949 29.3154 5.72199 29.5192 5.72199C29.7233 5.72199 29.9079 5.63949 30.0417 5.50574C30.1754 5.37199 30.2579 5.18741 30.2579 4.98366C30.2579 4.77949 30.1754 4.59491 30.0417 4.46116C29.9079 4.32783 29.7233 4.24491 29.5192 4.24491ZM17.1304 33.1107H29.1367V24.2853C28.875 24.2166 28.6417 24.0795 28.4558 23.8941C28.1837 23.622 28.0154 23.2457 28.0154 22.8307C28.0154 22.7945 28.0167 22.7587 28.0192 22.7228C27.2296 22.1857 26.5412 21.2249 26.0171 19.9745C24.6712 20.1462 23.4937 20.0295 22.6329 19.6132C22.6042 19.6324 22.575 19.6512 22.5446 19.6687L22.5417 19.6703C22.1821 19.8782 21.7729 19.9203 21.4021 19.8212C21.04 19.7241 20.7133 19.4912 20.5046 19.1445C20.4992 19.137 20.4946 19.1291 20.4896 19.1207C20.2817 18.7607 20.2392 18.3512 20.3387 17.9799C20.4358 17.6174 20.6679 17.2912 21.0129 17.0828C21.0304 17.0707 21.0487 17.0603 21.0679 17.0512C21.0904 17.0387 21.1129 17.0274 21.1354 17.0162C21.2058 16.0637 21.6937 14.9866 22.515 13.907C21.6937 12.8274 21.2058 11.7503 21.1354 10.7978C21.1029 10.782 21.0712 10.7653 21.0396 10.747C20.68 10.5395 20.4387 10.2057 20.3392 9.83449C20.3196 9.76116 20.3054 9.68658 20.2971 9.61116H9.57292V19.8916H15.8608C16.2104 19.8916 16.5279 20.0341 16.7579 20.2641C16.9879 20.4941 17.1304 20.8116 17.1304 21.1612V24.6749C17.1304 25.0195 16.9917 25.3328 16.7679 25.562C16.9921 25.7912 17.1304 26.1045 17.1304 26.4487V29.9624C17.1304 30.307 16.9917 30.6203 16.7679 30.8495C16.9921 31.0787 17.1304 31.392 17.1304 31.7366V33.1107ZM29.5192 33.8762H17.1304V35.2503C17.1304 35.5999 16.9879 35.9174 16.7579 36.1474C16.5279 36.3774 16.2104 36.5199 15.8608 36.5199H2.51958C2.17 36.5199 1.8525 36.3774 1.6225 36.1474C1.3925 35.9174 1.25 35.5999 1.25 35.2503V31.7366C1.25 31.392 1.38875 31.0787 1.61292 30.8495C1.38875 30.6203 1.25 30.307 1.25 29.9624V26.4487C1.25 26.1041 1.38875 25.7907 1.61292 25.562C1.38875 25.3328 1.25 25.0195 1.25 24.6749V21.1612C1.25 20.8116 1.39292 20.4941 1.6225 20.2641C1.8525 20.0341 2.17 19.8916 2.51958 19.8916H8.8075V9.22824C8.8075 9.01699 8.97875 8.84574 9.19 8.84574H20.4129C20.435 8.79491 20.4604 8.74491 20.4888 8.69533L20.49 8.69366C20.6975 8.33408 21.0312 8.09283 21.4025 7.99324C21.7738 7.89366 22.1833 7.93616 22.5433 8.14408L22.5429 8.14449C22.5737 8.16241 22.6038 8.18116 22.6329 8.20074C23.4937 7.78449 24.6712 7.66783 26.0171 7.83949C26.5412 6.58908 27.2296 5.62824 28.0192 5.09116C28.0167 5.05574 28.0154 5.01949 28.0154 4.98324C28.0154 4.56783 28.1837 4.19199 28.4558 3.91991C28.7279 3.64783 29.1042 3.47949 29.5192 3.47949C29.9346 3.47949 30.3104 3.64783 30.5825 3.91991C30.8546 4.19199 31.0229 4.56824 31.0229 4.98324C31.0229 5.01949 31.0217 5.05533 31.0192 5.09074C31.8087 5.62783 32.4971 6.58866 33.0212 7.83908C34.3671 7.66741 35.5446 7.78408 36.4054 8.20033C36.4346 8.18074 36.4646 8.16199 36.495 8.14408L36.4967 8.14324C36.8563 7.93574 37.2654 7.89324 37.6362 7.99241C37.9983 8.08949 38.325 8.32241 38.5337 8.66908C38.5387 8.67658 38.5437 8.68449 38.5487 8.69283C38.7567 9.05283 38.7992 9.46241 38.6996 9.83366C38.6 10.2053 38.3587 10.5387 37.9992 10.7462L37.9987 10.7453L37.9975 10.7462C37.9662 10.7641 37.9346 10.7807 37.9029 10.7962C37.8329 11.7491 37.345 12.8262 36.5233 13.9062C37.3446 14.9857 37.8329 16.0628 37.9029 17.0153C37.9258 17.0266 37.9483 17.0382 37.9708 17.0503C37.9896 17.0591 38.0079 17.0695 38.0254 17.0816C38.3704 17.2899 38.6025 17.6162 38.6996 17.9787C38.7954 18.337 38.7592 18.7316 38.5683 19.0824C38.5588 19.1041 38.5471 19.1253 38.5329 19.1453C38.3246 19.4903 37.9983 19.7224 37.6358 19.8195C37.2733 19.9166 36.8742 19.8782 36.5204 19.682C36.5117 19.6778 36.5033 19.6732 36.495 19.6687C36.4637 19.6507 36.4338 19.632 36.4046 19.612C35.5442 20.0278 34.3671 20.1445 33.0212 19.9728C32.4971 21.2232 31.8087 22.1841 31.0192 22.7212C31.0217 22.7566 31.0229 22.7928 31.0229 22.8291C31.0229 23.2445 30.8546 23.6203 30.5825 23.8924C30.3971 24.0778 30.1633 24.2153 29.9017 24.2837V33.4916C29.9021 33.7049 29.7304 33.8762 29.5192 33.8762ZM21.0696 9.28324C21.0842 9.21866 21.1075 9.15491 21.14 9.09449C21.1479 9.08241 21.1554 9.06991 21.1617 9.05658C21.2646 8.89033 21.4233 8.77866 21.5992 8.73158C21.7763 8.68408 21.97 8.70158 22.1417 8.79449C22.1558 8.80408 22.1712 8.81241 22.1867 8.81991C22.2296 8.84699 22.2687 8.87783 22.3037 8.91199C22.3125 8.92158 22.3212 8.93074 22.3304 8.93949C22.4142 9.02908 22.4733 9.13783 22.5046 9.25449C22.5537 9.43783 22.5333 9.63908 22.4317 9.81574C22.3296 9.99241 22.1654 10.1112 21.9825 10.1603C21.7992 10.2095 21.5975 10.1891 21.4217 10.0874C21.245 9.98533 21.1262 9.82116 21.0771 9.63824C21.0496 9.53616 21.0442 9.42824 21.0617 9.32241C21.0654 9.30866 21.0679 9.29616 21.0696 9.28324ZM29.5192 11.2895C30.2421 11.2895 30.8967 11.5824 31.3704 12.0562C31.8442 12.5299 32.1371 13.1845 32.1371 13.907C32.1371 14.6299 31.8442 15.2841 31.3704 15.7578C30.8967 16.2316 30.2421 16.5245 29.5192 16.5245C28.7967 16.5245 28.1421 16.2316 27.6683 15.7578C27.1946 15.2841 26.9017 14.6295 26.9017 13.907C26.9017 13.1841 27.1946 12.5299 27.6683 12.0562C28.1421 11.5824 28.7967 11.2895 29.5192 11.2895ZM30.8292 12.5974C31.1642 12.9328 31.3717 13.3957 31.3717 13.9074C31.3717 14.4191 31.1642 14.882 30.8292 15.2174C30.4942 15.5524 30.0308 15.7599 29.5192 15.7599C29.0075 15.7599 28.5446 15.5524 28.2092 15.2174C27.8742 14.8824 27.6667 14.4191 27.6667 13.9074C27.6667 13.3957 27.8737 12.9328 28.2092 12.5974C28.5446 12.2624 29.0075 12.0549 29.5192 12.0549C30.0308 12.0549 30.4942 12.262 30.8292 12.5974ZM6.39458 33.8762C6.18333 33.8762 6.01208 33.7049 6.01208 33.4937C6.01208 33.2824 6.18333 33.1112 6.39458 33.1112H14.5962C14.8075 33.1112 14.9788 33.2824 14.9788 33.4937C14.9788 33.7049 14.8075 33.8762 14.5962 33.8762H6.39458ZM3.89208 33.9187C4.00958 33.9187 4.11583 33.8712 4.19292 33.7941C4.27 33.717 4.3175 33.6107 4.3175 33.4932C4.3175 33.3757 4.27 33.2695 4.19292 33.1924C4.11583 33.1153 4.00958 33.0678 3.89208 33.0678C3.77458 33.0678 3.66833 33.1153 3.59125 33.1924C3.51458 33.2695 3.46667 33.3757 3.46667 33.4932C3.46667 33.6107 3.51417 33.717 3.59125 33.7941C3.66833 33.8712 3.77458 33.9187 3.89208 33.9187ZM4.73417 34.3353C4.94958 34.1199 5.08292 33.822 5.08292 33.4932C5.08292 33.1645 4.94958 32.867 4.73417 32.6516C4.51875 32.4362 4.22125 32.3028 3.89208 32.3028C3.56333 32.3028 3.26583 32.4362 3.05042 32.6516C2.835 32.867 2.70167 33.1645 2.70167 33.4932C2.70167 33.822 2.835 34.1195 3.05042 34.3353C3.26583 34.5507 3.56333 34.6841 3.89208 34.6841C4.22083 34.6841 4.51875 34.5507 4.73417 34.3353ZM2.51958 35.7549C2.38125 35.7549 2.25542 35.6982 2.16375 35.6066C2.07208 35.5149 2.01542 35.3891 2.01542 35.2507V31.737C2.01542 31.5987 2.07208 31.4728 2.16375 31.3812C2.25542 31.2895 2.38125 31.2328 2.51958 31.2328H15.8608C15.9992 31.2328 16.125 31.2895 16.2167 31.3812C16.3083 31.4728 16.365 31.5987 16.365 31.737V33.4937V35.2507C16.365 35.3891 16.3083 35.5149 16.2167 35.6066C16.125 35.6982 15.9992 35.7549 15.8608 35.7549H2.51958ZM6.39458 28.5882C6.18333 28.5882 6.01208 28.417 6.01208 28.2053C6.01208 27.9941 6.18333 27.8228 6.39458 27.8228H14.5962C14.8075 27.8228 14.9788 27.9941 14.9788 28.2053C14.9788 28.4166 14.8075 28.5882 14.5962 28.5882H6.39458ZM3.89208 27.0149C3.56333 27.0149 3.26583 27.1482 3.05042 27.3637C2.835 27.5791 2.70167 27.877 2.70167 28.2057C2.70167 28.5345 2.835 28.832 3.05042 29.0478C3.26583 29.2632 3.56333 29.3966 3.89208 29.3966C4.22083 29.3966 4.51833 29.2632 4.73417 29.0478C4.94958 28.8324 5.08292 28.5345 5.08292 28.2057C5.08292 27.877 4.94958 27.5795 4.73417 27.3637C4.51875 27.1482 4.22083 27.0149 3.89208 27.0149ZM4.19292 27.9049C4.11583 27.8278 4.00958 27.7803 3.89208 27.7803C3.77458 27.7803 3.66833 27.8278 3.59125 27.9049C3.51458 27.982 3.46667 28.0882 3.46667 28.2057C3.46667 28.3232 3.51417 28.4295 3.59125 28.5066C3.66833 28.5837 3.77458 28.6312 3.89208 28.6312C4.00958 28.6312 4.11583 28.5837 4.19292 28.5066C4.27 28.4295 4.3175 28.3232 4.3175 28.2057C4.3175 28.0882 4.27 27.982 4.19292 27.9049ZM2.51958 25.9445H15.8608C15.9992 25.9445 16.125 26.0012 16.2167 26.0928C16.3083 26.1845 16.365 26.3103 16.365 26.4487V29.9624C16.365 30.1007 16.3083 30.2266 16.2167 30.3182C16.125 30.4099 15.9992 30.4666 15.8608 30.4666H2.51958C2.38125 30.4666 2.25542 30.4099 2.16375 30.3182C2.07208 30.2266 2.01542 30.1007 2.01542 29.9624V26.4487C2.01542 26.3103 2.07208 26.1845 2.16375 26.0928C2.25542 26.0012 2.38125 25.9445 2.51958 25.9445ZM6.39458 23.3007C6.18333 23.3007 6.01208 23.1295 6.01208 22.9182C6.01208 22.707 6.18333 22.5357 6.39458 22.5357H14.5962C14.8075 22.5357 14.9788 22.707 14.9788 22.9182C14.9788 23.1295 14.8075 23.3007 14.5962 23.3007H6.39458ZM3.89208 21.7274C3.56333 21.7274 3.26583 21.8607 3.05042 22.0762C2.835 22.2916 2.70167 22.5891 2.70167 22.9182C2.70167 23.247 2.835 23.5445 3.05042 23.7599C3.26583 23.9753 3.56333 24.1087 3.89208 24.1087C4.22083 24.1087 4.51833 23.9753 4.73417 23.7599C4.94958 23.5445 5.08292 23.247 5.08292 22.9182C5.08292 22.5895 4.94958 22.2916 4.73417 22.0762C4.51875 21.8607 4.22083 21.7274 3.89208 21.7274ZM4.19292 22.617C4.11583 22.5399 4.00958 22.4924 3.89208 22.4924C3.77458 22.4924 3.66833 22.5399 3.59125 22.617C3.51458 22.6941 3.46667 22.8003 3.46667 22.9178C3.46667 23.0353 3.51417 23.1416 3.59125 23.2187C3.66833 23.2957 3.77458 23.3432 3.89208 23.3432C4.00958 23.3432 4.11583 23.2957 4.19292 23.2187C4.27 23.142 4.3175 23.0353 4.3175 22.9178C4.3175 22.8003 4.27 22.6941 4.19292 22.617ZM15.8608 20.6566C15.9992 20.6566 16.125 20.7137 16.2167 20.8049C16.3083 20.8962 16.365 21.0224 16.365 21.1607V24.6745C16.365 24.8128 16.3083 24.9387 16.2167 25.0303C16.125 25.122 15.9992 25.1787 15.8608 25.1787H2.51958C2.38125 25.1787 2.25542 25.1216 2.16375 25.0303C2.07208 24.9387 2.01542 24.8128 2.01542 24.6745V21.1607C2.01542 21.0224 2.07208 20.8966 2.16375 20.8049C2.25542 20.7132 2.38125 20.6566 2.51958 20.6566H9.19H15.8608ZM23.0771 17.5907C22.8687 17.2457 22.5425 17.0137 22.18 16.9166C22.0942 16.8937 22.0062 16.8782 21.9171 16.8707C22.0204 16.1562 22.4017 15.347 23.0117 14.5145C23.5917 15.1762 24.2938 15.8341 25.0975 16.4582C25.2362 17.4662 25.455 18.4037 25.7383 19.2378C24.7125 19.3499 23.8217 19.2757 23.1517 19.0082C23.1896 18.9274 23.2204 18.8437 23.2433 18.7578C23.3396 18.3995 23.3029 18.0053 23.1125 17.6545C23.1029 17.632 23.0912 17.6107 23.0771 17.5907ZM22.4208 17.9803C22.4283 17.9953 22.4371 18.0099 22.4467 18.0237C22.5362 18.1941 22.5525 18.3853 22.5054 18.5603C22.4742 18.677 22.415 18.7857 22.3312 18.8753C22.3221 18.8837 22.3129 18.8928 22.3046 18.9024C22.2692 18.9366 22.23 18.9678 22.1871 18.9945C22.1696 19.0028 22.1529 19.0124 22.1367 19.0237C21.9662 19.1132 21.775 19.1295 21.6004 19.0824C21.4254 19.0353 21.2683 18.9262 21.1658 18.7637C21.1583 18.7482 21.15 18.7332 21.1404 18.7191C21.0479 18.5474 21.0304 18.3537 21.0779 18.177C21.1271 17.9945 21.2454 17.8303 21.4221 17.7282L21.4225 17.7278C21.5987 17.6262 21.8004 17.6057 21.9833 17.6545C22.1592 17.702 22.3179 17.8141 22.4208 17.9803ZM37.8983 9.09491C37.8887 9.08033 37.8804 9.06533 37.8729 9.04991C37.7708 8.88783 37.6133 8.77824 37.4383 8.73158C37.2633 8.68491 37.0721 8.70116 36.9017 8.79074C36.8854 8.80158 36.8687 8.81158 36.8512 8.81991C36.8083 8.84699 36.7692 8.87783 36.7337 8.91199C36.725 8.92158 36.7162 8.93074 36.7067 8.93949C36.6229 9.02949 36.5638 9.13783 36.5325 9.25449C36.4833 9.43783 36.5037 9.63908 36.6058 9.81574L36.6154 9.83324C36.7175 9.99991 36.8771 10.1124 37.055 10.1599C37.2383 10.2091 37.44 10.1887 37.6162 10.0874L37.6158 10.087C37.7925 9.98491 37.9117 9.82074 37.9604 9.63783C38.0083 9.46033 37.9908 9.26658 37.8983 9.09491ZM37.1212 10.9437C37.0321 10.9362 36.9442 10.9207 36.8583 10.8978C36.4963 10.8007 36.1696 10.5678 35.9604 10.2212C35.9554 10.2137 35.9504 10.2057 35.9458 10.1974C35.7379 9.83741 35.6954 9.42783 35.795 9.05658C35.8179 8.97074 35.8487 8.88699 35.8867 8.80616C35.2171 8.53866 34.3258 8.46449 33.3 8.57658C33.5833 9.41074 33.8021 10.3487 33.9408 11.3566C34.7446 11.9807 35.4467 12.6387 36.0267 13.3003C36.6367 12.4674 37.0183 11.6582 37.1212 10.9437ZM36.0267 14.5141C35.4462 15.1762 34.7442 15.8345 33.9408 16.4587C33.8021 17.4666 33.5833 18.4037 33.3 19.2378C34.3258 19.3499 35.2167 19.2757 35.8867 19.0082C35.8487 18.9274 35.8179 18.8437 35.795 18.7578C35.6954 18.3866 35.7379 17.977 35.9458 17.617C36.1533 17.2574 36.4871 17.0162 36.8583 16.9166C36.9442 16.8937 37.0321 16.8782 37.1212 16.8707C37.0183 16.1562 36.6367 15.347 36.0267 14.5141ZM33.0642 17.0978C32.6671 17.3699 32.25 17.6328 31.8158 17.8837C31.8083 17.8878 31.8012 17.892 31.7937 17.8953C31.3658 18.1416 30.9367 18.3674 30.5092 18.5724C31.2083 18.8199 31.8883 19.0041 32.5317 19.1237C32.7492 18.5078 32.9292 17.8274 33.0642 17.0978ZM29.5192 19.0116C30.4621 19.3962 31.3829 19.6757 32.2458 19.8474C31.83 20.7912 31.3204 21.5253 30.7537 21.9716C30.7025 21.8987 30.6454 21.8303 30.5825 21.7674C30.3104 21.4953 29.9342 21.327 29.5192 21.327C29.1042 21.327 28.7279 21.4953 28.4558 21.7674C28.3929 21.8303 28.3358 21.8987 28.285 21.9716C27.7183 21.5253 27.2087 20.7912 26.7929 19.8474C27.6554 19.6757 28.5763 19.3962 29.5192 19.0116ZM26.5067 19.1237C26.2892 18.5074 26.1092 17.827 25.9742 17.097C26.3721 17.3695 26.7892 17.6324 27.2242 17.8837C27.6587 18.1345 28.095 18.3641 28.5292 18.5724C27.83 18.8199 27.1504 19.0041 26.5067 19.1237ZM29.5192 18.1849C28.8858 17.9132 28.2433 17.5924 27.6042 17.2232C26.9654 16.8545 26.3671 16.4595 25.8158 16.0478C25.735 15.3637 25.6917 14.6466 25.6917 13.9074C25.6917 13.1682 25.7346 12.4512 25.8158 11.7674C26.3671 11.3557 26.9654 10.9603 27.6042 10.5916L27.6054 10.5907L27.6058 10.5916C28.245 10.2224 28.8867 9.90158 29.5196 9.63033C30.1525 9.90199 30.7942 10.2224 31.4333 10.5916C31.44 10.5953 31.4471 10.5991 31.4537 10.6024C32.0854 10.9682 32.6771 11.3595 33.2229 11.767C33.3037 12.4512 33.3471 13.1678 33.3471 13.907C33.3471 14.6462 33.3037 15.3628 33.2229 16.0466C32.6712 16.4582 32.0725 16.8537 31.4329 17.2228C31.4263 17.2266 31.42 17.2303 31.4142 17.2345C30.7812 17.5991 30.1458 17.9162 29.5192 18.1849ZM34.0558 15.382C34.6204 14.8999 35.1196 14.4037 35.5446 13.907C35.1196 13.4099 34.62 12.9132 34.0558 12.4316C34.0929 12.912 34.1121 13.4049 34.1121 13.907C34.1121 14.4091 34.0929 14.9016 34.0558 15.382ZM23.0121 13.2999C22.4021 12.4674 22.0204 11.6582 21.9175 10.9437C22.0067 10.9362 22.0946 10.9207 22.1804 10.8978C22.5521 10.7982 22.8854 10.557 23.0929 10.1974C23.3008 9.83741 23.3433 9.42783 23.2437 9.05658C23.2208 8.97074 23.19 8.88699 23.1521 8.80616C23.8221 8.53866 24.7129 8.46449 25.7387 8.57658C25.4554 9.41074 25.2367 10.3487 25.0979 11.3566C24.2942 11.9803 23.5921 12.6382 23.0121 13.2999ZM25.9742 10.7174C26.1092 9.98783 26.2892 9.30699 26.5067 8.69074C27.1496 8.81033 27.8292 8.99449 28.5279 9.24199C28.0933 9.45033 27.6575 9.67991 27.2225 9.93074L27.2229 9.93158C26.7883 10.182 26.3717 10.4453 25.9742 10.7174ZM29.5192 8.80241C30.4617 8.41824 31.3829 8.13866 32.2458 7.96699C31.83 7.02324 31.3204 6.28908 30.7537 5.84283C30.7025 5.91574 30.6454 5.98449 30.5825 6.04699C30.3104 6.31908 29.9346 6.48741 29.5192 6.48741C29.1038 6.48741 28.7279 6.31908 28.4558 6.04699C28.3929 5.98408 28.3358 5.91574 28.285 5.84283C27.7183 6.28908 27.2087 7.02324 26.7929 7.96699C27.6558 8.13866 28.5767 8.41783 29.5192 8.80241ZM32.5317 8.69074C31.8887 8.81033 31.2092 8.99449 30.51 9.24199C30.9446 9.45033 31.3808 9.67991 31.8154 9.93074C31.8225 9.93491 31.8292 9.93908 31.8358 9.94366C32.2629 10.1912 32.6729 10.4499 33.0637 10.7178C32.9296 9.98741 32.7496 9.30699 32.5317 8.69074ZM24.9829 12.4316C24.9458 12.912 24.9262 13.4049 24.9262 13.907C24.9262 14.4091 24.9454 14.902 24.9829 15.3824C24.4187 14.9007 23.9192 14.4041 23.4942 13.907C23.9192 13.4099 24.4183 12.9137 24.9829 12.4316ZM36.6062 17.9995C36.5046 18.1757 36.4842 18.377 36.5329 18.5603C36.5654 18.6812 36.6283 18.7937 36.7179 18.8857L36.7217 18.8895C36.7621 18.9303 36.8075 18.967 36.8583 18.9982C36.8737 19.0057 36.8883 19.0145 36.9021 19.0241C37.0721 19.1137 37.2637 19.1299 37.4383 19.0828C37.6146 19.0357 37.7733 18.9237 37.8758 18.7574C37.8833 18.742 37.8921 18.7274 37.9017 18.7137C37.9912 18.5437 38.0075 18.352 37.9608 18.177C37.9117 17.9941 37.7929 17.8299 37.6162 17.7278C37.44 17.6262 37.2383 17.6057 37.0554 17.6549C36.8729 17.7037 36.7083 17.8228 36.6062 17.9995ZM29.5192 22.092C29.7233 22.092 29.9079 22.1745 30.0417 22.3082C30.1754 22.442 30.2579 22.6266 30.2579 22.8307C30.2579 23.0349 30.1754 23.2195 30.0417 23.3532C29.9079 23.487 29.7233 23.5695 29.5192 23.5695C29.3154 23.5695 29.1304 23.487 28.9971 23.3532C28.8633 23.2195 28.7808 23.0349 28.7808 22.8307C28.7808 22.6266 28.8633 22.442 28.9971 22.3082C29.1304 22.1745 29.3154 22.092 29.5192 22.092Z" fill="black"/>
</svg>
