<svg width="40" height="40" viewBox="0 0 40 40" fill="none" xmlns="http://www.w3.org/2000/svg">
<path d="M37.1594 7.86367H23.9586C23.0383 7.86367 22.2898 8.61211 22.2898 9.53242V23.002C20.9836 22.0684 19.4336 21.5215 17.832 21.4457H17.8313C17.8289 21.4457 17.8266 21.4457 17.8242 21.4449V21.4457C17.7492 21.4426 17.6727 21.4566 17.6023 21.4895L13.5031 23.4262L9.40391 21.4895C9.33359 21.4566 9.25781 21.4418 9.18281 21.4457V21.4449C7.025 21.5418 5.00703 22.4699 3.50078 24.059C1.99922 25.6418 1.17188 27.7035 1.17188 29.8637V31.5973C1.17188 32.5871 1.97734 33.3934 2.96797 33.3934H24.0391C25.0289 33.3934 25.8352 32.5879 25.8352 31.5973V29.8637C25.8352 29.7762 25.8336 29.6887 25.8305 29.6012H37.1594C38.0797 29.6012 38.8281 28.8527 38.8281 27.9324V9.53242C38.8281 8.61211 38.0797 7.86367 37.1594 7.86367ZM17.3336 22.6535V25.2363L14.6 23.9449L17.3336 22.6535ZM13.5031 24.4637L14.7266 25.0418L15.15 32.4566H11.8562L12.2797 25.0418L13.5031 24.4637ZM9.67266 22.6535L12.4062 23.9449L9.67266 25.2363V22.6535ZM2.10938 31.598V29.8645C2.10938 26.0809 5.03906 22.8418 8.73516 22.4215V25.977C8.73516 26.1379 8.81719 26.2871 8.95312 26.373C9.02969 26.4215 9.11641 26.4457 9.20391 26.4457C9.27187 26.4457 9.34062 26.4309 9.40391 26.4004L11.3148 25.4973L10.9172 32.4559H6.83516V29.5426C6.83516 29.284 6.625 29.0738 6.36641 29.0738C6.10781 29.0738 5.89766 29.284 5.89766 29.5426V32.4559H2.96797C2.49453 32.4559 2.10938 32.0707 2.10938 31.598ZM24.8977 29.8637V31.5973C24.8977 32.0707 24.5125 32.4559 24.0391 32.4559H21.1094V29.5426C21.1094 29.284 20.8992 29.0738 20.6406 29.0738C20.382 29.0738 20.1719 29.284 20.1719 29.5426V32.4559H16.0898L15.6922 25.4973L17.6031 26.4004C17.6664 26.4301 17.7352 26.4457 17.8031 26.4457C17.8906 26.4457 17.9781 26.4215 18.0539 26.373C18.1898 26.2871 18.2719 26.1379 18.2719 25.977V22.423C19.7484 22.5918 21.1539 23.2098 22.2906 24.1941V27.9332C22.2906 28.8535 23.0391 29.602 23.9594 29.602H24.8914C24.8945 29.6895 24.8977 29.777 24.8977 29.8637ZM37.8906 27.9324C37.8906 28.3355 37.5625 28.6637 37.1594 28.6637H23.9586C23.5555 28.6637 23.2273 28.3355 23.2273 27.9324V9.53242C23.2273 9.1293 23.5555 8.80117 23.9586 8.80117H37.1594C37.5625 8.80117 37.8906 9.1293 37.8906 9.53242V27.9324ZM28.9227 11.4816L26.4086 14.5676C26.3195 14.677 26.1859 14.7402 26.0453 14.7402C26.0445 14.7402 26.0438 14.7402 26.043 14.7402C25.9016 14.7395 25.7672 14.6746 25.6789 14.5645L24.4219 12.9926C24.2602 12.7902 24.293 12.4957 24.4953 12.334C24.6977 12.1723 24.9922 12.2051 25.1539 12.4074L26.0484 13.5254L28.1961 10.8895C28.3594 10.6887 28.6547 10.659 28.8555 10.8223C29.0562 10.9855 29.0867 11.2809 28.9227 11.4816ZM28.3336 23.9676L27.3438 24.9574L28.3336 25.9473C28.5164 26.1301 28.5164 26.427 28.3336 26.6098C28.2422 26.7012 28.1219 26.7473 28.0023 26.7473C27.882 26.7473 27.7625 26.7012 27.6711 26.6098L26.6812 25.6199L25.6914 26.6098C25.6 26.7012 25.4797 26.7473 25.3602 26.7473C25.2406 26.7473 25.1203 26.7012 25.0289 26.6098C24.8461 26.427 24.8461 26.1301 25.0289 25.9473L26.0188 24.9574L25.0289 23.9676C24.8461 23.7848 24.8461 23.4879 25.0289 23.3051C25.2117 23.1223 25.5086 23.1223 25.6922 23.3051L26.682 24.2949L27.6719 23.3051C27.8547 23.1223 28.1516 23.1223 28.3352 23.3051C28.5172 23.4879 28.5172 23.7848 28.3336 23.9676ZM28.9227 17.2824L26.4086 20.3684C26.3195 20.4777 26.1859 20.541 26.0453 20.541C26.0445 20.541 26.0438 20.541 26.043 20.541C25.9016 20.5402 25.7672 20.4754 25.6789 20.3652L24.4219 18.7934C24.2602 18.591 24.293 18.2965 24.4953 18.1348C24.6977 17.973 24.9922 18.0059 25.1539 18.2082L26.0484 19.3262L28.1961 16.6902C28.3594 16.4895 28.6547 16.4598 28.8555 16.623C29.0562 16.7863 29.0867 17.0816 28.9227 17.2824ZM36.7992 11.9004C36.7992 12.159 36.5891 12.3691 36.3305 12.3691H30.8164C30.5578 12.3691 30.3477 12.159 30.3477 11.9004C30.3477 11.6418 30.5578 11.4316 30.8164 11.4316H36.3305C36.5891 11.4316 36.7992 11.641 36.7992 11.9004ZM36.7992 17.7004C36.7992 17.959 36.5891 18.1691 36.3305 18.1691H30.8164C30.5578 18.1691 30.3477 17.959 30.3477 17.7004C30.3477 17.4418 30.5578 17.2316 30.8164 17.2316H36.3305C36.5891 17.2316 36.7992 17.4418 36.7992 17.7004ZM30.3469 13.7574C30.3469 13.4988 30.557 13.2887 30.8156 13.2887H34.7867C35.0453 13.2887 35.2555 13.4988 35.2555 13.7574C35.2555 14.016 35.0453 14.2262 34.7867 14.2262H30.8156C30.557 14.2262 30.3469 14.016 30.3469 13.7574ZM30.3469 19.5574C30.3469 19.2988 30.557 19.0887 30.8156 19.0887H34.7867C35.0453 19.0887 35.2555 19.2988 35.2555 19.5574C35.2555 19.816 35.0453 20.0262 34.7867 20.0262H30.8156C30.557 20.0262 30.3469 19.816 30.3469 19.5574ZM36.7992 23.9863C36.7992 24.2449 36.5891 24.4551 36.3305 24.4551H30.8164C30.5578 24.4551 30.3477 24.2449 30.3477 23.9863C30.3477 23.7277 30.5578 23.5176 30.8164 23.5176H36.3305C36.5891 23.5176 36.7992 23.727 36.7992 23.9863ZM35.2562 25.8434C35.2562 26.102 35.0461 26.3121 34.7875 26.3121H30.8164C30.5578 26.3121 30.3477 26.102 30.3477 25.8434C30.3477 25.5848 30.5578 25.3746 30.8164 25.3746H34.7875C35.0461 25.3746 35.2562 25.5848 35.2562 25.8434ZM13.5031 20.059C17.2117 20.059 20.2289 17.0418 20.2289 13.3332C20.2289 9.62461 17.2117 6.60742 13.5031 6.60742C9.79453 6.60742 6.77734 9.62461 6.77734 13.3332C6.77734 17.0418 9.79453 20.059 13.5031 20.059ZM13.5031 7.54492C16.6945 7.54492 19.2914 10.1418 19.2914 13.3332C19.2914 16.5254 16.6945 19.1215 13.5031 19.1215C10.3117 19.1215 7.71484 16.5246 7.71484 13.3332C7.71484 10.141 10.3117 7.54492 13.5031 7.54492Z" fill="black"/>
</svg>
